<svg xmlns="http://www.w3.org/2000/svg" width="653.085" height="400" viewBox="0 0 653.085 400">
  <g id="Group_124" data-name="Group 124" transform="translate(-44.442 -49.944)">
    <g id="Group_100" data-name="Group 100">
      <g id="Group_99" data-name="Group 99" opacity="0.76">
        <path id="Path_152" data-name="Path 152" d="M193.178,313.106h-54.13A53.124,53.124,0,0,0,86.08,366.074h0a53.123,53.123,0,0,0,52.968,52.968h457.7a86.022,86.022,0,0,0,85.771-85.77h0a86.021,86.021,0,0,0-85.77-85.769h0a36.372,36.372,0,0,1-36.265-36.266h0a36.372,36.372,0,0,1,36.266-36.265h43.646a37.815,37.815,0,0,0,37.7-37.7h0a37.814,37.814,0,0,0-37.7-37.7H585.2a14.724,14.724,0,0,1-14.679-14.68h0A14.722,14.722,0,0,1,585.2,70.206h9.73a10.161,10.161,0,0,0,10.13-10.131h0a10.161,10.161,0,0,0-10.13-10.131H531.089c-13.445,0-14.943,15.884-48.9,15.884H384.33a13.258,13.258,0,0,0-13.22,13.218h0a13.26,13.26,0,0,0,13.22,13.219h12.694a19.211,19.211,0,0,1,19.155,19.153h0a19.211,19.211,0,0,1-19.155,19.154h-19.1c-51.591,0-58.879,13.483-67.914,40.3s-55.965,28.978-55.965,28.978H189.873a28.949,28.949,0,0,0-28.864,28.864h0a28.949,28.949,0,0,0,28.864,28.864h3.3a27.846,27.846,0,0,1,27.763,27.764h0a27.845,27.845,0,0,1-27.763,27.762Zm430.181-242.9A10.131,10.131,0,1,1,633.49,60.075,10.132,10.132,0,0,1,623.359,70.206Z" fill="#e5ab5b" fill-rule="evenodd"/>
        <g id="Group_95" data-name="Group 95">
          <path id="Path_153" data-name="Path 153" d="M197.735,419.042h4.638V390.881l17.581,17.581-10.581,10.58h4.371l8.4-8.395,8.395,8.395h4.372l-10.581-10.58,17.581-17.581v28.161h4.637V199.851h-4.637v5.339l-5.34-5.339H232.2l9.711,9.71v.266l-19.767,19.766-19.766-19.766v-.266l9.71-9.71h-4.371l-5.339,5.339v-5.339h-4.638v58.108a27.542,27.542,0,0,1,4.638,1.2v-.788l1.275,1.275a28.023,28.023,0,0,1,15.229,15.23l1.077,1.076-.488.488a27.117,27.117,0,0,1,.929,3.441l1.744-1.743L241.906,297.9v.266l-19.767,19.767-11.252-11.252a28.033,28.033,0,0,1-2.51,1.861l11.577,11.576L202.373,337.7v-26.17a27.447,27.447,0,0,1-4.638,1.2V419.042Zm4.638-37.171V346.71l17.581,17.581-17.581,17.58Zm0-132.511V214.2l17.581,17.582-17.581,17.58ZM241.906,214.2V249.36l-17.581-17.58L241.906,214.2Zm0,44.171v35.162L224.325,275.95l17.581-17.581Zm0,44.171V337.7L224.325,320.12l17.581-17.58Zm0,44.17v35.161l-17.581-17.58,17.581-17.581Zm-39.533-92.979,19.766-19.766,19.767,19.766V254l-19.767,19.768L202.373,254v-.266Zm0,88.341,19.766-19.766,19.767,19.766v.267l-19.767,19.766-19.766-19.766v-.267Zm0,44.171,19.766-19.766,19.767,19.766v.267l-19.767,19.765L202.373,386.51Z" fill="#e5ab5b" fill-rule="evenodd"/>
          <path id="Path_154" data-name="Path 154" d="M522.053,419.042h4.636V390.881l17.581,17.581-10.581,10.58h4.371l8.4-8.395,8.4,8.395h4.371l-10.581-10.58,17.581-17.581v28.161h4.637V236.57a36.663,36.663,0,0,1-4.637-5.81v18.6l-17.581-17.58,12.7-12.7a35.824,35.824,0,0,1-.628-3.745l-14.259,14.259-19.767-19.766v-.266l19.767-19.767,14.666,14.667q.345-1.788.857-3.515l-13.337-13.337,17.581-17.581v21.686a36.662,36.662,0,0,1,4.637-5.81V88.01a14.65,14.65,0,0,1-.339-3.126h0a14.648,14.648,0,0,1,.339-3.125V49.944h-4.637V72.678L548.642,55.1l5.153-5.153h-4.371l-2.968,2.967-2.967-2.967h-4.372L544.27,55.1,526.689,72.678v-22.1a19.939,19.939,0,0,0-4.636,2.145v366.32Zm4.636-37.171V346.71l17.581,17.581-17.581,17.58Zm0-44.17V302.54l17.581,17.58L526.689,337.7Zm0-44.17V258.369L544.27,275.95l-17.581,17.581Zm0-44.171V214.2L544.27,231.78l-17.581,17.58Zm0-44.17V170.028l17.581,17.581L526.689,205.19Zm0-44.171V125.857l17.581,17.582-17.581,17.58Zm0-44.17V81.687l17.581,17.58-17.581,17.582Zm39.534-35.162v35.162L548.642,99.267l17.581-17.58Zm0,44.17v35.162l-17.581-17.58,17.581-17.582Zm0,132.512v35.162L548.642,275.95l17.581-17.581Zm0,44.171V337.7L548.642,320.12l17.581-17.58Zm0,44.17v35.161l-17.581-17.58,17.581-17.581ZM526.689,77.049l19.767-19.766,19.767,19.766v.266L546.456,97.082,526.689,77.315v-.266Zm0,44.171,19.767-19.767,19.767,19.767v.266l-19.767,19.766-19.767-19.766v-.266Zm0,44.17,19.767-19.766,19.767,19.766v.266l-19.767,19.767-19.767-19.767v-.266Zm0,88.341,19.767-19.766,19.767,19.766V254l-19.767,19.768L526.689,254v-.266Zm0,44.171,19.767-19.766L566.223,297.9v.266l-19.767,19.767-19.767-19.767V297.9Zm0,44.17,19.767-19.766,19.767,19.766v.267l-19.767,19.766-19.767-19.766v-.267Zm0,44.171,19.767-19.766,19.767,19.766v.267l-19.767,19.765L526.689,386.51Z" fill="#e5ab5b" fill-rule="evenodd"/>
          <path id="Path_155" data-name="Path 155" d="M181.32,313.106h-6.833v8.377l-8.377-8.377h-6.441l14.818,14.819v.391l-29.126,29.125-29.126-29.125v-.391l14.091-14.09a52.357,52.357,0,0,0-8.667,2.225l-5.424,5.423V318.3a53.051,53.051,0,0,0-6.832,3.938v87.663a53.053,53.053,0,0,0,6.832,3.939v-14L135.3,418.907q1.858.132,3.748.135h2.829L116.235,393.4v-.392l29.126-29.126,29.126,29.126v.392l-25.642,25.641h6.441l19.2-19.2v19.2h6.833V313.106Zm0-111.954a29.1,29.1,0,0,0-16.256,12.86l9.423-9.423V253.1a28.774,28.774,0,0,0,6.833,3.174V201.152ZM116.235,386.568v-51.81l25.906,25.9-25.906,25.906Zm58.252-51.81v51.81l-25.9-25.906Z" fill="#e5ab5b" fill-rule="evenodd"/>
          <path id="Path_156" data-name="Path 156" d="M587.275,419.042h6.834v-19.2l17.84,17.841q2.679-.486,5.3-1.14L594.109,393.4v-.392l29.125-29.126,29.125,29.126v.392l-15.736,15.737a86.609,86.609,0,0,0,22.57-17.229V274.636a87.038,87.038,0,0,0-9.511-8.726l-26.448,26.447-29.125-29.125v-.391l14.506-14.508q-2.884-.4-5.826-.613l-8.68,8.679V247.4a36.021,36.021,0,0,1-6.834-1.167v172.8Zm0-242.8a36.023,36.023,0,0,1,6.834-1.169V139.505l25.9,25.906-9.561,9.561h6.44l6.341-6.341,6.34,6.341h6.442l-9.561-9.561,25.9-25.906v33.507a37.567,37.567,0,0,0,6.834-3.1V104.62a37.568,37.568,0,0,0-6.834-3.1V126.23l-25.9-25.9.763-.762H619.25l.764.762-25.9,25.9V99.564h-6.834v76.673Zm0-106.031h7.655a10.084,10.084,0,0,0,1.318-.087l-2.139-2.139v-.392l10.5-10.5a10.147,10.147,0,0,0-2.4-4.041l-8.1,8.1v-11.2h-6.834V70.206Zm6.834,316.362v-51.81l25.9,25.9-25.9,25.906Zm0-65.085V269.674l25.9,25.9-25.9,25.9Zm58.25-51.809v51.809l-25.9-25.9,25.9-25.9Zm0,65.084v51.81l-25.9-25.906,25.9-25.9Zm-58.25-202.086,29.125-29.125,29.125,29.125v.392L623.234,162.19l-29.125-29.126v-.392Zm0,195.253L623.234,298.8l29.125,29.126v.391l-29.125,29.125-29.125-29.125Z" fill="#e5ab5b" fill-rule="evenodd"/>
        </g>
        <g id="Group_98" data-name="Group 98">
          <g id="Group_96" data-name="Group 96">
            <rect id="Rectangle_95" data-name="Rectangle 95" width="53.449" height="39.718" rx="3.432" transform="translate(167.861 334.735)" fill="#e5ab5b"/>
            <rect id="Rectangle_96" data-name="Rectangle 96" width="53.449" height="39.718" rx="3.432" transform="translate(198.427 334.735)" fill="#e5ab5b"/>
            <path id="Rectangle_97" data-name="Rectangle 97" d="M1.96,0H36.45a1.96,1.96,0,0,1,1.96,1.96v9.563a1.961,1.961,0,0,1-1.961,1.961H1.961A1.961,1.961,0,0,1,0,11.523V1.96A1.96,1.96,0,0,1,1.96,0Z" transform="translate(205.946 347.853)" fill="#e5ab5b"/>
            <path id="Rectangle_98" data-name="Rectangle 98" d="M.428,0h16.96a.428.428,0,0,1,.428.428V2.514a.428.428,0,0,1-.428.428H.427A.427.427,0,0,1,0,2.515V.428A.428.428,0,0,1,.428,0Z" transform="translate(209.95 350.141)" fill="#e5ab5b"/>
            <path id="Rectangle_99" data-name="Rectangle 99" d="M.427,0h8.38a.428.428,0,0,1,.428.428V2.514a.428.428,0,0,1-.428.428H.428A.428.428,0,0,1,0,2.514V.427A.427.427,0,0,1,.427,0Z" transform="translate(209.95 354.8)" fill="#e5ab5b"/>
          </g>
          <g id="Group_97" data-name="Group 97">
            <path id="Rectangle_100" data-name="Rectangle 100" d="M4.113,0H59.936a4.114,4.114,0,0,1,4.114,4.114V43.483A4.114,4.114,0,0,1,59.936,47.6H4.113A4.113,4.113,0,0,1,0,43.484V4.113A4.113,4.113,0,0,1,4.113,0Z" transform="translate(197.679 374.453)" fill="#e5ab5b"/>
            <path id="Rectangle_101" data-name="Rectangle 101" d="M4.113,0H59.937a4.113,4.113,0,0,1,4.113,4.113V43.483A4.114,4.114,0,0,1,59.935,47.6H4.113A4.113,4.113,0,0,1,0,43.484V4.113A4.113,4.113,0,0,1,4.113,0Z" transform="translate(161.052 374.453)" fill="#e5ab5b"/>
            <rect id="Rectangle_102" data-name="Rectangle 102" width="46.028" height="16.156" rx="2.349" transform="translate(170.063 390.174)" fill="#e5ab5b"/>
            <rect id="Rectangle_103" data-name="Rectangle 103" width="21.348" height="3.526" rx="0.513" transform="translate(189.943 392.914)" fill="#e5ab5b"/>
            <rect id="Rectangle_104" data-name="Rectangle 104" width="11.065" height="3.526" rx="0.513" transform="translate(200.227 398.497)" fill="#e5ab5b"/>
          </g>
        </g>
        <path id="Path_157" data-name="Path 157" d="M457.211,160.855a15.028,15.028,0,1,1-3.269,4.891,15.089,15.089,0,0,1,3.269-4.891Zm5.419-1.983a13.732,13.732,0,1,0,5.226-1.033,13.691,13.691,0,0,0-5.226,1.033Zm-1.664-11.078a24.232,24.232,0,0,0-2.775.989,24.516,24.516,0,0,0-2.665,1.331,24.9,24.9,0,0,0-4.8,3.621,1.571,1.571,0,0,1-1.883.228c-2.211-1.276-4.535-2.54-6.7-3.869a.914.914,0,0,0-.326-.1,1.016,1.016,0,0,0-.369.028,1,1,0,0,0-.34.165.975.975,0,0,0-.243.278c-1.612,2.439-3.229,5.59-4.722,8.176a.947.947,0,0,0-.118.347.989.989,0,0,0,.029.381.964.964,0,0,0,.165.339.934.934,0,0,0,.277.244c1.989,1.315,4.552,2.631,6.659,3.848a1.563,1.563,0,0,1,.665.745,1.58,1.58,0,0,1,.1.329l.138.046-.155.621c-.121.489-.226.978-.316,1.463s-.162.969-.225,1.486-.107,1-.136,1.5-.044.988-.044,1.514.014,1.031.044,1.513.075.995.136,1.5.139,1.011.225,1.484.2.976.316,1.465a1.57,1.57,0,0,1-.811,1.778l-5.9,3.406,0,0-.7.4a.952.952,0,0,0-.278.244,1.018,1.018,0,0,0-.193.72.941.941,0,0,0,.118.347l4.366,7.566h0l.353.611a.962.962,0,0,0,.243.278,1,1,0,0,0,.718.192.941.941,0,0,0,.346-.117c2.112-1.327,4.5-2.6,6.675-3.852a1.575,1.575,0,0,1,1.877.226l0,0a24.55,24.55,0,0,0,10.31,5.959,1.577,1.577,0,0,1,1.145,1.519l0,7.7a.929.929,0,0,0,.071.361.989.989,0,0,0,.52.521.944.944,0,0,0,.363.072h9.444a.934.934,0,0,0,.361-.072.989.989,0,0,0,.312-.209,1,1,0,0,0,.209-.312.93.93,0,0,0,.071-.361v-7.7a1.6,1.6,0,0,1,1.215-1.538,24.027,24.027,0,0,0,2.774-.988,24.8,24.8,0,0,0,7.469-4.952,1.579,1.579,0,0,1,1.962-.179l6.588,3.8a.911.911,0,0,0,.35.116,1,1,0,0,0,.379-.027.946.946,0,0,0,.583-.443c1.565-2.73,3.155-5.448,4.722-8.177a.921.921,0,0,0,.117-.348,1.01,1.01,0,0,0-.192-.718.909.909,0,0,0-.272-.244l-6.666-3.848a1.568,1.568,0,0,1-.665-.745,1.642,1.642,0,0,1-.084-.254l-.173-.035.174-.707c.122-.488.227-.977.317-1.463s.162-.969.225-1.486.107-1,.137-1.5.044-.987.044-1.513-.015-1.03-.044-1.512-.076-.993-.137-1.5q-.1-.784-.225-1.49c-.09-.485-.2-.973-.317-1.461a1.573,1.573,0,0,1,.81-1.778l6.6-3.811a.9.9,0,0,0,.274-.243.951.951,0,0,0,.164-.34.978.978,0,0,0,.028-.379.92.92,0,0,0-.117-.348c-1.612-2.4-3.226-5.6-4.722-8.177a.978.978,0,0,0-.244-.278.991.991,0,0,0-.339-.165,1.016,1.016,0,0,0-.379-.028.93.93,0,0,0-.348.119l-6.67,3.85a1.565,1.565,0,0,1-1,.2,1.59,1.59,0,0,1-.9-.446,25.047,25.047,0,0,0-2.284-1.947,24.6,24.6,0,0,0-5.184-2.993,24.226,24.226,0,0,0-2.822-1,1.576,1.576,0,0,1-1.146-1.519l0-7.7a.957.957,0,0,0-.07-.362.976.976,0,0,0-.211-.31.944.944,0,0,0-.311-.21.933.933,0,0,0-.361-.071h-9.444a.943.943,0,0,0-.363.071.962.962,0,0,0-.591.882v7.7a1.573,1.573,0,0,1-.339.977,1.6,1.6,0,0,1-.876.56Zm-3.32-.292a26.147,26.147,0,0,0-7.888,5.23.18.18,0,0,1-.106.049.183.183,0,0,1-.115-.022q-3.363-1.941-6.727-3.885a2.311,2.311,0,0,0-.841-.264,2.392,2.392,0,0,0-.885.066,2.362,2.362,0,0,0-.823.4,2.288,2.288,0,0,0-.6.687c-1.625,2.631-3.169,5.483-4.723,8.174a2.329,2.329,0,0,0-.292.87,2.358,2.358,0,0,0,.061.915,2.332,2.332,0,0,0,.4.824,2.288,2.288,0,0,0,.687.6c2.144,1.325,4.471,2.582,6.664,3.849a.179.179,0,0,1,.076.087.181.181,0,0,1,.011.117l-.153.622.008,0q-.1.453-.186.92-.147.8-.241,1.574t-.143,1.579q-.048.816-.049,1.6t.049,1.594c.033.543.081,1.071.143,1.581s.144,1.039.241,1.572.21,1.046.332,1.546a.173.173,0,0,1-.012.121.186.186,0,0,1-.082.09c-2.449,1.308-4.936,2.847-7.357,4.245l.086.108-.075.093a2.368,2.368,0,0,0-.465,1.739,2.308,2.308,0,0,0,.293.869l5.074,8.788.093-.056c.051.045.1.089.158.13a2.362,2.362,0,0,0,.823.4,2.388,2.388,0,0,0,.913.061,2.342,2.342,0,0,0,.847-.279c2.218-1.177,4.505-2.6,6.7-3.867a.2.2,0,0,1,.111-.019.2.2,0,0,1,.11.05,26.037,26.037,0,0,0,10.89,6.294.2.2,0,0,1,.1.066.173.173,0,0,1,.037.113v7.7a2.348,2.348,0,0,0,.692,1.658,2.374,2.374,0,0,0,.761.51,2.319,2.319,0,0,0,.9.18h9.444a2.327,2.327,0,0,0,.9-.18,2.357,2.357,0,0,0,1.272-1.273,2.341,2.341,0,0,0,.18-.9v-7.7a.184.184,0,0,1,.037-.117.189.189,0,0,1,.1-.064l.031-.011a25.822,25.822,0,0,0,2.967-1.054,26.124,26.124,0,0,0,7.889-5.23.176.176,0,0,1,.109-.051.2.2,0,0,1,.121.03l6.664,3.847a2.31,2.31,0,0,0,.866.292,2.365,2.365,0,0,0,1.738-.466,2.337,2.337,0,0,0,.592-.667c1.751-2.815,3.4-5.9,5.075-8.791l-.09-.054a2.064,2.064,0,0,0,.04-.222,2.391,2.391,0,0,0-.06-.913,2.341,2.341,0,0,0-.407-.823,2.3,2.3,0,0,0-.684-.6L493.252,178a.179.179,0,0,1-.075-.086.194.194,0,0,1-.011-.121l.173-.705-.01,0c.06-.274.115-.553.168-.835.1-.533.179-1.059.241-1.574s.111-1.038.143-1.581.05-1.075.05-1.594-.017-1.05-.05-1.594-.08-1.07-.143-1.584-.142-1.034-.241-1.572-.209-1.044-.332-1.542a.2.2,0,0,1,.013-.125.191.191,0,0,1,.085-.086l6.657-3.844a2.27,2.27,0,0,0,.684-.6,2.357,2.357,0,0,0,.185-2.584c-1.587-2.939-3.406-5.9-5.085-8.809l-.1.056c-.05-.046-.1-.089-.156-.131a2.364,2.364,0,0,0-1.737-.466,2.315,2.315,0,0,0-.866.288l-.494.283,0,0-6.182,3.568a.184.184,0,0,1-.225-.029l-.016-.016a25.984,25.984,0,0,0-10.874-6.278.18.18,0,0,1-.1-.066.163.163,0,0,1-.038-.113v-7.7a2.344,2.344,0,0,0-.693-1.658,2.381,2.381,0,0,0-.759-.51,2.326,2.326,0,0,0-.9-.18h-9.444a2.319,2.319,0,0,0-.9.18,2.42,2.42,0,0,0-.763.51,2.343,2.343,0,0,0-.69,1.658v7.7a.2.2,0,0,1-.038.118.191.191,0,0,1-.1.063l-.03.011A26.218,26.218,0,0,0,457.646,147.5Z" fill="#e5ab5b" fill-rule="evenodd"/>
        <path id="Path_158" data-name="Path 158" d="M67.03,236.337a15.044,15.044,0,1,1-3.268,4.892,15.085,15.085,0,0,1,3.268-4.892Zm5.419-1.982a13.738,13.738,0,1,0,5.227-1.033,13.685,13.685,0,0,0-5.227,1.033Zm-1.664-11.078a24.5,24.5,0,0,0-5.439,2.32,24.866,24.866,0,0,0-4.8,3.621,1.571,1.571,0,0,1-1.883.228c-2.21-1.276-4.535-2.539-6.7-3.869a.909.909,0,0,0-.325-.1,1,1,0,0,0-.709.193.95.95,0,0,0-.244.278c-1.612,2.439-3.229,5.59-4.722,8.176a.947.947,0,0,0-.118.347,1.008,1.008,0,0,0,.029.381.946.946,0,0,0,.443.583c1.989,1.314,4.551,2.631,6.66,3.848a1.568,1.568,0,0,1,.763,1.073l.137.047-.154.621q-.18.733-.316,1.463c-.086.473-.162.969-.224,1.486s-.108,1-.137,1.5-.044.988-.044,1.514.015,1.031.044,1.513.076.994.137,1.5.138,1.011.225,1.484.195.976.316,1.464a1.575,1.575,0,0,1-.813,1.78l-5.9,3.4,0,0-.7.4a.937.937,0,0,0-.443.583,1.008,1.008,0,0,0-.029.381.958.958,0,0,0,.118.348l4.367,7.564h0l.353.612a.946.946,0,0,0,.244.277.975.975,0,0,0,.339.166,1,1,0,0,0,.379.027.92.92,0,0,0,.345-.118c2.113-1.327,4.5-2.594,6.676-3.851a1.572,1.572,0,0,1,1.876.225l0,0a24.813,24.813,0,0,0,4.8,3.62,24.345,24.345,0,0,0,5.507,2.339A1.575,1.575,0,0,1,72,272.227l0,7.7a.93.93,0,0,0,.071.361.992.992,0,0,0,.521.522.953.953,0,0,0,.362.07H82.4a.96.96,0,0,0,.362-.07,1.013,1.013,0,0,0,.311-.209,1.027,1.027,0,0,0,.209-.313.93.93,0,0,0,.072-.361v-7.7a1.591,1.591,0,0,1,1.214-1.537,24.526,24.526,0,0,0,5.44-2.321,24.86,24.86,0,0,0,4.8-3.62,1.579,1.579,0,0,1,1.961-.18l6.589,3.8a.924.924,0,0,0,.348.116,1,1,0,0,0,.38-.027.967.967,0,0,0,.339-.166.933.933,0,0,0,.244-.277c1.565-2.73,3.155-5.448,4.722-8.177a.956.956,0,0,0,.118-.349.994.994,0,0,0-.029-.378.95.95,0,0,0-.164-.34.908.908,0,0,0-.272-.243l-6.666-3.848a1.566,1.566,0,0,1-.664-.745,1.463,1.463,0,0,1-.084-.255l-.174-.035.175-.706c.12-.488.226-.977.316-1.464s.162-.969.225-1.485.108-1,.137-1.5.044-.986.044-1.513-.015-1.03-.044-1.512-.076-.994-.137-1.5q-.1-.784-.225-1.491-.135-.728-.316-1.46a1.568,1.568,0,0,1,.1-1.042,1.589,1.589,0,0,1,.709-.736l6.6-3.811a.9.9,0,0,0,.275-.244.939.939,0,0,0,.164-.339,1,1,0,0,0,.029-.379.952.952,0,0,0-.118-.348c-1.612-2.4-3.226-5.6-4.722-8.177a.95.95,0,0,0-.244-.278.982.982,0,0,0-.339-.165,1.018,1.018,0,0,0-.379-.028.935.935,0,0,0-.349.119l-6.669,3.85a1.559,1.559,0,0,1-1,.2,1.588,1.588,0,0,1-.9-.444A24.611,24.611,0,0,0,90,225.6a24.492,24.492,0,0,0-5.506-2.338,1.578,1.578,0,0,1-1.144-1.518l0-7.7a.939.939,0,0,0-.072-.362.972.972,0,0,0-.21-.31.931.931,0,0,0-.672-.281H72.954a.935.935,0,0,0-.362.071.96.96,0,0,0-.592.882v7.7a1.579,1.579,0,0,1-.339.977,1.6,1.6,0,0,1-.876.559Zm-3.32-.292a26.146,26.146,0,0,0-7.888,5.23.182.182,0,0,1-.1.05.193.193,0,0,1-.116-.023q-3.363-1.941-6.726-3.885a2.328,2.328,0,0,0-.842-.264,2.371,2.371,0,0,0-1.708.471,2.314,2.314,0,0,0-.6.687c-1.625,2.631-3.168,5.483-4.723,8.174a2.329,2.329,0,0,0-.292.87,2.366,2.366,0,0,0,.466,1.739,2.3,2.3,0,0,0,.687.6c2.144,1.324,4.471,2.582,6.665,3.849a.177.177,0,0,1,.075.087.181.181,0,0,1,.011.117l-.154.622.009,0c-.067.3-.128.609-.186.921-.1.533-.179,1.058-.241,1.573s-.11,1.037-.143,1.579-.049,1.076-.049,1.6.017,1.051.049,1.594.081,1.071.143,1.581.144,1.039.241,1.572.21,1.045.333,1.546a.18.18,0,0,1-.013.121.175.175,0,0,1-.082.089c-2.449,1.309-4.936,2.847-7.357,4.246l.086.109-.074.093a2.362,2.362,0,0,0-.466,1.738,2.3,2.3,0,0,0,.293.869l5.074,8.788.094-.057c.051.046.1.09.157.131a2.379,2.379,0,0,0,.823.4,2.38,2.38,0,0,0,1.76-.217c2.219-1.179,4.5-2.6,6.7-3.867a.185.185,0,0,1,.112-.02.2.2,0,0,1,.109.05,26.071,26.071,0,0,0,5.068,3.819,25.863,25.863,0,0,0,5.823,2.475.191.191,0,0,1,.1.065.177.177,0,0,1,.037.114v7.7a2.318,2.318,0,0,0,.18.895,2.38,2.38,0,0,0,1.273,1.273,2.323,2.323,0,0,0,.9.18H82.4a2.318,2.318,0,0,0,.895-.18,2.4,2.4,0,0,0,.763-.51,2.36,2.36,0,0,0,.51-.763,2.318,2.318,0,0,0,.18-.895v-7.7a.175.175,0,0,1,.142-.181l.03-.011a25.827,25.827,0,0,0,5.785-2.462,25.986,25.986,0,0,0,5.071-3.822.191.191,0,0,1,.11-.052.2.2,0,0,1,.119.03l6.665,3.849a2.332,2.332,0,0,0,.866.291,2.4,2.4,0,0,0,.914-.061,2.362,2.362,0,0,0,.823-.4,2.325,2.325,0,0,0,.593-.667c1.751-2.816,3.406-5.9,5.076-8.791l-.09-.053c.017-.075.029-.148.039-.223a2.37,2.37,0,0,0-.061-.913,2.34,2.34,0,0,0-.405-.822,2.28,2.28,0,0,0-.685-.6l-6.667-3.849A.175.175,0,0,1,103,253.4a.2.2,0,0,1-.011-.121l.173-.7-.01,0c.06-.274.116-.552.168-.836.1-.532.179-1.058.241-1.572s.11-1.039.143-1.582.049-1.075.049-1.594-.016-1.05-.049-1.594-.08-1.07-.143-1.584-.142-1.035-.241-1.572-.209-1.043-.332-1.542a.2.2,0,0,1,.013-.124.18.18,0,0,1,.085-.087l6.658-3.844a2.27,2.27,0,0,0,.684-.6,2.362,2.362,0,0,0,.465-1.735,2.337,2.337,0,0,0-.281-.849c-1.587-2.939-3.406-5.9-5.085-8.809l-.094.056c-.051-.046-.1-.09-.158-.131a2.362,2.362,0,0,0-.823-.4,2.391,2.391,0,0,0-.913-.061,2.3,2.3,0,0,0-.866.288l-.493.283,0,0L96,228.242a.185.185,0,0,1-.118.024.188.188,0,0,1-.107-.053l-.016-.016a25.993,25.993,0,0,0-10.873-6.278.192.192,0,0,1-.1-.066.167.167,0,0,1-.038-.112v-7.7a2.339,2.339,0,0,0-.693-1.658,2.358,2.358,0,0,0-.76-.51,2.318,2.318,0,0,0-.895-.18H72.954a2.323,2.323,0,0,0-.9.18,2.415,2.415,0,0,0-.763.51,2.341,2.341,0,0,0-.69,1.658v7.7a.2.2,0,0,1-.038.117.189.189,0,0,1-.1.063l-.03.011A25.972,25.972,0,0,0,67.465,222.985Z" fill="#e5ab5b" fill-rule="evenodd"/>
        <path id="Path_159" data-name="Path 159" d="M125.623,280.814Zm3.321-12.649a6.392,6.392,0,1,1-1.871,4.519,6.374,6.374,0,0,1,1.871-4.519Zm1.381-6.334a11.253,11.253,0,0,0-4.7,2.723.391.391,0,0,1-.468.056l-2.97-1.713-.016-.011a.741.741,0,0,0-.989.28l-.012.02-2.089,3.619a.742.742,0,0,0,.27,1.006l.02.012,2.945,1.7a.394.394,0,0,1,.186.433h0a11.378,11.378,0,0,0,0,5.454.39.39,0,0,1-.207.445l-2.944,1.7h0a.744.744,0,0,0-.27,1.007l2.1,3.638h0a.742.742,0,0,0,1,.27l.023-.012,2.948-1.7a.393.393,0,0,1,.467.058,11.457,11.457,0,0,0,2.2,1.656,11.274,11.274,0,0,0,2.521,1.071.392.392,0,0,1,.285.377v3.425a.739.739,0,0,0,.735.735h4.2a.739.739,0,0,0,.734-.735v-3.425a.393.393,0,0,1,.3-.382,11.262,11.262,0,0,0,2.5-1.066,11.432,11.432,0,0,0,2.2-1.656.392.392,0,0,1,.488-.045l2.949,1.7a.741.741,0,0,0,1-.27l.013-.02,2.089-3.621h0a.741.741,0,0,0-.269-1l-2.967-1.713a.394.394,0,0,1-.185-.433h0a11.383,11.383,0,0,0,0-5.454.389.389,0,0,1,.207-.444l2.945-1.7a.742.742,0,0,0,.269-1.005l-.012-.022-2.089-3.618h0a.739.739,0,0,0-1-.27h0l-2.969,1.713a.391.391,0,0,1-.477-.065,11.279,11.279,0,0,0-4.709-2.719.392.392,0,0,1-.286-.377v-3.425a.738.738,0,0,0-.734-.735h-4.2a.737.737,0,0,0-.735.735v3.425A.392.392,0,0,1,130.325,261.831Z" fill="#e5ab5b" fill-rule="evenodd"/>
        <path id="Path_160" data-name="Path 160" d="M263.032,173.883a1.1,1.1,0,0,0-2.192,0v2.577h-2.577a1.1,1.1,0,1,0,0,2.192h2.577v2.578a1.1,1.1,0,1,0,2.192,0v-2.578h2.577a1.1,1.1,0,0,0,0-2.192h-2.577Z" fill="#e5ab5b" fill-rule="evenodd"/>
        <path id="Path_161" data-name="Path 161" d="M330.312,102.644ZM333.634,90a6.392,6.392,0,1,1-1.871,4.518A6.372,6.372,0,0,1,333.634,90Zm1.381-6.334a11.269,11.269,0,0,0-2.505,1.066,11.422,11.422,0,0,0-2.2,1.656.39.39,0,0,1-.467.057l-2.97-1.714-.016-.01a.739.739,0,0,0-.988.28l-.013.02-2.089,3.618a.74.74,0,0,0,.27,1.007l.02.013,2.945,1.7a.39.39,0,0,1,.185.433h0a11.13,11.13,0,0,0-.248,1.35,11.374,11.374,0,0,0,.248,4.1.392.392,0,0,1-.208.445l-2.943,1.7h0a.74.74,0,0,0-.27,1.006l2.1,3.639h0a.739.739,0,0,0,1,.271l.022-.012,2.949-1.7a.393.393,0,0,1,.466.057,11.341,11.341,0,0,0,2.2,1.656,11.183,11.183,0,0,0,2.521,1.071.393.393,0,0,1,.285.378v3.425a.739.739,0,0,0,.735.735h4.2a.739.739,0,0,0,.735-.735v-3.425a.4.4,0,0,1,.3-.383,11.216,11.216,0,0,0,2.5-1.066,11.343,11.343,0,0,0,2.2-1.656.389.389,0,0,1,.487-.044l2.95,1.7a.74.74,0,0,0,1.005-.271l.013-.02,2.089-3.619h0a.742.742,0,0,0-.269-1L349.3,97.673a.393.393,0,0,1-.185-.433h0a11.165,11.165,0,0,0,.247-1.35,11.463,11.463,0,0,0,0-2.754,11.149,11.149,0,0,0-.247-1.349.393.393,0,0,1,.207-.446l2.945-1.7a.742.742,0,0,0,.269-1l-.012-.022L350.435,85h0a.739.739,0,0,0-1.005-.27h0l-2.969,1.714a.392.392,0,0,1-.477-.064,11.36,11.36,0,0,0-2.189-1.649,11.23,11.23,0,0,0-2.521-1.071.393.393,0,0,1-.285-.377V79.854a.737.737,0,0,0-.735-.735h-4.2a.737.737,0,0,0-.735.735v3.425A.394.394,0,0,1,335.015,83.661Z" fill="#e5ab5b" fill-rule="evenodd"/>
        <path id="Path_162" data-name="Path 162" d="M689.726,73.764a1.1,1.1,0,0,0-2.192,0v2.577h-2.577a1.1,1.1,0,1,0,0,2.192h2.577v2.578a1.1,1.1,0,0,0,2.192,0V78.533H692.3a1.1,1.1,0,0,0,0-2.192h-2.578Z" fill="#e5ab5b" fill-rule="evenodd"/>
        <path id="Path_163" data-name="Path 163" d="M50.864,359.689a1.1,1.1,0,1,0-2.191,0v2.577H46.1a1.1,1.1,0,1,0,0,2.192h2.577v2.577a1.1,1.1,0,1,0,2.191,0v-2.577h2.578a1.1,1.1,0,0,0,0-2.192H50.864Z" fill="#e5ab5b" fill-rule="evenodd"/>
        <path id="Path_164" data-name="Path 164" d="M400.269,160.614Zm3.323-12.648a6.392,6.392,0,1,1-1.871,4.518,6.375,6.375,0,0,1,1.871-4.518Zm1.381-6.335a11.253,11.253,0,0,0-2.505,1.067,11.383,11.383,0,0,0-2.2,1.656.388.388,0,0,1-.467.057l-2.97-1.714-.016-.01a.744.744,0,0,0-.989.279l-.012.021-2.089,3.618a.741.741,0,0,0,.27,1.007l.02.012,2.946,1.7a.393.393,0,0,1,.183.433h0a11.33,11.33,0,0,0-.249,1.35,11.6,11.6,0,0,0,0,2.754,11.366,11.366,0,0,0,.249,1.35.393.393,0,0,1-.208.445l-2.944,1.7h0a.74.74,0,0,0-.27,1.006l2.1,3.64h0a.74.74,0,0,0,.447.341.732.732,0,0,0,.558-.072l.022-.012,2.949-1.7a.392.392,0,0,1,.466.057,11.342,11.342,0,0,0,2.2,1.656,11.183,11.183,0,0,0,2.521,1.071.394.394,0,0,1,.285.378v3.425a.736.736,0,0,0,.736.734h4.2a.736.736,0,0,0,.735-.734v-3.425a.394.394,0,0,1,.3-.383,11.253,11.253,0,0,0,4.7-2.722.392.392,0,0,1,.488-.045l2.95,1.7a.74.74,0,0,0,1.005-.269l.012-.021,2.09-3.62h0a.73.73,0,0,0,.071-.557.739.739,0,0,0-.34-.448l-2.967-1.712a.392.392,0,0,1-.185-.433h0a10.978,10.978,0,0,0,.247-1.35,11.467,11.467,0,0,0,0-2.754,10.944,10.944,0,0,0-.247-1.35.391.391,0,0,1,.207-.445l2.945-1.7a.742.742,0,0,0,.269-1.005l-.013-.022-2.088-3.619h0a.745.745,0,0,0-1.006-.27h0l-2.971,1.714a.39.39,0,0,1-.476-.065,11.388,11.388,0,0,0-2.188-1.648,11.256,11.256,0,0,0-2.522-1.071.393.393,0,0,1-.285-.377v-3.426a.738.738,0,0,0-.735-.734h-4.2a.737.737,0,0,0-.736.734v3.426A.392.392,0,0,1,404.973,141.631Z" fill="#e5ab5b" fill-rule="evenodd"/>
        <path id="Path_165" data-name="Path 165" d="M360.389,144.285a1.1,1.1,0,1,0-2.192,0v2.577H355.62a1.1,1.1,0,0,0,0,2.193H358.2v2.577a1.1,1.1,0,0,0,2.192,0v-2.577h2.577a1.1,1.1,0,0,0,0-2.193h-2.577Z" fill="#e5ab5b" fill-rule="evenodd"/>
        <path id="Path_166" data-name="Path 166" d="M364.856,265.653a1.1,1.1,0,0,0-2.191,0v2.577h-2.578a1.1,1.1,0,0,0,0,2.193h2.578V273a1.1,1.1,0,1,0,2.191,0v-2.577h2.578a1.1,1.1,0,0,0,0-2.193h-2.578Z" fill="#e5ab5b" fill-rule="evenodd"/>
        <path id="Path_167" data-name="Path 167" d="M268.8,211.3a1.1,1.1,0,1,0-2.192,0v2.578h-2.577a1.1,1.1,0,1,0,0,2.192h2.577v2.577a1.1,1.1,0,1,0,2.192,0v-2.577h2.577a1.1,1.1,0,0,0,0-2.192H268.8Z" fill="#e5ab5b" fill-rule="evenodd"/>
      </g>
      <path id="Path_168" data-name="Path 168" d="M633.137,204.813a1.1,1.1,0,0,0-2.193,0v2.577h-2.576a1.1,1.1,0,1,0,0,2.192h2.576v2.577a1.1,1.1,0,0,0,2.193,0v-2.577h2.577a1.1,1.1,0,1,0,0-2.192h-2.577Z" fill="#bfcce8" fill-rule="evenodd"/>
    </g>
    <g id="Group_103" data-name="Group 103">
      <g id="Group_101" data-name="Group 101">
        <path id="Path_169" data-name="Path 169" d="M472.379,285.652a28.464,28.464,0,0,1,11.679,8.417c2.912,3.536,38.546,71.8,40.836,76.248s2.283,15.68-3.117,22.594c-2.095,2.686-8.121,10.2-14.706,18.391H485.723c7.752-11.632,17.873-26.843,18.6-28.068,1.186-2,1.781-3.937-.385-7.318s-30.692-38.16-30.692-38.16S459.221,298.552,472.379,285.652Z" fill="#0f1630" stroke="#0e1632" stroke-miterlimit="22.926" stroke-width="0.216" fill-rule="evenodd"/>
        <path id="Path_170" data-name="Path 170" d="M434.9,280.161s35.932,5.108,37.481,5.491,4.172,4,5.585,6.436,3.074,37.511,3.879,47.332-2.364,52.635-1.42,64.134c.156,1.908.449,4.593.829,7.748H373.769c-1.379-12.716-10.964-52.5-11.748-62.063-.8-9.82-4.877-44.7-3.878-47.331s3-6.629,4.462-7.26S399.112,283.1,399.112,283.1l17.964,1.981Z" fill="#cec9d0" fill-rule="evenodd"/>
        <path id="Path_171" data-name="Path 171" d="M434.9,280.161l5.94.848a5.142,5.142,0,0,1-1.231,2.438c-13.96,16-28.226,17.17-44.6,3.656a5.127,5.127,0,0,1-1.617-2.22c3.433-1.073,5.727-1.788,5.727-1.788l17.964,1.981Z" fill="#fff" fill-rule="evenodd"/>
        <path id="Path_172" data-name="Path 172" d="M428.614,245.552l.307,8.945s1.5,18.253,1.723,21.025c.11,1.339,1.661,3.159,4.254,4.64-11.747,13.464-22,14.305-35.786,2.933,2.319-1.884,3.552-3.931,3.443-5.271-.227-2.771-1.724-21.025-1.724-21.025l-1.152-8.876s7.214.563,14.694,1.576C421.587,247.282,428.614,245.552,428.614,245.552Z" fill="#e8685b" fill-rule="evenodd"/>
        <path id="Path_173" data-name="Path 173" d="M437.868,280.585s-4.154,17.955-4.463,21.609-5.189,40.44-4.679,46.658c.231,2.829,5.852,31.573,11.97,62.45h48.955c-1.2-7.526-2.231-14.015-2.785-17.679-1.989-13.174-3.323-40.555-2.889-57.465s-3.768-42.286-4.268-44.695-5.3-5.418-6.786-5.977Z" fill="#0f1630" fill-rule="evenodd"/>
        <path id="Path_174" data-name="Path 174" d="M432.507,309.878c-1.473,12.121-4.167,34.274-3.781,38.974,0,0,23.811-25.925,23.45-28.481s-10.049-21.628-10.049-21.628S437.965,303.529,432.507,309.878Z" fill="#3d4155" fill-rule="evenodd"/>
        <path id="Path_175" data-name="Path 175" d="M436.674,280.414s1.053-.942,1.43-.974,6.837,2.156,6.837,2.156,9.424,14.816,9.579,16.708-23.142,20.953-23.142,20.953l2.065-17.429s3.377-17.038,4.425-21.243Z" fill="#545a6c" fill-rule="evenodd"/>
        <path id="Path_176" data-name="Path 176" d="M363.024,294.614a28.461,28.461,0,0,0-10.152,10.207c-2.3,3.963-26.343,77.122-27.877,81.879s.3,15.843,6.752,21.785c.7.644,1.761,1.608,3.1,2.817h26.643c-7.057-7.568-13.446-14.438-14.092-15.206-1.5-1.781-2.4-3.6-.811-7.286s24.069-42.647,24.069-42.647S378.106,305.2,363.024,294.614Z" fill="#0f1630" fill-rule="evenodd"/>
        <path id="Path_177" data-name="Path 177" d="M396.249,284s7.022,17.039,7.922,20.6,11.7,39.054,12.214,45.272c.226,2.765-.6,30.8-1.577,61.439H366.379c-.021-3.2-.045-5.883-.07-7.8-.182-13.321-3.324-40.554-6.507-57.168s-3.166-42.336-3.064-44.794,4.345-6.209,5.722-7Z" fill="#0f1630" fill-rule="evenodd"/>
        <path id="Path_178" data-name="Path 178" d="M406.309,312.025c3.425,11.72,9.69,33.139,10.076,37.838,0,0-27.715-21.7-27.775-24.283S395,302.605,395,302.605,399.889,306.649,406.309,312.025Z" fill="#3d4155" fill-rule="evenodd"/>
        <path id="Path_179" data-name="Path 179" d="M397.4,283.634a5.269,5.269,0,0,0-1.568-.729c-.378.03-6.395,3.24-6.395,3.24S382.548,302.3,382.7,304.19s26.244,16.9,26.244,16.9l-4.875-16.861s-6.105-16.259-7.824-20.238Z" fill="#545a6c" fill-rule="evenodd"/>
      </g>
      <g id="Group_102" data-name="Group 102">
        <path id="Path_180" data-name="Path 180" d="M384.2,251c-.181.041-.357.088-.532.142l-.005,0h0a7.394,7.394,0,1,0,6.279.92c.386,2.156.285,4.876-2.464,5.4l-.306-4.251A2.541,2.541,0,0,0,384.2,251Z" fill="#e8685b" fill-rule="evenodd"/>
        <path id="Path_181" data-name="Path 181" d="M437.326,246.156c.185.009.367.022.548.043h.006a7.394,7.394,0,1,1-6.01,2.041c.011,2.19.6,4.848,3.4,4.864l-.467-4.236A2.54,2.54,0,0,1,437.326,246.156Z" fill="#e8685b" fill-rule="evenodd"/>
      </g>
      <path id="Path_182" data-name="Path 182" d="M407.41,211.81h0a25.381,25.381,0,0,0-22.9,27.5l2.09,22.923a25.382,25.382,0,0,0,27.5,22.9h0a25.38,25.38,0,0,0,22.9-27.5l-2.09-22.923A25.382,25.382,0,0,0,407.41,211.81Z" fill="#f4ad85" fill-rule="evenodd"/>
      <path id="Path_183" data-name="Path 183" d="M386.066,228.029a25.056,25.056,0,0,0-1.559,11.281l2.09,22.922a25.393,25.393,0,0,0,25.1,23.006c-14.651-1.127-17.364-18.442-18.483-27.558s2.3-11.16,3.654-11.612,22.634-3.984,27.341-4.527,7.075,2.068,7.075,2.068l1.979-2.883-1.9-6.156s1.624.053,3.539.006a25.209,25.209,0,0,0-.929-4.765,40.131,40.131,0,0,1-8.314-3.752c-5.612-3.621-32.411.906-36.756.906A6.808,6.808,0,0,0,386.066,228.029Z" fill="#ed9072" fill-rule="evenodd"/>
      <path id="Path_184" data-name="Path 184" d="M433.345,246.874s.153,1.685.3,3.249,1.753,3.177,2.953,3.067l-.325-3.549a3.546,3.546,0,0,1,3.5-2.959c8.879-12.309,5.919-30.293-5.525-38.713s-34.243-6.947-38.093-5.261-7.325,8.8-7.325,8.8-3.646-2.7-6.631-.852S370.545,233.19,371,238.123s10.892,13.839,10.892,13.839a3.544,3.544,0,0,1,3.979,2.276l.324,3.55c1.2-.109,2.493-1.986,2.351-3.551l-.3-3.249c.113-.062.223-.128.333-.193,3.056-1.986,2.449-8.051,2.449-8.051l-2.816-3.94,5.59-7.353,6.431-2.116,14.612.56s17.23,2.142,15.721,7.156S433.345,246.874,433.345,246.874Z" fill="#0e1632" fill-rule="evenodd"/>
      <path id="Path_185" data-name="Path 185" d="M433.345,246.874c.175,1.931,1.467,10.555,3.715,10.35,6.7-14.12,12.894-28.858,2.908-43.324-1.175,9.309-10.448,14.987-19.734,16.941,4.913,1.07,11.273,3.08,10.331,6.21-1.507,5.016,2.78,9.823,2.78,9.823Zm-61.706-13.082a14.634,14.634,0,0,0-.643,4.331c.347,3.8,13.005,22.162,15.815,26.335,1.463-.133,1.659-11.009,1.434-13.47.113-.063.222-.127.333-.193,3.056-1.986,2.449-8.051,2.449-8.051l-2.816-3.94,5.59-7.354,6.135-2.018c-3.088-1.246-3.98-2.555-3.98-2.555C383.274,239.708,375.914,239.007,371.639,233.792Z" fill="#010518" fill-rule="evenodd"/>
      <path id="Path_186" data-name="Path 186" d="M382.1,247.27s-10.6-22.984,10.724-26.914c0,0,5.645-11.144,16.953-8.349s18.388,2.716,23.46-2.281c0,0,2.909,5.474-.623,10.26,10.7,8.306,6.987,18.956,2.607,24.7-1.755-11.912-33.136,1.348-37.239-10.1C397.569,245.529,386.1,242.807,382.1,247.27Z" fill="#0e1632" fill-rule="evenodd"/>
      <path id="Path_187" data-name="Path 187" d="M382.1,247.27a33.22,33.22,0,0,1-2.554-10.013c4.122-.392,9.469-3.352,16.415-10.38,0,0,2.837,4.169,15.935,4.707,7.955.327,18.069-2.617,23.771-8.751,6.816,7.766,3.447,16.748-.446,21.857-1.755-11.912-33.135,1.348-37.239-10.1C397.569,245.529,386.1,242.807,382.1,247.27Z" fill="#010518" fill-rule="evenodd"/>
    </g>
    <g id="Group_107" data-name="Group 107">
      <g id="Group_104" data-name="Group 104">
        <path id="Path_188" data-name="Path 188" d="M690.287,249.747c-4.484-16.812-20.15-7.567-26.854,6.826s-22.067,70.535-35.348,85.072c-5.148,5.634-3.573,6.108,1.159,3.364C652.849,331.325,696.459,272.888,690.287,249.747Z" fill="#05304b" fill-rule="evenodd"/>
        <path id="Path_189" data-name="Path 189" d="M624.913,346.022c-.162.755.549.791,1.895.234,35.786-30.266,54.79-97.925,54.851-98.142a.7.7,0,1,0-1.348-.384C680.25,247.948,660.986,316.53,624.913,346.022Z" fill="#0076bd" fill-rule="evenodd"/>
      </g>
      <g id="Group_105" data-name="Group 105">
        <path id="Path_190" data-name="Path 190" d="M650.631,258.712c-7.82-12.257-17.962-.936-19.664,12.223s.248,61.758-6.657,76.693c-2.676,5.789-1.3,5.769,1.773,2.387C641.427,333.15,661.4,275.584,650.631,258.712Z" fill="#0076bd" fill-rule="evenodd"/>
        <path id="Path_191" data-name="Path 191" d="M622.89,351.916c.061.644.636.491,1.567-.293,20.856-33.15,18.9-91.843,18.889-92.031a.585.585,0,1,0-1.17.034C642.182,259.815,644.17,319.31,622.89,351.916Z" fill="#05304b" fill-rule="evenodd"/>
      </g>
      <g id="Group_106" data-name="Group 106">
        <path id="Path_192" data-name="Path 192" d="M689.4,300.424c13.515,1.409,8.294,14.621-1.991,21.548s-51.719,25.621-61.313,37.637c-3.719,4.659-4.276,3.5-2.737-.484C631.036,339.249,670.8,298.484,689.4,300.424Z" fill="#0076bd" fill-rule="evenodd"/>
        <path id="Path_193" data-name="Path 193" d="M623.1,362.59c-.563.217-.676-.327-.411-1.433,18.984-31.3,68.858-54.2,69.017-54.277a.547.547,0,0,1,.461.993C692.012,307.947,641.457,331.168,623.1,362.59Z" fill="#05304b" fill-rule="evenodd"/>
      </g>
    </g>
    <g id="Group_108" data-name="Group 108">
      <path id="Path_194" data-name="Path 194" d="M496.392,283.536l-3.356,29.487s5.072,69.057,7.567,98.279h37.659l.827-117.531Z" fill="#0e1632" fill-rule="evenodd"/>
      <path id="Path_195" data-name="Path 195" d="M516.363,309.111l-1.658,10.422,3.3,91.769h45.91c.766-6.352,1.457-11.783,2.017-15.7,3.448-24.137,4.628-57.683,4.613-65.623s-9.211-19.721-12.372-20.584S516.363,309.111,516.363,309.111Z" fill="#0e1632" fill-rule="evenodd"/>
      <path id="Path_196" data-name="Path 196" d="M501.006,167.424s-1.568-2.918-2.806-2.371-42.807,61.715-44.216,66.978-.829,14.592,7.217,27.54,25.26,44.727,25.867,45.412,10.015-5.691,11.018-7.473c0,0,.412-.586-.191-1.777s-21.068-49.666-22.364-53.146,35.165-46.634,36.9-50.085S520.877,170.944,501.006,167.424Z" fill="#171c3a" fill-rule="evenodd"/>
      <path id="Path_197" data-name="Path 197" d="M534.324,149.9l-18.1,12.931S503.306,213.4,503.256,215.7s-5,30.182-5,30.182,18.1,7.184,20.689.287,31.61-56.321,33.046-64.08-2.012-26.149-3.736-28.16S534.324,149.9,534.324,149.9Z" fill="#c9c4d1" fill-rule="evenodd"/>
      <path id="Path_198" data-name="Path 198" d="M516.1,158.422s-16.4,5.769-17.9,6.631-10.364,33.132-11.082,36.149,4.024,58.331,4.024,63.217-6.178,65.947-6.323,66.953a1.807,1.807,0,0,0,1.868,2.155c1.437,0,17.529-30.315,18.822-33.763s-2.893-55.456-2.893-55.456l10.941-74.428Z" fill="#171c3a" fill-rule="evenodd"/>
      <path id="Path_199" data-name="Path 199" d="M564.773,166.6s23.5,23.685,24.361,25.122-23.562,82.327-23.849,86.062,12.07,58.764,12.5,60.2a2.777,2.777,0,0,1-.359,1.437,5.362,5.362,0,0,1-1.939,1.725c-.5.359-57.973-8.909-62.572-11.783S498.4,281.806,498.4,275.772s3.476-29.13,3.476-29.13l28.277-47.881S550.586,168.123,564.773,166.6Z" fill="#1c2344" fill-rule="evenodd"/>
      <path id="Path_200" data-name="Path 200" d="M561.051,162.876s27.221,27.409,28.083,28.845-23.562,82.327-23.849,86.062,12.07,58.764,12.5,60.2a2.777,2.777,0,0,1-.359,1.437,5.357,5.357,0,0,1-1.94,1.725c-.259.184-15.546-2.171-30.977-4.895,13.386-19.294,12.687-51.26,11.519-53.2-1.357-2.265-8.51-7.152-7.424-7.515s8.419-.543,8.962-2.353,10.859-59.093,10.859-59.093l6.886-4.643s3.079-22.271.906-25.53-16.5-15.583-16.62-15.683C561.38,167.354,559.4,163.054,561.051,162.876Z" fill="#101937" fill-rule="evenodd"/>
      <path id="Path_201" data-name="Path 201" d="M585.846,188.111a40.991,40.991,0,0,1,6.019,6.048c2.462,3.211,33.125,67.307,33.758,73.315s-1.61,16.127-12.658,28.92-35.39,44.628-36.174,45.273-9.986-7.962-10.777-10.088c0,0-.351-.712.515-1.913s31.652-50.763,33.672-54.35-30.466-57.149-31.775-61.231S563.473,188.536,585.846,188.111Z" fill="#383d5d" fill-rule="evenodd"/>
      <path id="Path_202" data-name="Path 202" d="M551.522,127.4c.166,8.958-2.157,18.211-1.57,27.182.12,1.83,1,2.438,3.254,3.9,3.127,4.653-5.425,19.368-11.049,20.244-.372.058-9.533-7.126-16.022-8.794-3.33-.855-6.073,3.4-6.323,3.216-1.349-.981,1.552-8.592.607-11.48,1.141-.306,2.158-2.855,2.968-3.6,5.257-4.849,3.542-16.952-.765-21.525C519.406,133.132,551.522,127.4,551.522,127.4Z" fill="#ed9072" fill-rule="evenodd"/>
      <path id="Path_203" data-name="Path 203" d="M557.447,162c-.715,2.026-18.084,25.209-18.084,25.209s-.621.833-1.529-.223-11.609-15.993-11.609-15.993l23.766-17.709-.543-4.074C549.8,148.836,558.182,159.916,557.447,162Z" fill="#fff" fill-rule="evenodd"/>
      <path id="Path_204" data-name="Path 204" d="M525.6,154.461c.006-.012-.026-.035-.091-.04-8.124-.573-9.355,22.445-7.927,26.957.01.03,4.937-7.533,8.334-10.542C527.451,169.476,522.642,159.075,525.6,154.461Z" fill="#fff" fill-rule="evenodd"/>
      <path id="Path_205" data-name="Path 205" d="M555.4,155.381s-30.387,37.67-32.543,40.83-18.677,42.1-20.976,50.431c0,0,25.431-31.753,29.023-34.626s16.885-13.937,16.885-13.937a1.922,1.922,0,0,0,.179-1.222c-.179-.5-3.878-8.871-3.878-8.871s11.063,1.652,12.068,1.58,5.973-24.755,6.116-25.473S555.4,155.381,555.4,155.381Z" fill="#383d5d" fill-rule="evenodd"/>
      <path id="Path_206" data-name="Path 206" d="M525.664,154.4s-8.038,1.863-9.331,2.581-11.494,17.672-11.781,19.109a.9.9,0,0,0,.43.97,29.808,29.808,0,0,1,2.911,1.832c.214.215-3.557.646-3.557.646s-.43.163-.358.827-1.362,63.938-1.362,63.938,12.541-69.965,14.4-74.571,6.847-11.889,6.847-11.889Z" fill="#383d5d" fill-rule="evenodd"/>
      <path id="Path_207" data-name="Path 207" d="M511.993,114.362a7.166,7.166,0,1,1-7.126,7.206A7.168,7.168,0,0,1,511.993,114.362Z" fill="#e8685b" fill-rule="evenodd"/>
      <path id="Path_208" data-name="Path 208" d="M559.818,114.089a7.166,7.166,0,1,1-7.126,7.205A7.166,7.166,0,0,1,559.818,114.089Z" fill="#e8685b" fill-rule="evenodd"/>
      <path id="Path_209" data-name="Path 209" d="M533.432,77.529h0c13.5-.082,24.605,11.9,24.681,26.619l.124,24.325c.074,14.722-10.909,26.833-24.408,26.916h0c-13.5.082-24.606-11.9-24.682-26.617l-.124-24.327C508.949,89.723,519.932,77.611,533.432,77.529Z" fill="#f4ad85" fill-rule="evenodd"/>
      <path id="Path_210" data-name="Path 210" d="M557.159,96.916a28.774,28.774,0,0,1,.955,7.231l.124,24.326c.069,13.537-9.212,24.866-21.2,26.666-1.177.123-1.933.2-2.1.215h-.011c13.405-1.327,16.243-18.936,16.243-24.246V117.319c0-13.029-7.211-14.39-12.145-14.39H514.548a4.782,4.782,0,0,0-4.3,2.91l-1.22-.927,0-.467a27.875,27.875,0,0,1,7.915-19.792c12.29,2.4,32.728,6.484,34.137,7.365C551.842,92.5,554.344,94.548,557.159,96.916Z" fill="#ed9072" fill-rule="evenodd"/>
      <path id="Path_211" data-name="Path 211" d="M505.679,97.132l4.409,4.426s2.113-8.229,19.89-5.691-16.392-16.522-20.262-14.441S502.474,89.627,505.679,97.132Z" fill="#01020e" fill-rule="evenodd"/>
      <path id="Path_212" data-name="Path 212" d="M551.861,97.53s-17.5,1.919-26.4-3.735-16.442-8.275-18.725-5.2c-2.165,2.914,6.542,10.781,3.039,24.163-.19.726-.648,13.1-.915,13.862-.085-4.843-1.636-17.217-3.241-20.314-4.789-9.244-12.28-16.194-2.551-30.057,5.973-8.508,16.117-12.5,20.828-8.19,15.356,14.027,36.5-4.2,36.625,19.046,0,0,11.389,3.835.8,27.138a3.025,3.025,0,0,0-3.128,3.36l.094,12.441C549.74,130.042,549.566,107.621,551.861,97.53Z" fill="#0e1632" fill-rule="evenodd"/>
    </g>
    <g id="Group_111" data-name="Group 111">
      <g id="Group_109" data-name="Group 109">
        <path id="Rectangle_105" data-name="Rectangle 105" d="M4.352,0H53.861a4.352,4.352,0,0,1,4.352,4.352V89.47a4.353,4.353,0,0,1-4.353,4.353H4.352A4.352,4.352,0,0,1,0,89.471V4.352A4.352,4.352,0,0,1,4.352,0Z" transform="translate(539.974 308.228)" fill="#e2e1e7"/>
        <rect id="Rectangle_106" data-name="Rectangle 106" width="47.373" height="93.822" rx="3.662" transform="translate(591.264 308.228)" fill="#fff"/>
        <path id="Path_213" data-name="Path 213" d="M530.066,343.859h51.29c0-9.191,9.908-10.207,9.908-10.207h-51.29S530.066,334.668,530.066,343.859Z" fill="#fff" fill-rule="evenodd"/>
        <path id="Path_297" data-name="Path 297" d="M2.865,0h53.08A2.865,2.865,0,0,1,58.81,2.865V21.486a2.865,2.865,0,0,1-2.865,2.865H2.865A2.865,2.865,0,0,1,0,21.486V2.865A2.865,2.865,0,0,1,2.865,0Z" transform="translate(537.108 386.95)" fill="#f1a338"/>
        <path id="Path_214" data-name="Path 214" d="M591.384,386.95h11.657c.263,0,3.1.11,4.694,3.581,1.672,3.641,1.493,7.282,6.447,7.282h2.132c4.955,0,4.815-3.726,6.447-7.282s4.432-3.578,4.7-3.581h11.061a2.874,2.874,0,0,1,2.865,2.865v18.621a2.875,2.875,0,0,1-2.865,2.866H591.384a2.873,2.873,0,0,1-2.865-2.866V389.815A2.873,2.873,0,0,1,591.384,386.95Z" fill="#e5ab5b" fill-rule="evenodd"/>
        <path id="Path_215" data-name="Path 215" d="M530.066,376h51.29c0-9.192,9.908-10.206,9.908-10.206h-51.29S530.066,366.811,530.066,376Z" fill="#fff" fill-rule="evenodd"/>
        <path id="Path_216" data-name="Path 216" d="M646.976,360.679H600.33c0-9.192-9.066-10.206-9.066-10.206h46.644S646.976,351.487,646.976,360.679Z" fill="#acabbb" fill-rule="evenodd"/>
        <path id="Path_217" data-name="Path 217" d="M598.686,318.42h35.753A1.581,1.581,0,0,1,636.016,320h0a1.581,1.581,0,0,1-1.577,1.576H598.686A1.58,1.58,0,0,1,597.111,320h0A1.58,1.58,0,0,1,598.686,318.42Z" fill="#e2e1e7" fill-rule="evenodd"/>
        <path id="Path_218" data-name="Path 218" d="M598.686,335.787h35.753a1.581,1.581,0,0,1,1.577,1.576h0a1.582,1.582,0,0,1-1.577,1.577H598.686a1.581,1.581,0,0,1-1.575-1.577h0A1.58,1.58,0,0,1,598.686,335.787Z" fill="#e2e1e7" fill-rule="evenodd"/>
        <path id="Path_219" data-name="Path 219" d="M598.686,372.053h35.753a1.581,1.581,0,0,1,1.577,1.576h0a1.581,1.581,0,0,1-1.577,1.576H598.686a1.58,1.58,0,0,1-1.575-1.576h0A1.58,1.58,0,0,1,598.686,372.053Z" fill="#e2e1e7" fill-rule="evenodd"/>
        <path id="Path_220" data-name="Path 220" d="M547.553,317.143H582.09a1.58,1.58,0,0,1,1.576,1.576h0a1.58,1.58,0,0,1-1.576,1.576H547.553a1.58,1.58,0,0,1-1.576-1.576h0A1.58,1.58,0,0,1,547.553,317.143Z" fill="#acabbb" fill-rule="evenodd"/>
        <rect id="Rectangle_108" data-name="Rectangle 108" width="37.689" height="3.152" rx="1.576" transform="translate(545.977 356.259)" fill="#acabbb"/>
        <path id="Path_221" data-name="Path 221" d="M547.553,381.288H582.09a1.58,1.58,0,0,1,1.576,1.576h0a1.58,1.58,0,0,1-1.576,1.576H547.553a1.58,1.58,0,0,1-1.576-1.576h0A1.58,1.58,0,0,1,547.553,381.288Z" fill="#acabbb" fill-rule="evenodd"/>
      </g>
      <g id="Group_110" data-name="Group 110">
        <rect id="Rectangle_109" data-name="Rectangle 109" width="35.229" height="56.778" rx="2.634" transform="translate(516.321 348.924)" fill="#e2e1e7"/>
        <path id="Rectangle_110" data-name="Rectangle 110" d="M2.216,0H26.453a2.215,2.215,0,0,1,2.215,2.215V54.563a2.216,2.216,0,0,1-2.216,2.216H2.216A2.216,2.216,0,0,1,0,54.563V2.216A2.216,2.216,0,0,1,2.216,0Z" transform="translate(547.361 348.924)" fill="#fff"/>
        <path id="Path_222" data-name="Path 222" d="M510.326,370.486h31.039c0-5.561,6-6.176,6-6.176h-31.04S510.326,364.925,510.326,370.486Z" fill="#fff" fill-rule="evenodd"/>
        <path id="Path_298" data-name="Path 298" d="M1.733,0H33.856a1.734,1.734,0,0,1,1.734,1.734V13a1.734,1.734,0,0,1-1.734,1.734H1.734A1.734,1.734,0,0,1,0,13V1.733A1.733,1.733,0,0,1,1.733,0Z" transform="translate(514.588 396.565)" fill="#f1a338"/>
        <path id="Path_223" data-name="Path 223" d="M547.434,396.565h7.054a3.325,3.325,0,0,1,2.842,2.167c1.011,2.2.9,4.407,3.9,4.407h1.291c3,0,2.914-2.255,3.9-4.407a3.235,3.235,0,0,1,2.841-2.167h6.694a1.738,1.738,0,0,1,1.733,1.734v11.268a1.739,1.739,0,0,1-1.733,1.735H547.434a1.74,1.74,0,0,1-1.735-1.735V398.3A1.74,1.74,0,0,1,547.434,396.565Z" fill="#e5ab5b" fill-rule="evenodd"/>
        <path id="Path_224" data-name="Path 224" d="M510.326,389.94h31.039c0-5.563,6-6.176,6-6.176h-31.04S510.326,384.377,510.326,389.94Z" fill="#fff" fill-rule="evenodd"/>
        <path id="Path_225" data-name="Path 225" d="M581.076,380.666H552.848c0-5.563-5.487-6.176-5.487-6.176H575.59S581.076,375.1,581.076,380.666Z" fill="#acabbb" fill-rule="evenodd"/>
        <path id="Path_226" data-name="Path 226" d="M551.853,355.092h21.636a.956.956,0,0,1,.954.954h0a.956.956,0,0,1-.954.954H551.853a.958.958,0,0,1-.954-.954h0A.958.958,0,0,1,551.853,355.092Z" fill="#e2e1e7" fill-rule="evenodd"/>
        <path id="Path_227" data-name="Path 227" d="M551.853,365.6h21.636a.955.955,0,0,1,.954.953h0a.956.956,0,0,1-.954.954H551.853a.957.957,0,0,1-.954-.954h0A.956.956,0,0,1,551.853,365.6Z" fill="#e2e1e7" fill-rule="evenodd"/>
        <path id="Path_228" data-name="Path 228" d="M551.853,387.549h21.636a.956.956,0,0,1,.954.954h0a.956.956,0,0,1-.954.954H551.853a.958.958,0,0,1-.954-.954h0A.957.957,0,0,1,551.853,387.549Z" fill="#e2e1e7" fill-rule="evenodd"/>
        <path id="Rectangle_112" data-name="Rectangle 112" d="M.954,0h20.9a.953.953,0,0,1,.953.953v0a.953.953,0,0,1-.953.953H.954A.954.954,0,0,1,0,.954v0A.954.954,0,0,1,.954,0Z" transform="translate(519.955 354.318)" fill="#acabbb"/>
        <path id="Rectangle_113" data-name="Rectangle 113" d="M.953,0h20.9a.953.953,0,0,1,.953.953v0a.953.953,0,0,1-.953.953H.954A.954.954,0,0,1,0,.954v0A.953.953,0,0,1,.953,0Z" transform="translate(519.955 377.991)" fill="#acabbb"/>
        <path id="Path_229" data-name="Path 229" d="M520.909,393.138h20.9a.956.956,0,0,1,.953.954h0a.957.957,0,0,1-.953.954h-20.9a.957.957,0,0,1-.954-.954h0A.956.956,0,0,1,520.909,393.138Z" fill="#acabbb" fill-rule="evenodd"/>
      </g>
    </g>
    <g id="Group_113" data-name="Group 113">
      <path id="Path_230" data-name="Path 230" d="M182.989,271.772l40.979.194a.978.978,0,0,1,.978.977l-.01,4.287a.978.978,0,0,1-.978.979l-40.978-.194a.978.978,0,0,1-.978-.978l.009-4.287a.978.978,0,0,1,.978-.978Zm40,2.147-39.023-.189-.006,2.331,39.023.189Z" fill="#0e1632" fill-rule="evenodd"/>
      <g id="Group_112" data-name="Group 112">
        <path id="Path_231" data-name="Path 231" d="M129.15,333,183.291,271.3a.978.978,0,0,1,1.38-.094l3.223,2.828a.979.979,0,0,1,.093,1.38l-54.14,61.694a.978.978,0,0,1-1.38.093l-3.223-2.828a.979.979,0,0,1-.094-1.38Zm54.968-59.67-52.85,60.224,1.752,1.538,52.85-60.224Z" fill="#0e1632" fill-rule="evenodd"/>
        <path id="Path_232" data-name="Path 232" d="M183.538,269.56a5.456,5.456,0,1,1-4.725,6.1A5.456,5.456,0,0,1,183.538,269.56Z" fill="#383d5d" fill-rule="evenodd"/>
        <path id="Path_233" data-name="Path 233" d="M129.116,333.29l38.068,72.72a.978.978,0,0,0,1.319.416l3.8-1.988a.979.979,0,0,0,.416-1.32L134.649,330.4a.977.977,0,0,0-1.318-.416l-3.8,1.989a.977.977,0,0,0-.416,1.318Zm39.348,70.948L131.3,333.252l2.065-1.081,37.161,70.986Z" fill="#0e1632" fill-rule="evenodd"/>
        <path id="Path_234" data-name="Path 234" d="M167.013,407.764a5.457,5.457,0,1,0-3.155-7.043A5.457,5.457,0,0,0,167.013,407.764Z" fill="#383d5d" fill-rule="evenodd"/>
        <path id="Path_235" data-name="Path 235" d="M132.226,328.031a5.456,5.456,0,1,1-4.726,6.1A5.457,5.457,0,0,1,132.226,328.031Z" fill="#383d5d" fill-rule="evenodd"/>
      </g>
      <rect id="Rectangle_114" data-name="Rectangle 114" width="89.837" height="13.784" rx="6.892" transform="translate(113.045 403.142)" fill="#383d5d"/>
      <rect id="Rectangle_115" data-name="Rectangle 115" width="89.838" height="13.784" rx="6.892" transform="translate(140.141 403.142)" fill="#0e1632"/>
      <path id="Path_236" data-name="Path 236" d="M215.15,285.761H235.2a10.6,10.6,0,0,0,10.574-10.573H204.577A10.6,10.6,0,0,0,215.15,285.761Z" fill="#fff" fill-rule="evenodd"/>
      <path id="Path_237" data-name="Path 237" d="M215.529,283.651h12.044a6.372,6.372,0,0,0,6.353-6.353h-24.75A6.372,6.372,0,0,0,215.529,283.651Z" fill="#dff0f2" fill-rule="evenodd"/>
      <path id="Path_238" data-name="Path 238" d="M208.409,270.336h33.527a8.111,8.111,0,0,1,8.088,8.087h-49.7A8.11,8.11,0,0,1,208.409,270.336Z" fill="#383d5d" fill-rule="evenodd"/>
      <path id="Path_239" data-name="Path 239" d="M208.409,270.336H223.74a8.111,8.111,0,0,1,8.087,8.087h-31.5A8.11,8.11,0,0,1,208.409,270.336Z" fill="#01020e" fill-rule="evenodd"/>
    </g>
    <g id="Group_114" data-name="Group 114">
      <path id="Path_240" data-name="Path 240" d="M613.088,119.909a.74.74,0,0,1-1.205-.858,31.329,31.329,0,1,1-4.918,25.771.74.74,0,1,1,1.437-.353,29.888,29.888,0,1,0,4.686-24.56Z" fill="#0e1632" fill-rule="evenodd"/>
      <path id="Path_241" data-name="Path 241" d="M651.794,123.5c-.83.721-3.078,3.032-4.5,7.929,1.23.82,4.621,3.413,3.03,6.168l-6.616,11.453c-1.609,2.677-5.505,1.057-6.823.407-3.539,3.684-4.413,6.789-4.619,7.858a10.363,10.363,0,0,0,6.072,1.283,6.53,6.53,0,0,0,4.831-2.715l12.848-22.253a6.569,6.569,0,0,0-.082-5.517,10.353,10.353,0,0,0-4.145-4.613Zm-5.855,8.049c1.765-6.533,5.068-9.075,5.41-9.325a.64.64,0,0,1,.723-.05,11.8,11.8,0,0,1,5.04,5.441,7.873,7.873,0,0,1,.018,6.64l-12.855,22.265a7.848,7.848,0,0,1-5.784,3.345,11.779,11.779,0,0,1-7.207-1.633.638.638,0,0,1-.346-.618c0-.012.339-4.324,5.354-9.369a.637.637,0,0,1,.792-.124c.013.007,4.246,2.451,5.545.264l6.6-11.427c1.23-2.129-2.624-4.477-2.964-4.679A.639.639,0,0,1,645.939,131.552Z" fill="#0e1632" fill-rule="evenodd"/>
      <text id="_24" data-name="24" transform="translate(611.726 142.061)" fill="#0e1632" font-size="24.526" font-family="OpenSans-Extrabold, Open Sans" font-weight="800"><tspan x="0" y="0">24</tspan></text>
    </g>
    <g id="Group_116" data-name="Group 116">
      <path id="Path_242" data-name="Path 242" d="M438.764,85.647h42.7a6.674,6.674,0,0,1,6.654,6.654V129.5a.742.742,0,0,1-1.267.525l-11.34-11.339H438.764a6.673,6.673,0,0,1-6.654-6.654V92.3A6.673,6.673,0,0,1,438.764,85.647Z" fill="#bfcce8" fill-rule="evenodd"/>
      <g id="Group_115" data-name="Group 115">
        <path id="Path_243" data-name="Path 243" d="M433.718,81.321h42.7a7.554,7.554,0,0,1,7.533,7.534v37.194a1.621,1.621,0,0,1-1,1.5h0a1.608,1.608,0,0,1-1.765-.35L470.1,116.115H433.718a7.551,7.551,0,0,1-7.533-7.534V88.855a7.552,7.552,0,0,1,7.533-7.534Zm42.7,1.759h-42.7a5.8,5.8,0,0,0-5.775,5.775v19.726a5.8,5.8,0,0,0,5.775,5.775h37.113l11.363,11.365V88.855a5.792,5.792,0,0,0-5.774-5.775Z" fill="#fff" fill-rule="evenodd"/>
        <path id="Path_244" data-name="Path 244" d="M433.363,88.676a.481.481,0,1,1,0-.962h43.411a.481.481,0,1,1,0,.962Z" fill="#fff" fill-rule="evenodd"/>
        <path id="Path_245" data-name="Path 245" d="M433.363,93.368a.481.481,0,1,1,0-.962h4.6a.481.481,0,0,1,0,.962Zm10.721,0a.481.481,0,1,1,0-.962h32.69a.481.481,0,1,1,0,.962Z" fill="#fff" fill-rule="evenodd"/>
        <path id="Path_246" data-name="Path 246" d="M433.363,98.059a.481.481,0,1,1,0-.962h43.411a.481.481,0,1,1,0,.962Z" fill="#fff" fill-rule="evenodd"/>
        <path id="Path_247" data-name="Path 247" d="M445.436,104.419a.481.481,0,1,1,0-.962h31.338a.481.481,0,1,1,0,.962Z" fill="#fff" fill-rule="evenodd"/>
        <path id="Path_248" data-name="Path 248" d="M459.43,109.508a.481.481,0,0,1,0-.962h17.344a.481.481,0,1,1,0,.962Z" fill="#fff" fill-rule="evenodd"/>
        <path id="Path_249" data-name="Path 249" d="M449.491,109.508a.481.481,0,0,1,0-.962h6.2a.481.481,0,1,1,0,.962Z" fill="#fff" fill-rule="evenodd"/>
      </g>
    </g>
    <path id="Path_250" data-name="Path 250" d="M685.259,416.277a1.1,1.1,0,0,0-2.193,0v2.577H680.49a1.1,1.1,0,1,0,0,2.192h2.576v2.578a1.1,1.1,0,0,0,2.193,0v-2.578h2.577a1.1,1.1,0,1,0,0-2.192h-2.577Z" fill="#bfcce8" fill-rule="evenodd"/>
    <g id="Group_119" data-name="Group 119">
      <g id="Group_117" data-name="Group 117">
        <path id="Path_251" data-name="Path 251" d="M257.379,398.934H220.248a5.55,5.55,0,0,0,0,11.1h37.131a5.55,5.55,0,0,0,0-11.1Z" fill="#0076bd" fill-rule="evenodd"/>
        <path id="Path_252" data-name="Path 252" d="M174.323,399.581h47.484a4.917,4.917,0,0,1,4.9,4.9h0a4.919,4.919,0,0,1-4.9,4.9H174.323Z" fill="#fff" fill-rule="evenodd"/>
        <path id="Path_253" data-name="Path 253" d="M174.323,398.934a.646.646,0,1,0,0,1.293h47.484a4.257,4.257,0,0,1,0,8.513H174.323a.646.646,0,1,0,0,1.293h47.484a5.55,5.55,0,0,0,0-11.1Z" fill="#004a82" fill-rule="evenodd"/>
        <path id="Path_254" data-name="Path 254" d="M255.669,404.483a5.565,5.565,0,0,0-5.55-5.549h4.827a5.55,5.55,0,0,1,0,11.1h-4.827a5.565,5.565,0,0,0,5.55-5.55Z" fill="#004a82" fill-rule="evenodd"/>
        <path id="Path_255" data-name="Path 255" d="M248.675,404.483a5.565,5.565,0,0,0-5.551-5.549h4.828a5.55,5.55,0,0,1,0,11.1h-4.828a5.565,5.565,0,0,0,5.551-5.55Z" fill="#004a82" fill-rule="evenodd"/>
      </g>
      <g id="Group_118" data-name="Group 118">
        <path id="Path_256" data-name="Path 256" d="M184.085,389.214H216.6a4.86,4.86,0,0,1,0,9.72H184.085a4.86,4.86,0,0,1,0-9.72Z" fill="#e74d91" fill-rule="evenodd"/>
        <path id="Path_257" data-name="Path 257" d="M256.814,389.78h-41.58a4.306,4.306,0,0,0-4.293,4.294h0a4.306,4.306,0,0,0,4.293,4.294h41.58Z" fill="#fff" fill-rule="evenodd"/>
        <path id="Path_258" data-name="Path 258" d="M256.814,389.214a.566.566,0,0,1,0,1.133h-41.58a3.728,3.728,0,0,0,0,7.455h41.58a.566.566,0,1,1,0,1.132h-41.58a4.86,4.86,0,0,1,0-9.72Z" fill="#b92f6d" fill-rule="evenodd"/>
        <path id="Path_259" data-name="Path 259" d="M185.583,394.074a4.874,4.874,0,0,1,4.86-4.86h-4.228a4.86,4.86,0,0,0,0,9.72h4.228a4.872,4.872,0,0,1-4.86-4.86Z" fill="#b92f6d" fill-rule="evenodd"/>
        <path id="Path_260" data-name="Path 260" d="M191.707,394.074a4.874,4.874,0,0,1,4.86-4.86H192.34a4.86,4.86,0,0,0,0,9.72h4.227a4.872,4.872,0,0,1-4.86-4.86Z" fill="#b92f6d" fill-rule="evenodd"/>
      </g>
    </g>
    <g id="Group_120" data-name="Group 120">
      <path id="Rectangle_116" data-name="Rectangle 116" d="M5.072,0h159.69a5.072,5.072,0,0,1,5.072,5.072v0a5.07,5.07,0,0,1-5.07,5.07H5.07A5.07,5.07,0,0,1,0,5.073v0A5.072,5.072,0,0,1,5.072,0Z" transform="translate(312.608 401.158)" fill="#a8a6b5"/>
      <path id="Path_261" data-name="Path 261" d="M477.676,411.3H317.984a5.448,5.448,0,0,1-4.444-2.392,4.737,4.737,0,0,1,4.157-2.39H477.389a5.451,5.451,0,0,1,4.443,2.39A4.734,4.734,0,0,1,477.676,411.3Z" fill="#96929f" fill-rule="evenodd"/>
      <path id="Path_262" data-name="Path 262" d="M481.011,401.158H353.284a6.172,6.172,0,0,1-6.216-6.636L352.3,311.79a7.19,7.19,0,0,1,7.055-6.635H487.078a6.171,6.171,0,0,1,6.216,6.635l-5.229,82.732A7.189,7.189,0,0,1,481.011,401.158Z" fill="#96929f" fill-rule="evenodd"/>
      <path id="Path_263" data-name="Path 263" d="M481.012,401.158H357.052a6.172,6.172,0,0,1-6.216-6.636l5.229-82.732a7.189,7.189,0,0,1,7.054-6.635h123.96a6.172,6.172,0,0,1,6.215,6.635l-5.229,82.732A7.188,7.188,0,0,1,481.012,401.158Z" fill="#fff" fill-rule="evenodd"/>
      <path id="Path_264" data-name="Path 264" d="M474.257,401.158H461.5L355.758,316.642l.307-4.852a6.985,6.985,0,0,1,1.514-3.888l116.678,93.256Zm-102.356-96,115.35,92.2a6.888,6.888,0,0,0,.814-2.828l.814-12.865-95.718-76.5Z" fill="#f0eef0" fill-rule="evenodd"/>
      <path id="Rectangle_117" data-name="Rectangle 117" d="M5.072,0h29.02a5.072,5.072,0,0,1,5.072,5.072v0a5.07,5.07,0,0,1-5.07,5.07H5.07A5.07,5.07,0,0,1,0,5.073v0A5.072,5.072,0,0,1,5.072,0Z" transform="translate(312.608 401.158)" fill="#fff"/>
      <path id="Path_265" data-name="Path 265" d="M479.756,403.693H346.872a2.735,2.735,0,0,1-2.687-2.535h0a2.368,2.368,0,0,1,2.383-2.536H479.452a2.736,2.736,0,0,1,2.688,2.536h0A2.368,2.368,0,0,1,479.756,403.693Z" fill="#d2ced6" fill-rule="evenodd"/>
    </g>
    <g id="Group_121" data-name="Group 121">
      <path id="Path_266" data-name="Path 266" d="M328.527,298.647c-.98-4.875-.735-7.605.2-12.231l-20.94-1.768,29.145-12.773s6.186-7.59,9.1-15.044-4.991-26.411-7.963-31.115-9.145-4-13.211-1.454c0,0-6.105-9.2-13.393-9.815s-30.453,1.52-37.182,18.52,4.1,33.992-6.74,51.48a4.356,4.356,0,0,0,.452,4.075c1.407,1.865,18.494,21.778,57.436,13.754,0,0,3.1-.72,3.092-3.63Z" fill="#0e1632" fill-rule="evenodd"/>
      <path id="Path_267" data-name="Path 267" d="M301.083,303.858c2.145-23.417,3.657-43.77,3.657-43.77l-1.987-6.6s-17.932,14.493-30.664-.755c.605,10.461,2.1,20.994-4.542,31.713a4.356,4.356,0,0,0,.452,4.075l.057.076.021.025.049.062.052.064.031.04.092.11.006.006.11.131.032.037.092.106.078.09.06.066.134.15.018.018.164.179.037.04.143.151.1.105.093.1.067.069.14.142.22.222.153.148.115.115c3.726,3.6,12.4,10.27,27.028,12.584l.043.006q1.9.3,3.939.5Z" fill="#010518" fill-rule="evenodd"/>
      <path id="Path_268" data-name="Path 268" d="M328.527,298.647c-1.331-6.625-.4-9.288,1.456-18.137l-33.323-5.244L282.1,278.088a97.617,97.617,0,0,1-5.079,18.031c8.866,5.488,24.528,11.079,48.416,6.157,0,0,3.1-.72,3.092-3.63Z" fill="#010518" fill-rule="evenodd"/>
      <path id="Path_269" data-name="Path 269" d="M284.316,300.086c9.221,2.892,21.827,6.35,32.7,11.694.751.37-.78,3.263-.083,3.65a25.482,25.482,0,0,1,4.769,3.877c5.077,5.02,15.407,44.309,14.485,48.223-1.484,6.3-14.535,23.6-14.535,23.6-2.592,5.006-5.805,12.3-8.961,20.176H247.865c4.515-14.677,6.195-24.619,6.315-33.58h0c3.461-30.463-12.918-37.09-12.918-37.09l16.964-39.919c6.6-2.337,19.76-1.458,19.76-1.458C281.466,299.252,281.2,299.108,284.316,300.086Z" fill="#e5ab5b" fill-rule="evenodd"/>
      <path id="Path_270" data-name="Path 270" d="M312.688,411.3h-9.149c1.7-4.563,9.636-26.14,11.332-30.745-7.71-1.342-18.324-3.182-20.2-3.627s-9.037,3.649-9.037,3.649l.8-4.657-7.694,7.748L291.9,359.1s21.466,4.848,26.027,5.679,1.779.2,2.627.131c2.536-7.135-1.617-9.131-1.124-12.584s.639-36.943.639-36.943c2.774,1.437,4.027,4.561,5.6,9.49,1.032,3.243,6.513,24.558,8.782,37.165.54,3,.967,5.243,1.237,7.033C330.6,382.042,319.177,395.1,312.688,411.3Z" fill="#f1a338" fill-rule="evenodd"/>
      <path id="Path_271" data-name="Path 271" d="M300.324,263.287l-3.245,9.75s-4.909,23.008-6.044,25.992c-.395,1.036-1.693,1.352-3.689,1.3,2.872,4.113,8.45,10.388,16.513,11.916,5.149.976,8.749.015,11.194-1.427-1.722-.909-3.368-1.989-3.361-2.876.07-7.852,1.419-21.672,5.675-24.227C322.24,280.792,300.324,263.287,300.324,263.287Z" fill="#e8685b" fill-rule="evenodd"/>
      <path id="Path_272" data-name="Path 272" d="M288.962,300.267a20.5,20.5,0,0,1-4.646-.181,35.092,35.092,0,0,0,10.321,9.325c12.714,8.056,18.836,3.666,20.772,1.6a14.189,14.189,0,0,1-3.1-1.989h0c-11.865,5.8-23.347-8.751-23.347-8.751Z" fill="#fff" fill-rule="evenodd"/>
      <path id="Path_273" data-name="Path 273" d="M316.5,311.531s5.07,51.026,4.454,55.335-8.676,25.543-15.742,44.436h12.149c2.4-4.624,4.234-8.235,4.567-9.105.217-.562,1.056-2.194,2.211-4.332,2.076-3.844,5.177-9.324,7.514-13.161,7.449-12.228,7.429-9.373,4.851-23.7-2.269-12.607-9.232-35.934-10.265-39.177C324.667,316.9,317.812,311.172,316.5,311.531Z" fill="#1c2344" fill-rule="evenodd"/>
      <path id="Path_274" data-name="Path 274" d="M315.784,382.55c-1.671,4.668-3.613,9.984-5.627,15.441a40.581,40.581,0,0,1,7.689,1.1c3.694,1.451,4.08,3.106,4.08,3.106.216-.562,1.055-2.194,2.21-4.332,2.077-3.844,5.177-9.324,7.514-13.161,2.241-3.679,3.8-5.991,4.827-7.817-1.434,1.258-3.719,3.157-4.832,3.494C330.3,380.789,319.946,382.052,315.784,382.55Z" fill="#0e1632" fill-rule="evenodd"/>
      <path id="Path_275" data-name="Path 275" d="M282.407,299s9.3,45.068,10.578,58.169-2.822,22.477-7.431,32.32c-1.554,3.318-6.536,11.785-12.672,21.813H244.238l3.064-70.8-8.214-1.9c.488-3.556.887-6.5,1.16-8.565l16.173-28.594S262.517,296.5,282.407,299Z" fill="#1c2344" fill-rule="evenodd"/>
      <path id="Path_276" data-name="Path 276" d="M264.993,320.692c-4.57,18.353-1.4,25.964-1.4,25.964l2.448-11.42s2.315,16.857,4.891,19.006c1.279,1.068,16.505,3.987,22.211,5.051a47.868,47.868,0,0,1-2.8,18.882c-4.1.421-28.733-3.05-29.91,4.91-.587,3.97-.455-8.8-.455-8.8l-1.458,37.02H244.238l3.064-70.8-8.214-1.9.022-.167.023-.164.023-.165.022-.164h0l.023-.162.022-.162.022-.16.022-.16.022-.159.021-.158.021-.157h0l.021-.156.022-.155.02-.154h0l.022-.152.02-.152h0l.021-.151h0l.02-.15h0l.021-.15h0l.02-.147h0l.02-.147h0l.019-.147h0l.02-.144h0l.02-.144h0l.019-.143h0l.019-.141h0l.019-.141h0l.019-.139h0l.019-.139h0l.019-.137h0l.018-.136h0l.018-.135h0l.019-.134h0l.018-.133h0l.018-.132h0l.017-.131h0l.018-.128h0l.017-.128h0l.018-.127h0l.017-.127h0l.016-.125h0l.017-.124h0l.017-.123h0l.016-.121h0l.017-.12h0l.016-.12h0l.016-.118h0l.015-.117h0l.016-.115h0l.015-.115h0l.015-.114h0l.015-.111h0l.016-.111h0l.014-.11h0l.014-.108h0l.015-.106h0l.014-.107h0l.014-.1h0l.014-.1h0l.013-.1h0l.014-.1h0l.013-.1h0l.013-.1h0l.013-.1,8.758-15.483Z" fill="#0e1632" fill-rule="evenodd"/>
      <path id="Path_277" data-name="Path 277" d="M242.342,321.443c-5.244,14.33-6.671,63.475-2.35,89.859H263c-9.411-52.372,10.355-89.833,6.012-103.105C262.062,286.951,245.79,312.025,242.342,321.443Z" fill="#383d5d" fill-rule="evenodd"/>
      <path id="Path_278" data-name="Path 278" d="M334.371,273l2.564-1.124a73.956,73.956,0,0,0,7.462-11.434c-.61,1.162-4.651,8.228-10.567,3.91-6.432-4.7-6.691,2.741-6.691,2.741s3.891,4.42,6.151,5.453c.292.134.66.288,1.081.454Zm10.1-12.711,0-.005h0Z" fill="#010518" fill-rule="evenodd"/>
      <path id="Path_279" data-name="Path 279" d="M331.643,268.728a7.335,7.335,0,1,0,6.54,8.052A7.338,7.338,0,0,0,331.643,268.728Z" fill="#e8685b" fill-rule="evenodd"/>
      <path id="Path_280" data-name="Path 280" d="M280.555,263.522c-.183.008-.364.024-.544.045h0a7.337,7.337,0,1,0,5.977,1.985c0,2.173-.565,4.814-3.341,4.849l.435-4.207A2.52,2.52,0,0,0,280.555,263.522Z" fill="#e8685b" fill-rule="evenodd"/>
      <path id="Path_281" data-name="Path 281" d="M312.143,229.419h0a25.2,25.2,0,0,0-27.578,22.4l-2.352,22.711a25.2,25.2,0,0,0,22.4,27.577h0a25.2,25.2,0,0,0,27.577-22.4L334.544,257A25.2,25.2,0,0,0,312.143,229.419Z" fill="#f4ad85" fill-rule="evenodd"/>
      <path id="Path_282" data-name="Path 282" d="M284.153,255.8l-1.94,18.728a25.222,25.222,0,0,0,16.014,26.048c-14.622-6.057-7.126-31.473-7.126-31.473,2.961-.5,7.631-6.023,10.346-9.235s4.816-6.452,9.5-6.357,14.585,2.554,14.585,2.554a27.547,27.547,0,0,0,8.051,10.2l.96-9.27a24.927,24.927,0,0,0-.476-8.065c-.606-.356-1.228-.716-1.885-1.086C312.061,236.533,294.983,245.685,284.153,255.8Z" fill="#ed9072" fill-rule="evenodd"/>
      <path id="Path_283" data-name="Path 283" d="M330.8,249.889l-4.064,1.726a11.986,11.986,0,0,0-8.192-1.318s-8.921-3.279-13.648-1.452-1.946-4.737-1.08-5.025,9.82-.855,13.727-.1,9.787,1.668,9.787,1.668Z" fill="#010518" fill-rule="evenodd"/>
      <path id="Path_284" data-name="Path 284" d="M283.288,262.307l2.408.423s1.672,7.613-3.054,7.672l.435-4.207a2.383,2.383,0,0,0-.049-.806Z" fill="#010518" fill-rule="evenodd"/>
      <path id="Path_285" data-name="Path 285" d="M318.547,250.3c-3.672-4.955-9.673-5.968-14.339.991-4.261,6.358-10.592,17.36-21.245,16.462l-.053-.2.025,0,.6-7.1s-.9.234-1.986.49a45.818,45.818,0,0,1-.368-12.722c1.234-8.921,13.645-21.952,27.646-22.454s24.128,7.812,26.134,12.554,3.986,15.5,3.986,15.5l-2.463,3.523-2.654,7c-6.44-6.265-5.779-12.19-8.578-15.175C323.737,247.56,321.47,247.555,318.547,250.3Z" fill="#0e1632" fill-rule="evenodd"/>
      <path id="Path_286" data-name="Path 286" d="M302.752,253.491c-4.225,6.393-10.287,15.06-19.789,14.259l-.053-.2.025,0,.6-7.1s-.9.234-1.986.49c-.094-.613-.183-1.255-.264-1.918C292.015,262.146,302.717,253.519,302.752,253.491Z" fill="#010518" fill-rule="evenodd"/>
      <path id="Path_287" data-name="Path 287" d="M313.794,310.11s6.537,53.631,6.408,55.372-1.866,10.128-1.866,10.128,3.156-5.291,3.93-9.676S325.1,331.88,325.1,331.88l-3.482-1.87,3.225-.194-5.323-16.661a4.706,4.706,0,0,0-1.449-1.72c-.838-.485-3.893-2.017-3.942-2.04a2,2,0,0,0-1.2.144S313.571,309.971,313.794,310.11Z" fill="#484e6a" fill-rule="evenodd"/>
      <path id="Path_288" data-name="Path 288" d="M282.407,299s9.3,45.068,10.578,58.169a46.488,46.488,0,0,1-.806,14.522c1.714-13.4-17.145-44.933-17.145-44.933l4.9-2.323-6.578-2.966s3.032-16.962,3.225-19.8c.188-2.759-1.274-3.272-1.356-3.3C277.391,298.47,279.777,298.67,282.407,299Z" fill="#484e6a" fill-rule="evenodd"/>
      <path id="Path_289" data-name="Path 289" d="M96.283,431.206h8.144a5.919,5.919,0,0,0,5.9-5.9h0a5.921,5.921,0,0,0-5.9-5.9H82.911a4.7,4.7,0,0,1-4.685-4.683h0a4.7,4.7,0,0,1,4.685-4.686H651.327a4.7,4.7,0,0,1,4.685,4.686h0a4.7,4.7,0,0,1-4.685,4.683H621.82a5.92,5.92,0,0,0-5.9,5.9h0a5.918,5.918,0,0,0,5.9,5.9h6.915a9.4,9.4,0,0,1,9.368,9.369h0a9.4,9.4,0,0,1-9.368,9.369H96.283a9.4,9.4,0,0,1-9.369-9.369h0a9.4,9.4,0,0,1,9.369-9.369ZM70.252,410.033a4.685,4.685,0,1,1-4.685,4.686A4.687,4.687,0,0,1,70.252,410.033Z" fill="#0a2751" fill-rule="evenodd"/>
    </g>
    <g id="Group_122" data-name="Group 122">
      <path id="Path_290" data-name="Path 290" d="M387.228,164.479h-42.7a7.552,7.552,0,0,0-7.534,7.534v37.195a1.621,1.621,0,0,0,1,1.5h0a1.609,1.609,0,0,0,1.766-.35l11.081-11.082h36.383a7.556,7.556,0,0,0,7.535-7.534V172.013a7.554,7.554,0,0,0-7.535-7.534Zm-42.7,1.758h42.7A5.8,5.8,0,0,1,393,172.013v19.726a5.794,5.794,0,0,1-5.776,5.775H350.116l-11.363,11.364V172.013a5.8,5.8,0,0,1,5.775-5.776Z" fill="#1a293d" fill-rule="evenodd"/>
      <path id="Path_291" data-name="Path 291" d="M387.584,171.834a.48.48,0,0,0,0-.961H344.172a.48.48,0,1,0,0,.961Z" fill="#1a293d" fill-rule="evenodd"/>
      <path id="Path_292" data-name="Path 292" d="M387.584,176.525a.48.48,0,0,0,0-.961h-4.6a.48.48,0,0,0,0,.961Zm-10.721,0a.48.48,0,1,0,0-.961H344.172a.48.48,0,1,0,0,.961Z" fill="#1a293d" fill-rule="evenodd"/>
      <path id="Path_293" data-name="Path 293" d="M387.584,181.217a.481.481,0,0,0,0-.962H344.172a.481.481,0,0,0,0,.962Z" fill="#1a293d" fill-rule="evenodd"/>
      <path id="Path_294" data-name="Path 294" d="M375.512,187.577a.481.481,0,0,0,0-.962h-31.34a.481.481,0,0,0,0,.962Z" fill="#1a293d" fill-rule="evenodd"/>
      <path id="Path_295" data-name="Path 295" d="M361.518,192.666a.481.481,0,0,0,0-.962H344.172a.481.481,0,0,0,0,.962Z" fill="#1a293d" fill-rule="evenodd"/>
      <path id="Path_296" data-name="Path 296" d="M371.457,192.666a.481.481,0,0,0,0-.962h-6.2a.481.481,0,1,0,0,.962Z" fill="#1a293d" fill-rule="evenodd"/>
    </g>
  </g>
</svg>
