<svg xmlns="http://www.w3.org/2000/svg" width="268.907" height="341.975" viewBox="0 0 268.907 341.975"><g transform="translate(-365 -1315.525)"><g transform="translate(585.047 1315.525)"><g transform="translate(0)"><g transform="translate(18.207 13.861)"><path d="M419.01,86.706h-3.323a2.824,2.824,0,0,1-2.9,2.841,2.69,2.69,0,0,1-2.6-1.716,2.979,2.979,0,0,1,.237-2.691c.563-.93,1.8-1.774,4.038-1.38V76.267h-3.285v4.389a6.416,6.416,0,0,0-4.608,6.27c0,4.859,4.357,5.987,6.222,5.987C414.214,92.913,419.072,92.568,419.01,86.706Z" transform="translate(-406.565 -71.61)" fill="#b17c32"/><rect width="3.335" height="3.114" transform="translate(7.903 3.114) rotate(180)" fill="#b17c32"/></g><path d="M433.6,78.592a2.38,2.38,0,0,0,.007-.42c-.008-.305-.02-.715-.035-1.236-.013-.271-.013-.577-.04-.911q-.071-.5-.154-1.09l-.183-1.272q-.165-.669-.352-1.421a23.015,23.015,0,0,0-3-6.889,24.306,24.306,0,0,0-18.271-11.165,25.091,25.091,0,0,0-3.331-.068c-.563.039-1.136.028-1.7.11l-1.715.259a24.436,24.436,0,0,0-6.779,2.315,26.09,26.09,0,0,0-6.092,4.427,25.581,25.581,0,0,0-4.583,6.379,23.174,23.174,0,0,0-2.386,7.775,15.44,15.44,0,0,0-.176,2.073,18.645,18.645,0,0,0-.038,2.1,24.839,24.839,0,0,0,.531,4.2,24.542,24.542,0,0,0,3.517,8.359l-.026-.254-3.417,8.515-.2.5.524-.144,9.1-2.5-.225-.043a24.436,24.436,0,0,0,10.4,4.543,22.133,22.133,0,0,0,5.33.331,17.116,17.116,0,0,0,2.559-.242l1.245-.193c.41-.077.806-.2,1.206-.3a24.354,24.354,0,0,0,13.849-9.5,23.278,23.278,0,0,0,2.982-5.654L432.6,85.9q.16-.629.307-1.209t.274-1.106c.068-.355.105-.7.154-1.018.082-.644.193-1.209.217-1.7s.03-.9.042-1.251c.008-.317.013-.569.018-.765a1.168,1.168,0,0,0-.009-.259,1.209,1.209,0,0,0-.036.259c-.015.194-.035.445-.06.76q-.034.517-.083,1.244c-.038.492-.163,1.052-.257,1.689a24.214,24.214,0,0,1-17.961,19.361c-.392.093-.782.215-1.185.287l-1.224.184a16.834,16.834,0,0,1-2.513.225,21.7,21.7,0,0,1-5.224-.346,23.989,23.989,0,0,1-10.176-4.481l-.1-.077-.123.033-9.108,2.484.321.361q1.675-4.161,3.427-8.511l.053-.134-.079-.12a24.036,24.036,0,0,1-3.436-8.173,24.4,24.4,0,0,1-.519-4.1,18.229,18.229,0,0,1,.037-2.05,14.894,14.894,0,0,1,.171-2.028,22.679,22.679,0,0,1,2.326-7.6,25.113,25.113,0,0,1,4.472-6.248,25.637,25.637,0,0,1,5.953-4.348,24.008,24.008,0,0,1,6.633-2.29l1.681-.26c.556-.083,1.118-.073,1.67-.114a24,24,0,0,1,21.322,10.928,23.162,23.162,0,0,1,3.056,6.777q.2.741.373,1.4l.207,1.259q.1.582.178,1.079c.037.331.045.634.067.9.038.519.068.926.089,1.23A2.3,2.3,0,0,0,433.6,78.592Z" transform="translate(-384.752 -54.081)" fill="#263238"/></g></g><g transform="translate(384.967 1348.103)"><path d="M145.065,183.488h48.208s0-40.476,42.063-41.2c21.846-.376,33.172,13.934,37.774,24.9,5.345,12.73,3.727,27.239-3.433,39.045-8.176,13.481-25.786,27.027-58.274,21.3l-.308,107.4h47.667v-63.67s66.854-17.282,66.854-90.957c0-70.493-57.005-85.721-87.641-86.7-17.049-.544-23.228-1.277-44.313,1.716C166.793,99.137,144.5,130.335,145.065,183.488Z" transform="translate(-145.054 -93.11)" fill="#282b67"/><rect width="48.377" height="45.182" transform="translate(65.907 264.215)" fill="#282b67"/><rect width="48.377" height="45.182" transform="translate(65.907 264.215)" fill="#9a6e3a"/><path d="M145.065,183.488h48.208s0-40.476,42.063-41.2c21.846-.376,33.172,13.934,37.774,24.9,5.345,12.73,3.727,27.239-3.433,39.045-8.176,13.481-25.786,27.027-58.274,21.3l-.308,107.4h47.667v-63.67s66.854-17.282,66.854-90.957c0-70.493-57.005-85.721-87.641-86.7-17.049-.544-23.228-1.277-44.313,1.716C166.793,99.137,144.5,130.335,145.065,183.488Z" transform="translate(-145.054 -93.11)" fill="#b17c32" opacity="0.83"/></g><path d="M121.142,183.553H169.35s0-40.476,42.064-41.2c21.845-.376,33.172,13.934,37.774,24.9,5.344,12.73,3.726,27.239-3.434,39.045-8.176,13.481-26.094,25.734-58.582,20.011V335H234.84v-63.67s66.854-17.282,66.854-90.957c0-70.493-63.216-86.865-90.275-86.865C190.725,93.506,120.233,98.508,121.142,183.553Z" transform="translate(243.866 1254.928)" fill="#19294e"/><rect width="48.377" height="45.182" transform="translate(430.905 1612.318)" fill="#e8505b"/><path d="M0,0H48.377V45.182H0Z" transform="translate(430.905 1612.318)" fill="#0a264e" opacity="0.93"/><g transform="translate(412.928 1397.013)"><path d="M226.349,152.2a4.477,4.477,0,0,1-.721-.044c-.472-.023-1.158-.156-2.054-.166a42,42,0,0,0-7.559.313,54.162,54.162,0,0,0-10.912,2.567,46.573,46.573,0,0,0-6.08,2.615,32.327,32.327,0,0,0-5.946,3.851,29.491,29.491,0,0,0-4.866,5.141,47.566,47.566,0,0,0-7.965,15.864,41.746,41.746,0,0,0-1.45,7.425c-.1.89-.129,1.584-.154,2.055a4.542,4.542,0,0,1-.065.72,4.43,4.43,0,0,1-.023-.721c0-.473,0-1.172.073-2.068a38.636,38.636,0,0,1,1.322-7.492,47.867,47.867,0,0,1,4.264-10.451,48.751,48.751,0,0,1,3.659-5.589A29.621,29.621,0,0,1,192.8,161a32.4,32.4,0,0,1,6.027-3.893,46.082,46.082,0,0,1,6.144-2.615,52.752,52.752,0,0,1,11.007-2.494,39,39,0,0,1,7.607-.177c.9.037,1.586.2,2.055.249A4.468,4.468,0,0,1,226.349,152.2Z" transform="translate(-178.552 -151.705)" fill="#263238"/></g><g transform="translate(451.973 1348.449)"><path d="M306.714,133.974a1.018,1.018,0,0,1-.157-.189l-.422-.58-1.586-2.252c-.348-.486-.71-1.043-1.149-1.623l-1.505-1.826-1.726-2.1c-.628-.729-1.36-1.438-2.09-2.216-.748-.762-1.492-1.6-2.339-2.4l-2.7-2.437c-.47-.417-.929-.861-1.429-1.274l-1.553-1.223c-1.059-.816-2.112-1.706-3.26-2.528a104.352,104.352,0,0,0-15.8-9.329l-4.4-1.989-4.371-1.7c-1.421-.589-2.874-1.008-4.277-1.472-1.412-.437-2.771-.945-4.148-1.267l-3.992-1.048c-1.294-.343-2.58-.546-3.807-.814-1.235-.23-2.412-.538-3.57-.681l-3.32-.48c-2.108-.361-4.045-.434-5.734-.6-.846-.066-1.633-.157-2.359-.19l-1.988-.053-2.754-.088-.716-.034a1.019,1.019,0,0,1-.245-.027,1.036,1.036,0,0,1,.244-.018l.717-.008,2.758.007,1.994.016c.728.022,1.517.1,2.366.155,1.694.148,3.639.2,5.756.541l3.334.454c1.164.136,2.346.436,3.587.659,1.233.26,2.525.457,3.825.795l4.012,1.035c1.383.318,2.75.822,4.168,1.258,1.411.462,2.87.879,4.3,1.467l4.39,1.7,4.418,2a102.5,102.5,0,0,1,15.845,9.4c1.149.83,2.2,1.729,3.263,2.553l1.553,1.237c.5.417.959.866,1.428,1.287l2.69,2.466c.845.81,1.584,1.659,2.329,2.43.726.789,1.452,1.508,2.075,2.246l1.706,2.129,1.482,1.854c.43.588.784,1.155,1.121,1.65l1.523,2.3.386.6A1.09,1.09,0,0,1,306.714,133.974Z" transform="translate(-225.328 -93.525)" fill="#263238"/></g><g transform="translate(478.903 1492.398)"><path d="M307.024,265.978a3.335,3.335,0,0,1-.365.5l-1.112,1.383c-.482.6-1.083,1.328-1.82,2.139s-1.539,1.765-2.509,2.745c-.951,1-2,2.088-3.179,3.2-1.15,1.145-2.454,2.286-3.811,3.5a104.406,104.406,0,0,1-19.5,13.443c-1.621.836-3.152,1.649-4.63,2.317-1.458.71-2.848,1.3-4.119,1.835-1.261.558-2.437.974-3.459,1.369s-1.911.7-2.645.94l-1.688.548a3.365,3.365,0,0,1-.6.163,3.283,3.283,0,0,1,.569-.245l1.659-.624c.724-.26,1.606-.587,2.615-1.008s2.175-.851,3.425-1.425c1.26-.549,2.639-1.156,4.085-1.877,1.467-.679,2.986-1.5,4.6-2.344,3.185-1.748,6.615-3.8,10.076-6.174,3.444-2.391,6.584-4.865,9.35-7.22,1.359-1.2,2.668-2.331,3.825-3.461,1.189-1.1,2.245-2.168,3.206-3.15.982-.963,1.8-1.9,2.55-2.7s1.371-1.5,1.872-2.085l1.173-1.329A3.308,3.308,0,0,1,307.024,265.978Z" transform="translate(-257.591 -265.978)" fill="#263238"/></g><g transform="translate(477.645 1526.251)"><path d="M256.3,366.424c-.12,0-.218-13.408-.218-29.944s.1-29.946.218-29.946.217,13.406.217,29.946S256.422,366.424,256.3,366.424Z" transform="translate(-256.084 -306.534)" fill="#263238"/></g><g transform="translate(479.484 1612.409)"><path d="M258.5,451.779c-.12,0-.218-9.409-.218-21.012s.1-21.015.218-21.015.217,9.406.217,21.015S258.624,451.779,258.5,451.779Z" transform="translate(-258.287 -409.752)" fill="#263238"/></g><g transform="translate(523.287 1330.465)"><g transform="translate(0)"><g transform="translate(0 53.436)"><path d="M315.371,191.972c-.842,1.68,2.277,3.036,4.077,3.58a16.306,16.306,0,0,0,5.6.386c2.487-.134,5.065-.366,7.229-1.6a11.487,11.487,0,0,0,4.356-4.886,34.236,34.236,0,0,0,2.212-6.25S319.121,184.489,315.371,191.972Z" transform="translate(-311.501 -143.798)" fill="#e8505b"/><g transform="translate(3.729 39.4)" opacity="0.4"><path d="M315.371,191.972c-.842,1.68,2.277,3.036,4.077,3.58a16.306,16.306,0,0,0,5.6.386c2.487-.134,5.065-.366,7.229-1.6a11.487,11.487,0,0,0,4.356-4.886,34.236,34.236,0,0,0,2.212-6.25S319.121,184.489,315.371,191.972Z" transform="translate(-315.23 -183.198)"/></g><g transform="translate(58.296 37.031)"><path d="M381.889,186.158a18.911,18.911,0,0,0,11.132,3.495,7.894,7.894,0,0,0,5.3-1.667c.644-.588,1.124-1.341,1.786-1.906.45-.384.977-.676,1.4-1.089a1.791,1.791,0,0,0,.614-1.584,3.3,3.3,0,0,0-1.153-1.843c-2.265-1.285-4.967-1.239-7.571-1.179a25.961,25.961,0,0,0-7.638,1.5c-2.019.679-4.135,1.639-5.159,3.506" transform="translate(-380.602 -180.36)" fill="#e8505b"/><g transform="translate(0 0.012)" opacity="0.4"><path d="M402.122,183.408a3.5,3.5,0,0,0-1.481-1.677c-2.265-1.285-4.639-1.4-7.244-1.346a25.961,25.961,0,0,0-7.637,1.5c-2.019.679-4.135,1.639-5.159,3.506l1.287.771a18.911,18.911,0,0,0,11.132,3.495,7.894,7.894,0,0,0,5.3-1.667c.644-.588,1.124-1.341,1.786-1.906.45-.384.977-.676,1.4-1.089A1.791,1.791,0,0,0,402.122,183.408Z" transform="translate(-380.602 -180.374)"/></g></g><path d="M331.845,208.789l41.611.545a.535.535,0,0,0,.516-.7l-4.881-15.226s.719-7.608,1.713-16.764c1.509-13.893,3.516-31.363,3.542-31.315C371.5,137.356,354.711,136,354.711,136l-19.141,1.138-.674-1.123-5.508,2.561a25.462,25.462,0,0,0-3.456,1.948c-3.634,2.436-12.406,8.013-14,14.239-3.7,14.392,2.564,30.461,2.564,30.461l4.018-3.141a28.2,28.2,0,0,1,3.189-2.131l8.064,21.607a3.81,3.81,0,0,0-1.75,2.774,4.293,4.293,0,0,0,3.83,4.461" transform="translate(-310.763 -135.996)" fill="#b17c32"/><g transform="translate(33.492 25.748)" opacity="0.3"><path d="M356.315,188.41c1.32-7.093.622-14.387-.08-21.568-2.31,5.875-2.226,12.5-4.671,18.315a7.828,7.828,0,0,0-.651,1.928,2.153,2.153,0,0,0,.556,1.882c.664.608,1.655.28,2.549.173a9.742,9.742,0,0,0,2.3-.73" transform="translate(-350.887 -166.842)"/></g><g transform="translate(23.033 58.458)" opacity="0.4"><path d="M338.917,211.31c3.36,1.164,6.892-1,10.427-1.38a26.293,26.293,0,0,1,6.992.659,52.277,52.277,0,0,0,14.191.348,5.43,5.43,0,0,0,2.088-.539,2.518,2.518,0,0,0,1.092-2.072c-7.858-.806-15.718-1.287-23.576-2.093a14.819,14.819,0,0,0-5.894.187c-2.376.736-4.206,2.6-5.881,4.441" transform="translate(-338.357 -206.03)"/></g><path d="M400.062,175.009c-3.4-7.648-15.38-28.819-15.38-28.819L375.4,157.821l2.165,22.83s4.9-5.468,18.595-5.578a6.714,6.714,0,0,1,5.1,2.684Z" transform="translate(-321.447 -137.681)" fill="#b17c32"/><g transform="translate(20.202 23.188)"><path d="M337.689,173.874a31.576,31.576,0,0,1-1.563-4.992,31.6,31.6,0,0,1-1.144-5.106,31.6,31.6,0,0,1,1.563,4.993A31.773,31.773,0,0,1,337.689,173.874Z" transform="translate(-334.965 -163.776)" fill="#263238"/></g><g transform="translate(53.255 18.59)"><path d="M374.565,158.269a5.622,5.622,0,0,1,.858.73,23.493,23.493,0,0,1,2.067,2.271,21.907,21.907,0,0,1,4.429,9.064,16.945,16.945,0,0,1,.266,5.592c-.215,1.708-.543,3.209-.752,4.481s-.351,2.3-.417,3.018a7.45,7.45,0,0,1-.116,1.116,4.466,4.466,0,0,1-.053-1.125,26.433,26.433,0,0,1,.283-3.057c.171-1.282.467-2.8.657-4.481a17.178,17.178,0,0,0-.293-5.454,22.946,22.946,0,0,0-4.247-8.966C375.7,159.4,374.5,158.332,374.565,158.269Z" transform="translate(-374.563 -158.268)" fill="#263238"/></g><g transform="translate(22.956 64.201)"><path d="M360.07,219.682a3.885,3.885,0,0,1-.906.264,8.7,8.7,0,0,1-1.087.21,14.622,14.622,0,0,1-1.457.178,21.57,21.57,0,0,1-3.821-.022,22.7,22.7,0,0,1-8.9-2.763,21.508,21.508,0,0,1-3.162-2.147,14.54,14.54,0,0,1-1.1-.971,8.7,8.7,0,0,1-.775-.789,3.9,3.9,0,0,1-.6-.73c.063-.06.958.942,2.664,2.249a24.008,24.008,0,0,0,3.164,2.037,23.993,23.993,0,0,0,8.748,2.716,24,24,0,0,0,3.76.113C358.746,219.916,360.053,219.6,360.07,219.682Z" transform="translate(-338.264 -212.91)" fill="#263238"/></g><g transform="translate(54.972 66.213)"><path d="M379.26,215.32a2.948,2.948,0,0,1,.321,1.219,7.52,7.52,0,0,1-.225,3.042,5.3,5.3,0,0,1-1.635,2.585,2.3,2.3,0,0,1-1.1.627c-.037-.063.369-.317.891-.851a5.915,5.915,0,0,0,1.428-2.485A16.225,16.225,0,0,0,379.26,215.32Z" transform="translate(-376.619 -215.32)" fill="#263238"/></g><g transform="translate(53.555 69.153)"><path d="M376.717,218.843a4.537,4.537,0,0,1-1.787,4.607c-.093-.091.687-.921,1.17-2.2C376.6,219.986,376.587,218.848,376.717,218.843Z" transform="translate(-374.922 -218.842)" fill="#263238"/></g><g transform="translate(44.937 41.681)"><path d="M367.56,185.937a16.877,16.877,0,0,1-1.485,2.137,16.973,16.973,0,0,1-1.459,2.154,7.746,7.746,0,0,1,2.944-4.29Z" transform="translate(-364.598 -185.93)" fill="#263238"/></g><g transform="translate(5.442 16.21)"><path d="M331.181,160.679a21.033,21.033,0,0,1-1.846-1.223,23.766,23.766,0,0,0-9.858-3.68,21.1,21.1,0,0,1-2.2-.285,7.7,7.7,0,0,1,2.23-.02,19.964,19.964,0,0,1,10,3.733A7.732,7.732,0,0,1,331.181,160.679Z" transform="translate(-317.282 -155.416)" fill="#263238"/></g><g transform="translate(55.845 8.227)"><path d="M385.061,145.857a36.242,36.242,0,0,0-4.218,3.947,36.23,36.23,0,0,0-3.169,4.829,5.149,5.149,0,0,1,.582-1.619,16.546,16.546,0,0,1,5.309-6.306A5.157,5.157,0,0,1,385.061,145.857Z" transform="translate(-377.666 -145.853)" fill="#263238"/></g><g transform="translate(21.922 1.354)"><path d="M361.159,137.618a1.586,1.586,0,0,1,.188.386,7.174,7.174,0,0,1,.389,1.171,9.9,9.9,0,0,1-.016,4.52,11.11,11.11,0,0,1-3.4,5.753,11.544,11.544,0,0,1-7.68,2.735,13,13,0,0,1-7.754-2.592,14.829,14.829,0,0,1-4.267-5.172,15.773,15.773,0,0,1-1.422-4.3,11.452,11.452,0,0,1-.149-1.22,1.586,1.586,0,0,1-.008-.429c.044,0,.1.583.324,1.617a17.1,17.1,0,0,0,1.528,4.188,14.854,14.854,0,0,0,4.233,4.991,12.745,12.745,0,0,0,7.517,2.478,11.251,11.251,0,0,0,7.414-2.6,10.965,10.965,0,0,0,3.37-5.523,10.244,10.244,0,0,0,.149-4.412C361.365,138.175,361.108,137.637,361.159,137.618Z" transform="translate(-337.026 -137.618)" fill="#263238"/></g><g transform="translate(44.956 41.964)" opacity="0.3"><path d="M368.64,187.473c-.013-.417-.067-.908-.429-1.117a.821.821,0,0,0-.756.013,2.126,2.126,0,0,0-.6.5,10.212,10.212,0,0,0-2.23,3.564l4.092-.353C368.685,189.216,368.667,188.336,368.64,187.473Z" transform="translate(-364.62 -186.269)"/></g><g transform="translate(59.592 28.219)" opacity="0.3"><path d="M385.121,176.143a13.393,13.393,0,0,0-2.966-6.34,20.915,20.915,0,0,1,.181,12.992l.214-.553C383.687,179.931,385.435,178.483,385.121,176.143Z" transform="translate(-382.155 -169.803)"/></g></g><g transform="translate(33.048 280.358)"><path d="M371.692,409.528l-2.5,37.44-16.278-.191-2.563-38.924Z" transform="translate(-350.355 -407.852)" fill="#ffbe9d"/><g transform="translate(1.407 33.799)"><path d="M369.939,448.732l0,1.083s18.348,7.385,18.541,10.867l-36.443-.214.567-12.124A20.846,20.846,0,0,0,369.939,448.732Z" transform="translate(-352.04 -448.344)" fill="#b17c32"/><g transform="translate(3.165 3.839)"><path d="M356.9,453a1.488,1.488,0,0,0-1.038,1.693,1.43,1.43,0,0,0,1.668,1.044,1.57,1.57,0,0,0,1.091-1.8,1.484,1.484,0,0,0-1.856-.894" transform="translate(-355.832 -452.943)" fill="#fff"/></g><g transform="translate(0 9.209)"><path d="M352.04,462.292l.136-2.916,34.879,1.272s1.619.715,1.428,1.857Z" transform="translate(-352.04 -459.376)" fill="#263238"/></g><g transform="translate(14.696 1.406)"><path d="M372.979,450.2c-.007.178-.9.254-1.776.82-.893.544-1.349,1.312-1.513,1.24-.164-.035.108-1.1,1.184-1.765S373.019,450.033,372.979,450.2Z" transform="translate(-369.646 -450.028)" fill="#263238"/></g><g transform="translate(19.412 3.104)"><path d="M377.726,452.135c.04.173-.732.471-1.341,1.22-.631.73-.788,1.543-.965,1.535-.168.027-.285-1.016.49-1.933S377.723,451.966,377.726,452.135Z" transform="translate(-375.296 -452.062)" fill="#263238"/></g><g transform="translate(23.777 4.702)"><path d="M380.734,457.039c-.162.037-.4-.854.058-1.826s1.3-1.355,1.371-1.206c.1.147-.443.667-.811,1.47C380.967,456.272,380.911,457.023,380.734,457.039Z" transform="translate(-380.525 -453.977)" fill="#263238"/></g></g></g><g transform="translate(8.687)"><path d="M365.111,80.222a5.914,5.914,0,0,0-2.231-6.666,9.689,9.689,0,0,0-7.231-1.422,28.778,28.778,0,0,0-7.13,2.463,8.049,8.049,0,0,0-13.663,4.462,5.115,5.115,0,0,0-6.061,6.719l11.283,3.963L352.4,111.415a9.858,9.858,0,0,0,14.507-13.107,8.46,8.46,0,0,0,1.731-2.141,8.637,8.637,0,0,0,3.987-5.34A9.118,9.118,0,0,0,365.111,80.222Z" transform="translate(-322.381 -71.979)" fill="#263238"/><g transform="translate(0 5.874)"><g transform="translate(7.411)"><g transform="translate(0 2.142)"><path d="M357.9,127c-.7-3.528-1.189-5.945-1.182-5.92,0,0,6.653-2.591,6.194-11.883-.228-4.622-1.991-11.907-3.626-17.822-1.472-5.324-6.435-11.194-11.692-9.5l-15.9,7.764c-1.6.515-1.876,2.015-1.5,3.65l.026.8,6.185,25.591,2.613,11.437a9.662,9.662,0,0,0,10.785,7.329h0A9.662,9.662,0,0,0,357.9,127Z" transform="translate(-330.048 -81.583)" fill="#ffbe9d"/><g transform="translate(23.871 13.39)"><g transform="translate(2.953 1.753)"><path d="M364.491,100.558a1.178,1.178,0,0,1-.868,1.4,1.127,1.127,0,0,1-1.407-.79,1.18,1.18,0,0,1,.866-1.4A1.129,1.129,0,0,1,364.491,100.558Z" transform="translate(-362.184 -99.725)" fill="#263238"/></g><path d="M363.221,98.434c-.112.18-1.121-.283-2.361-.019-1.243.245-2.02,1.075-2.186.952-.08-.053.008-.356.345-.728a3.229,3.229,0,0,1,1.711-.947,3.1,3.1,0,0,1,1.918.2C363.091,98.107,363.277,98.352,363.221,98.434Z" transform="translate(-358.646 -97.625)" fill="#263238"/></g><g transform="translate(11.869 16.333)"><g transform="translate(2.877 1.58)"><path d="M350.021,103.875a1.179,1.179,0,0,1-.868,1.4,1.127,1.127,0,0,1-1.406-.79,1.178,1.178,0,0,1,.866-1.4A1.128,1.128,0,0,1,350.021,103.875Z" transform="translate(-347.715 -103.043)" fill="#263238"/></g><path d="M348.843,101.959c-.112.18-1.122-.282-2.361-.019-1.243.245-2.02,1.075-2.186.952-.08-.053.007-.355.345-.727a3.231,3.231,0,0,1,1.71-.948,3.113,3.113,0,0,1,1.919.2C348.712,101.632,348.9,101.877,348.843,101.959Z" transform="translate(-344.268 -101.15)" fill="#263238"/></g><g transform="translate(19.986 14.77)"><path d="M356.736,109.5a8.384,8.384,0,0,1,1.94-.787c.31-.1.6-.225.6-.452a1.644,1.644,0,0,0-.408-.895l-1.443-2.216A42.282,42.282,0,0,1,354,99.28a42.475,42.475,0,0,1,3.893,5.58q.736,1.173,1.407,2.24a1.872,1.872,0,0,1,.425,1.21.813.813,0,0,1-.424.573,2.205,2.205,0,0,1-.522.188A8.279,8.279,0,0,1,356.736,109.5Z" transform="translate(-353.992 -99.278)" fill="#263238"/></g><g transform="translate(13.95 38.813)"><path d="M359.479,128.768a23.374,23.374,0,0,1-12.718-.686s4.37,5.709,13.194,2.98Z" transform="translate(-346.761 -128.082)" fill="#eb996e"/></g><g transform="translate(11.001 14.686)"><path d="M348.906,99.863c-.082.357-1.359.349-2.814.706-1.462.329-2.6.907-2.834.624-.105-.136.063-.483.5-.873a5.044,5.044,0,0,1,4.3-1.013C348.634,99.459,348.94,99.694,348.906,99.863Z" transform="translate(-343.228 -99.176)" fill="#263238"/></g><g transform="translate(22.922 9.407)"><path d="M362.562,93.7c-.2.336-1.271.255-2.491.5-1.226.205-2.206.66-2.506.415-.134-.121-.031-.437.364-.8a4,4,0,0,1,1.924-.886,3.947,3.947,0,0,1,2.1.15C362.445,93.276,362.647,93.536,362.562,93.7Z" transform="translate(-357.51 -92.852)" fill="#263238"/></g></g><g transform="translate(5.076)"><path d="M336.612,83.241a6.287,6.287,0,0,0,8.524,4.572c1.322-.537,2.684-1.544,4.027-1.058,1.411.511,1.854,2.386,3.164,3.119,1.871,1.048,4.126-.767,6.264-.588,1.65.139,2.93,1.423,4.222,2.459s3.087,1.9,4.546,1.119a18.62,18.62,0,0,0-1.477-4.02,6.263,6.263,0,0,0-3.057-2.891,23.491,23.491,0,0,1-2.229-.745c-1.507-.775-2.182-2.526-3.28-3.815a6.891,6.891,0,0,0-5.847-2.343c-1.807.186-3.521,1.1-5.336,1.018-1.342-.057-2.628-.654-3.971-.631-2.615.044-4.58,2.335-6.031,4.512" transform="translate(-336.129 -79.017)" fill="#263238"/></g></g><path d="M342.936,85.658c-1.2-.089-3.654-.341-4.462-1.194a7.043,7.043,0,0,0-6.713-2.2,5.811,5.811,0,0,0-4.189,5.561,8.354,8.354,0,0,0-6.093,5.986,9.686,9.686,0,0,0,2.085,8.769,17.355,17.355,0,0,1,1.37,1.984,14.19,14.19,0,0,0-1.485,2.251c-1.907,4.223,3.27,5.841,3.27,5.841.014,2.839,2.63,2.826,4.309,2.817,1.614-.008,2.608,4.467,3.914,4.294l-1.327-13.825a1.727,1.727,0,0,0,.612.111c3.165.056,2.339-5.93,1.314-7.478a17.933,17.933,0,0,0,2.372-3.819,12.939,12.939,0,0,0,.123-6.4C339.137,88.192,343.461,85.7,342.936,85.658Z" transform="translate(-321.17 -79.522)" fill="#263238"/><g transform="translate(7.632 25.085)"><path d="M335.6,111.133a2.68,2.68,0,0,0-4.3-1.436c-.8.715-1.279,1.919-.774,3.934,1.348,5.373,6.465,2.911,6.436,2.755C336.938,116.29,336.175,113.352,335.6,111.133Z" transform="translate(-330.313 -109.069)" fill="#ffbe9d"/><g transform="translate(1.489 1.671)"><path d="M335.1,115.094c-.028-.011-.078.089-.218.2a.965.965,0,0,1-.7.19c-.619-.066-1.324-.847-1.593-1.81a3.2,3.2,0,0,1-.074-1.406,1.115,1.115,0,0,1,.524-.895.492.492,0,0,1,.617.118c.109.132.1.248.133.25s.094-.119-.006-.331a.619.619,0,0,0-.3-.284.732.732,0,0,0-.553-.007,1.358,1.358,0,0,0-.769,1.078,3.289,3.289,0,0,0,.051,1.579c.306,1.073,1.115,1.948,1.948,1.977a1.029,1.029,0,0,0,.82-.356C335.122,115.226,335.12,115.1,335.1,115.094Z" transform="translate(-332.097 -111.071)" fill="#eb996e"/></g></g></g><g transform="translate(15.924 9.376)"><path d="M366.062,99.354c-.033-.041.486-.375,1.172-1.214a7.9,7.9,0,0,0,1.678-4.174,7.684,7.684,0,0,0-.3-3.1A6.644,6.644,0,0,0,366.7,87.9a7.845,7.845,0,0,0-7.673-1.493c-.251.081-.484.206-.722.3-.228.119-.443.253-.656.373l-.331.186-.005-.368a2.713,2.713,0,0,0-.675-1.754,4.313,4.313,0,0,0-1.542-1.1,5.689,5.689,0,0,0-3.583-.262c-2.3.523-4.258,1.576-6.1,1.788a5.9,5.9,0,0,1-4.164-.836,3.4,3.4,0,0,1-.816-.835,1.465,1.465,0,0,1-.185-.361,4.792,4.792,0,0,0,1.093,1.063,5.879,5.879,0,0,0,4.032.676,14.476,14.476,0,0,0,2.8-.809,25.3,25.3,0,0,1,3.259-1.068,7.231,7.231,0,0,1,1.886-.189,5.816,5.816,0,0,1,1.945.447,4.724,4.724,0,0,1,1.7,1.209,3.143,3.143,0,0,1,.783,2.034l-.336-.182c.227-.129.457-.272.7-.4.253-.105.5-.239.769-.325a8.2,8.2,0,0,1,8.088,1.605,6.966,6.966,0,0,1,1.984,3.157,7.9,7.9,0,0,1,.26,3.235,7.8,7.8,0,0,1-1.854,4.25,5.572,5.572,0,0,1-.931.863A1.671,1.671,0,0,1,366.062,99.354Z" transform="translate(-340.247 -83.212)" fill="#455a64"/></g><g transform="translate(16.587 3.494)"><path d="M365.1,79.319a5.953,5.953,0,0,0-1.729-.593,4.556,4.556,0,0,0-2.055.186A4.056,4.056,0,0,0,359.2,80.45l-.2.3-.125-.334a6.28,6.28,0,0,0-5.092-3.781,8.109,8.109,0,0,0-4.895,1.415,21.691,21.691,0,0,1-3.88,2.007,6.1,6.1,0,0,1-2.936.345,3.7,3.7,0,0,1-.779-.214c-.17-.073-.255-.119-.25-.133.013-.039.372.111,1.049.179a6.378,6.378,0,0,0,2.812-.467,23.447,23.447,0,0,0,3.782-2.064,13.286,13.286,0,0,1,2.338-1.142,6.37,6.37,0,0,1,2.8-.359,6.585,6.585,0,0,1,5.4,4.079l-.33-.039a4.316,4.316,0,0,1,2.334-1.619,4.612,4.612,0,0,1,2.181-.109,3.913,3.913,0,0,1,1.308.5C364.986,79.189,365.112,79.306,365.1,79.319Z" transform="translate(-341.041 -76.166)" fill="#455a64"/></g><path d="M356.093,114.394a1.818,1.818,0,0,0-1.467-.426,2.148,2.148,0,0,0-1.407,1.027l-.022.032c-.012.023-.034.044-.046.068l.02-.014a1.03,1.03,0,0,0-.157.63,1.515,1.515,0,0,0,.872,1.129,1.918,1.918,0,0,0,2.187-.316A1.566,1.566,0,0,0,356.093,114.394Z" transform="translate(-326.432 -78.917)" fill="#e8505b"/><g transform="translate(26.304 35.821)"><path d="M356.455,117.145c-.064.013-.146-.248-.368-.6a2.618,2.618,0,0,0-2.709-1.233c-.41.063-.659.172-.693.115s.174-.26.618-.413a2.47,2.47,0,0,1,3.057,1.391C356.536,116.844,356.507,117.139,356.455,117.145Z" transform="translate(-352.682 -114.893)" fill="#263238"/></g><g transform="translate(9.805 37.845)"><path d="M336.151,118.578c.04-.026.239.417-.074,1.05a1.7,1.7,0,0,1-.89.8,1.727,1.727,0,0,1-2.266-1.427,1.7,1.7,0,0,1,.341-1.15c.436-.555.922-.568.916-.52.028.065-.366.189-.66.692a1.5,1.5,0,0,0-.2.936,1.392,1.392,0,0,0,1.734,1.092,1.5,1.5,0,0,0,.759-.583C336.138,118.991,336.08,118.581,336.151,118.578Z" transform="translate(-332.916 -117.318)" fill="#e8505b"/></g><g transform="translate(8.32 37.226)"><path d="M333.038,118.135c.048.022-.025.285-.388.462a1.053,1.053,0,0,1-.694.068,1.112,1.112,0,0,1-.764-1.412,1.054,1.054,0,0,1,.436-.543c.347-.207.607-.124.6-.073s-.205.109-.412.316a.794.794,0,0,0,.732,1.353C332.836,118.246,332.987,118.1,333.038,118.135Z" transform="translate(-331.137 -116.577)" fill="#e8505b"/></g></g><g transform="translate(9.434 43.201)"><path d="M344.4,202.88s20.667,1.2,32.883,1.311c9.462.087,13.679-2.427,15.572-8.506,1.588-5.1-1.825-14.893-1.825-14.893-6.4.033-10.347.914-14.465,2.844l1.1,4.476-33.322,2.873Z" transform="translate(-325.747 -133.165)" fill="#ffbe9d"/><g transform="translate(51.721 54.821)"><path d="M391.17,194.312a12.051,12.051,0,0,0-7.142-4.869,2.947,2.947,0,0,1,1.326.115,8.843,8.843,0,0,1,5.224,3.562A2.96,2.96,0,0,1,391.17,194.312Z" transform="translate(-384.028 -189.41)" fill="#eb996e"/></g><path d="M333.152,178.5h0a39.976,39.976,0,0,0-11.087,4.672l4.992,13.576c1.668,4.455,6.776,6.644,10.822,4.333,6.285-3.591,8.5-14.077,8.5-14.077l6.908-29.948-11.444-7.171L333.152,178.5" transform="translate(-322.065 -128.056)" fill="#ffbe9d"/><g transform="translate(9.137)"><path d="M345.326,145.6l.462-9.849-2.556-9.976c-.142-.553-.211-1.242.236-1.578a1.213,1.213,0,0,1,1.543.048c.7.715,4.037,9.477,4.037,9.477s5.064-3.044,5.968-3.192,2.031,2.577,2.1,2.792a15.874,15.874,0,0,1,.009,1.831s3.132.093,3.412.523a10.755,10.755,0,0,1,.361,2.657s1.324.425,1.538,1.429.64,2.656.016,3.018-1.943,1.088-1.943,1.088-.531,5.11-.668,5.575a31.7,31.7,0,0,1-3.073,3.327Z" transform="translate(-334.683 -123.768)" fill="#ffbe9d"/><path d="M333.011,196.962c.013-.028.311.178.959.388a6.53,6.53,0,0,0,2.951.234,8.231,8.231,0,0,0,4.272-1.97,19.806,19.806,0,0,0,3.972-5.028,22.572,22.572,0,0,0,1.547-3.449,35.332,35.332,0,0,0,1.071-4c.655-2.813,1.361-5.841,2.111-9.06,1.507-6.439,3.191-13.638,5-21.391l.013-.058.043-.043c.574-.563,1.152-1.144,1.724-1.74.285-.3.57-.6.842-.913a5.854,5.854,0,0,0,.379-.472c.1-.1.1-.3.139-.515.226-1.671.4-3.4.588-5.137l.012-.11.1-.055,1.591-.891c.121-.072.3-.159.375-.22a.462.462,0,0,0,.15-.28,2.665,2.665,0,0,0,.01-.865,12.988,12.988,0,0,0-.371-1.815,2.234,2.234,0,0,0-1.329-1.072l-.144-.053-.006-.145c-.021-.483-.053-.981-.108-1.476-.028-.247-.06-.5-.111-.733a1.438,1.438,0,0,0-.1-.31c-.026-.054-.014-.013-.052-.048a.835.835,0,0,0-.14-.059,14.736,14.736,0,0,0-3.057-.345l-.218-.011.007-.215c.016-.515.038-1.09.014-1.631a1.717,1.717,0,0,0-.194-.559c-.089-.2-.186-.4-.286-.6a7.164,7.164,0,0,0-.683-1.1,1.844,1.844,0,0,0-.424-.416.406.406,0,0,0-.444-.051,10.822,10.822,0,0,0-1.177.539c-1.558.811-3.071,1.7-4.556,2.578l-.218.129-.093-.235q-1.184-2.965-2.337-5.852l-1.144-2.864a1.188,1.188,0,0,0-.917-.859.929.929,0,0,0-1.086.4.971.971,0,0,0-.127.594c.024.186.116.467.17.7q.19.722.378,1.438.376,1.431.745,2.836l1.447,5.511.008.029,0,.03c-.166,3.427-.326,6.716-.477,9.849l0,.023-.007.022c-3.154,10.265-5.77,18.778-7.6,24.744-.921,2.957-1.645,5.282-2.145,6.888q-.373,1.166-.578,1.806c-.133.407-.215.614-.215.614s.046-.217.162-.63q.187-.645.526-1.821l2.052-6.916c1.8-5.978,4.364-14.507,7.457-24.789l-.008.043c.142-3.132.291-6.421.447-9.85l.006.058q-.714-2.7-1.459-5.507l-.751-2.836q-.189-.715-.381-1.437c-.059-.255-.135-.448-.183-.757a1.4,1.4,0,0,1,.18-.85,1.292,1.292,0,0,1,.676-.568,1.61,1.61,0,0,1,.863-.028,1.71,1.71,0,0,1,.765.39,1.687,1.687,0,0,1,.45.72q.568,1.421,1.147,2.863l2.343,5.851-.311-.105c1.492-.887,3-1.772,4.58-2.594a11.082,11.082,0,0,1,1.239-.565.948.948,0,0,1,.421-.059.911.911,0,0,1,.4.158,2.27,2.27,0,0,1,.528.511,7.564,7.564,0,0,1,.729,1.174c.1.2.2.407.3.616a2.044,2.044,0,0,1,.232.709c.025.592,0,1.148-.013,1.676l-.211-.225a14.717,14.717,0,0,1,3.188.37,1.2,1.2,0,0,1,.215.093.536.536,0,0,1,.215.218,1.762,1.762,0,0,1,.138.423c.057.264.088.521.118.776.056.512.088,1.012.109,1.508l-.15-.2a2.638,2.638,0,0,1,1.6,1.319,12.624,12.624,0,0,1,.4,1.932,3.038,3.038,0,0,1-.02,1.014.887.887,0,0,1-.3.516,4.428,4.428,0,0,1-.426.253l-1.6.894.109-.164c-.188,1.744-.365,3.462-.6,5.154l-.053.324a.832.832,0,0,1-.154.364,5.675,5.675,0,0,1-.412.513c-.28.32-.568.625-.856.926-.578.6-1.158,1.18-1.737,1.747l.057-.1-5.066,21.377-2.153,9.049a35.3,35.3,0,0,1-1.1,4.026,22.8,22.8,0,0,1-1.589,3.48,19.815,19.815,0,0,1-4.063,5.052,8.3,8.3,0,0,1-4.386,1.957,6.431,6.431,0,0,1-2.991-.3,4.413,4.413,0,0,1-.71-.321A1.464,1.464,0,0,1,333.011,196.962Z" transform="translate(-333.011 -123.734)" fill="#eb996e"/><g transform="translate(18.121 11.124)"><path d="M359.042,137.3c0,.062-.283.093-.724.114a8.353,8.353,0,0,0-1.663.2,3.287,3.287,0,0,0-1.417.757c-.305.285-.438.527-.5.5s-.016-.32.27-.7a2.809,2.809,0,0,1,1.537-.973,4.852,4.852,0,0,1,1.784-.083C358.778,137.165,359.046,137.242,359.042,137.3Z" transform="translate(-354.72 -137.062)" fill="#eb996e"/></g><g transform="translate(19.905 10.45)"><path d="M356.946,137.259c-.112-.043-.119-.3-.016-.576s.278-.466.391-.424.119.3.016.576S357.059,137.3,356.946,137.259Z" transform="translate(-356.857 -136.253)" fill="#eb996e"/></g><g transform="translate(22.141 14.355)"><path d="M363.75,141.063a7.837,7.837,0,0,1-2.477.343,1.693,1.693,0,0,0-1.379.664c-.22.341-.147.624-.21.642-.04.038-.266-.281-.064-.78a1.363,1.363,0,0,1,.6-.663,2.647,2.647,0,0,1,1-.294A7.049,7.049,0,0,1,363.75,141.063Z" transform="translate(-359.536 -140.932)" fill="#eb996e"/></g><g transform="translate(25.51 17.489)"><path d="M363.86,144.687c.12.005.19.622.155,1.378s-.159,1.364-.279,1.359-.19-.623-.155-1.379S363.74,144.681,363.86,144.687Z" transform="translate(-363.572 -144.687)" fill="#eb996e"/></g></g></g><g transform="translate(47.839 78.372)"><path d="M368.074,170.67l.742-2.559a.7.7,0,0,1,1.17-.295l.968.988.605-2.406a.7.7,0,0,1,1.308-.132l1.366,2.85Z" transform="translate(-368.074 -165.869)" fill="#fff"/><g transform="translate(0.172 4.312)"><path d="M374.282,171.065a22.069,22.069,0,0,1-6,1.486,22.068,22.068,0,0,1,6-1.486Z" transform="translate(-368.28 -171.036)" fill="#fff"/></g></g><g transform="translate(2.136 68.445)"><path d="M315.559,153.977c.02.017-.311.321-.742.992a8.486,8.486,0,0,0-1.132,3.152,22.774,22.774,0,0,0-.15,5c.092,1.89.245,3.964.476,6.134a107.654,107.654,0,0,0,1.761,11.035c.3,1.4.564,2.527.75,3.305l.214.9c.048.205.063.316.063.316s-.038-.1-.1-.306c-.07-.254-.152-.546-.247-.889-.205-.774-.491-1.9-.8-3.3a97.8,97.8,0,0,1-1.815-11.043c-.231-2.174-.38-4.253-.463-6.145a22.3,22.3,0,0,1,.189-5.029,8.3,8.3,0,0,1,1.2-3.168A5.027,5.027,0,0,1,315.559,153.977Z" transform="translate(-313.322 -153.977)" fill="#fff"/></g><g transform="translate(4.373 57.096)"><path d="M333.568,140.382a1.057,1.057,0,0,1-.188.1l-.551.263c-.477.228-1.167.563-2,1.022a71.932,71.932,0,0,0-6.272,3.92c-2.383,1.639-4.5,3.187-6.039,4.29l-1.832,1.3-.5.345a1.01,1.01,0,0,1-.183.11.987.987,0,0,1,.162-.139l.486-.371,1.8-1.342c1.524-1.128,3.627-2.693,6.013-4.334a62.687,62.687,0,0,1,6.313-3.885c.838-.446,1.538-.765,2.026-.975l.565-.233A.916.916,0,0,1,333.568,140.382Z" transform="translate(-316.002 -140.381)" fill="#fff"/></g><g transform="translate(46.264 55.744)"><path d="M381.671,145.544a.679.679,0,0,1-.139-.105l-.376-.326a14.942,14.942,0,0,0-1.462-1.091,29.7,29.7,0,0,0-5.366-2.715,54.5,54.5,0,0,0-5.722-1.9c-.744-.206-1.351-.358-1.77-.462l-.482-.123a.658.658,0,0,1-.166-.055.676.676,0,0,1,.174.021l.49.091c.424.083,1.037.217,1.786.409a46.343,46.343,0,0,1,5.755,1.861,27.224,27.224,0,0,1,5.371,2.775A10.6,10.6,0,0,1,381.671,145.544Z" transform="translate(-366.188 -138.762)" fill="#fff"/></g><g transform="translate(19.09 119.113)"><path d="M336.718,221.807a1.182,1.182,0,0,1-.326-.112,5.51,5.51,0,0,1-.828-.442,4.027,4.027,0,0,1-1.815-2.458,4.812,4.812,0,0,1,.323-3.055,4.216,4.216,0,0,1,.483-.807,1.138,1.138,0,0,1,.232-.254,9.72,9.72,0,0,0-.6,1.11,4.944,4.944,0,0,0-.266,2.967,4.063,4.063,0,0,0,1.715,2.4C336.274,221.6,336.732,221.777,336.718,221.807Z" transform="translate(-333.633 -214.679)" fill="#fff"/></g><g transform="translate(19.508 117.204)"><path d="M334.144,212.392a7.229,7.229,0,0,1,.628,2.145,7.229,7.229,0,0,1-.628-2.145Z" transform="translate(-334.133 -212.392)" fill="#fff"/></g><g transform="translate(10.072 126.229)"><path d="M343.561,401.327l25.462-.128-.462-88.027-.237-89.541L333.84,223.2l-6.2,11.688a41.966,41.966,0,0,0-4.77,15.148c-.433,4.045,2.6,17.237,3.656,20.594l9.492,30.1Z" transform="translate(-322.829 -223.203)" fill="#263238"/><path d="M381.091,223.841l27.976,76.269a35.182,35.182,0,0,1-3.449,29.8l-32.482,63.4L354.873,370.46l27.178-56.8-23.96-38.818,4.032-50.924,11.285-.182Z" transform="translate(-328.125 -223.292)" fill="#263238"/><g transform="translate(43.164 26.1)"><path d="M374.546,254.471s.021.133.039.391c.018.277.042.659.073,1.149.055,1.031.134,2.517.235,4.421.187,3.861.455,9.412.786,16.265.316,6.874.693,15.05,1.111,24.126.2,4.541.418,9.307.641,14.248.159,2.469.086,4.987.115,7.541q.011,3.831.023,7.768c.035,20.978.068,39.966.09,53.733-.009,6.861-.017,12.418-.023,16.283-.012,1.906-.022,3.395-.028,4.427-.008.491-.013.873-.018,1.151-.007.26-.022.392-.022.392s-.015-.133-.023-.392l-.024-1.151c-.013-1.033-.031-2.52-.053-4.427-.028-3.865-.068-9.421-.116-16.281-.056-13.765-.133-32.752-.217-53.726q-.011-3.934-.022-7.767c-.027-2.553.047-5.072-.109-7.541-.213-4.94-.419-9.705-.615-14.246-.382-9.077-.727-17.253-1.018-24.127-.273-6.854-.494-12.407-.648-16.269-.067-1.906-.119-3.392-.154-4.425-.012-.491-.023-.873-.029-1.151C374.537,254.6,374.546,254.471,374.546,254.471Z" transform="translate(-374.54 -254.471)" fill="#455a64"/></g><g transform="translate(42.512 2.054)"><path d="M373.779,225.664a3.167,3.167,0,0,1,.176.829c.087.537.19,1.316.3,2.282.224,1.931.457,4.608.593,7.571s.14,5.652.092,7.6c-.023.972-.057,1.758-.094,2.3a3.167,3.167,0,0,1-.1.841,25.91,25.91,0,0,1-.111-3.142c-.031-1.94-.087-4.618-.22-7.574s-.319-5.628-.463-7.563A25.842,25.842,0,0,1,373.779,225.664Z" transform="translate(-373.759 -225.664)" fill="#455a64"/></g><g transform="translate(35.999 3.552)"><path d="M366.878,227.678a2.047,2.047,0,0,0-.564.952,1.081,1.081,0,0,0,.324,1.018,1.111,1.111,0,0,0,1.9-.869,1.083,1.083,0,0,0-.559-.91,2.032,2.032,0,0,0-1.089-.194c-.011-.023.08-.111.3-.174a1.425,1.425,0,0,1,1.752,1.256,1.494,1.494,0,0,1-2.574,1.179,1.425,1.425,0,0,1,.194-2.147C366.743,227.667,366.869,227.655,366.878,227.678Z" transform="translate(-365.956 -227.459)" fill="#455a64"/></g><g transform="translate(10.198 2.26)"><path d="M348.411,225.911a2.5,2.5,0,0,1,.229.8,7.915,7.915,0,0,1,.074,2.268,9.135,9.135,0,0,1-.963,3.235,8.562,8.562,0,0,1-6.523,4.683,9.147,9.147,0,0,1-3.372-.122,7.92,7.92,0,0,1-2.126-.8,2.483,2.483,0,0,1-.684-.472,14.385,14.385,0,0,0,2.871.967,8.763,8.763,0,0,0,10.493-7.532A14.488,14.488,0,0,0,348.411,225.911Z" transform="translate(-335.045 -225.911)" fill="#455a64"/></g><g transform="translate(49.548 2.189)"><path d="M388.955,233.2a3.378,3.378,0,0,1-1.6-.189,7.452,7.452,0,0,1-5.06-5.575,3.378,3.378,0,0,1-.034-1.614c.078,0,.082.613.334,1.544a8.067,8.067,0,0,0,4.859,5.354C388.352,233.064,388.963,233.127,388.955,233.2Z" transform="translate(-382.187 -225.825)" fill="#455a64"/></g><g transform="translate(55.774 89.283)"><path d="M400.133,332.675a5.287,5.287,0,0,1-1.476,1.174,6.819,6.819,0,0,1-1.9.83,4.578,4.578,0,0,1-2.563-.068,7.458,7.458,0,0,1-3.567-2.838,6.617,6.617,0,0,1-.978-1.606,10.287,10.287,0,0,1,1.22,1.417,7.912,7.912,0,0,0,3.457,2.613,5.352,5.352,0,0,0,4.178-.615A17.273,17.273,0,0,1,400.133,332.675Z" transform="translate(-389.647 -330.165)" fill="#455a64"/></g><g transform="translate(54.965 89.75)"><path d="M393.6,337.639a41.39,41.39,0,0,1-4.916-6.912,41.492,41.492,0,0,1,4.916,6.912Z" transform="translate(-388.677 -330.724)" fill="#455a64"/></g><g transform="translate(16.143 26.749)"><path d="M343.134,257.56c-.111.045-.408-.436-.664-1.073s-.371-1.19-.26-1.235.408.436.664,1.073S343.246,257.516,343.134,257.56Z" transform="translate(-342.168 -255.249)" fill="#fafafa"/></g><g transform="translate(33.053 29.522)"><path d="M362.645,260.418c-.12,0-.218-.413-.218-.923s.1-.924.218-.924.217.414.217.924S362.765,260.418,362.645,260.418Z" transform="translate(-362.427 -258.571)" fill="#fafafa"/></g><g transform="translate(26.32 37.836)"><path d="M354.67,270.84c-.119.008-.252-.5-.3-1.139s.019-1.161.139-1.169.252.5.3,1.14S354.79,270.832,354.67,270.84Z" transform="translate(-354.361 -268.531)" fill="#fafafa"/></g><g transform="translate(12.796 45.328)"><path d="M339.854,278.786c-.1.073-.443-.234-.891-.555s-.841-.559-.8-.676.553-.045,1.058.325S339.951,278.721,339.854,278.786Z" transform="translate(-338.159 -277.506)" fill="#fafafa"/></g><g transform="translate(35.854 53.371)"><path d="M365.816,288.538c-.1-.067.026-.431.28-.813s.543-.638.643-.573-.026.431-.281.814S365.915,288.6,365.816,288.538Z" transform="translate(-365.782 -287.142)" fill="#fafafa"/></g><g transform="translate(22.432 53.997)"><path d="M349.921,290.97c-.12,0-.218-.689-.218-1.539s.1-1.539.218-1.539.217.689.217,1.539S350.041,290.97,349.921,290.97Z" transform="translate(-349.703 -287.892)" fill="#fafafa"/></g><g transform="translate(16.656 65.183)"><path d="M344.486,302.548c-.07.1-.507-.1-.974-.439s-.79-.694-.719-.791.507.1.975.439S344.557,302.452,344.486,302.548Z" transform="translate(-342.783 -301.293)" fill="#fafafa"/></g><g transform="translate(30.341 69.639)"><path d="M360.569,306.689c.048.11-.222.336-.6.507s-.733.219-.781.109.222-.336.6-.507S360.519,306.58,360.569,306.689Z" transform="translate(-359.177 -306.631)" fill="#fafafa"/></g><g transform="translate(21.087 81.854)"><path d="M349.654,324.348c-.108.053-.539-.593-.964-1.442s-.683-1.583-.575-1.637.538.592.964,1.442S349.761,324.293,349.654,324.348Z" transform="translate(-348.091 -321.265)" fill="#fafafa"/></g><g transform="translate(37.398 81.237)"><path d="M367.661,322.84c-.106-.057.083-.619.424-1.257s.7-1.109.807-1.052-.084.618-.424,1.256S367.767,322.9,367.661,322.84Z" transform="translate(-367.632 -320.526)" fill="#fafafa"/></g><g transform="translate(30.469 93.552)"><path d="M359.824,338.208c-.124-.018-.114-.677-.242-1.461s-.331-1.408-.22-1.464.517.535.65,1.4S359.937,338.231,359.824,338.208Z" transform="translate(-359.331 -335.279)" fill="#fafafa"/></g><g transform="translate(22.479 102.163)"><path d="M351.315,347.3c-.088.081-.505-.232-.93-.7s-.7-.911-.609-.992.506.233.931.7S351.4,347.221,351.315,347.3Z" transform="translate(-349.759 -345.596)" fill="#fafafa"/></g><g transform="translate(40.833 104.953)"><path d="M371.761,350.658c-.085-.083.221-.534.685-1s.91-.785.995-.7-.221.534-.685,1.005S371.846,350.742,371.761,350.658Z" transform="translate(-371.747 -348.939)" fill="#fafafa"/></g><g transform="translate(31.088 114.955)"><path d="M360.162,363.7c-.119-.018-.12-.654,0-1.421s.307-1.374.426-1.356.12.654,0,1.421S360.281,363.716,360.162,363.7Z" transform="translate(-360.072 -360.921)" fill="#fafafa"/></g><g transform="translate(23.39 120.95)"><path d="M352.131,370.251c-.1.061-.468-.37-.815-.961s-.543-1.12-.439-1.181.468.37.815.962S352.235,370.191,352.131,370.251Z" transform="translate(-350.85 -368.103)" fill="#fafafa"/></g><g transform="translate(38.184 129.853)"><path d="M370.735,378.789c.069.1-.356.522-.951.947s-1.133.692-1.2.594.356-.522.95-.947S370.665,378.691,370.735,378.789Z" transform="translate(-368.574 -378.769)" fill="#fafafa"/></g><g transform="translate(27.247 135.579)"><path d="M355.514,388.713c-.117-.042.033-.714.1-1.545s.048-1.518.17-1.539.345.682.263,1.578S355.622,388.757,355.514,388.713Z" transform="translate(-355.471 -385.628)" fill="#fafafa"/></g><g transform="translate(31.247 149.727)"><path d="M361.517,404.129c-.094.075-.446-.209-.785-.634s-.54-.831-.447-.906.446.21.785.634S361.611,404.055,361.517,404.129Z" transform="translate(-360.262 -402.578)" fill="#fafafa"/></g><g transform="translate(25.094 157.275)"><path d="M354.6,414.09c-.1.068-.558-.428-1.026-1.109s-.766-1.286-.668-1.355.558.428,1.026,1.109S354.7,414.022,354.6,414.09Z" transform="translate(-352.892 -411.621)" fill="#fafafa"/></g><g transform="translate(42.43 147.888)"><path d="M373.737,401.61c-.113-.043-.1-.352.028-.692s.322-.582.434-.539.1.351-.027.692S373.849,401.652,373.737,401.61Z" transform="translate(-373.66 -400.374)" fill="#fafafa"/></g><g transform="translate(35.549 166.517)"><path d="M365.448,425.463c-.11-.058.1-.652.261-1.4s.23-1.369.354-1.375.252.661.07,1.469S365.548,425.521,365.448,425.463Z" transform="translate(-365.417 -422.693)" fill="#fafafa"/></g><g transform="translate(39.247 38.59)"><path d="M370.682,271.124c-.109.051-.374-.285-.591-.75s-.306-.883-.2-.934.374.285.591.75S370.79,271.074,370.682,271.124Z" transform="translate(-369.846 -269.435)" fill="#fafafa"/></g><g transform="translate(26.17 14.266)"><path d="M356.51,240.312c.066.106-.522.576-1.142,1.243s-1.057,1.279-1.167,1.22.179-.806.85-1.518S356.453,240.211,356.51,240.312Z" transform="translate(-354.18 -240.294)" fill="#fafafa"/></g><g transform="translate(37.717 11.81)"><path d="M369.109,239.517c-.12.025-.317-.471-.607-1.043s-.563-1.029-.47-1.111.544.284.859.917S369.224,239.5,369.109,239.517Z" transform="translate(-368.014 -237.352)" fill="#fafafa"/></g><g transform="translate(6.638 20.142)"><path d="M330.825,249.649c-.112-.043,0-.6.255-1.236s.548-1.12.659-1.076,0,.6-.255,1.236S330.936,249.693,330.825,249.649Z" transform="translate(-330.782 -247.334)" fill="#fafafa"/></g><g transform="translate(5.861 33.506)"><path d="M331.708,264.9c-.077.092-.553-.178-1.063-.6s-.861-.845-.785-.937.553.178,1.063.6S331.785,264.81,331.708,264.9Z" transform="translate(-329.85 -263.344)" fill="#fafafa"/></g><g transform="translate(28.131 2.735)"><path d="M357.206,228.023c-.112.044-.34-.264-.51-.689s-.217-.806-.106-.851.34.264.51.689S357.317,227.978,357.206,228.023Z" transform="translate(-356.53 -226.48)" fill="#fafafa"/></g><g transform="translate(48.916 8.288)"><path d="M381.512,235.286c-.117-.026-.106-.528.024-1.123s.331-1.056.447-1.03.107.528-.023,1.123S381.63,235.311,381.512,235.286Z" transform="translate(-381.431 -233.132)" fill="#fafafa"/></g><g transform="translate(53.707 17.359)"><path d="M387.207,246.619c-.111-.046.04-.669.337-1.391s.629-1.271.74-1.226-.041.669-.338,1.391S387.318,246.665,387.207,246.619Z" transform="translate(-387.17 -244)" fill="#fafafa"/></g><g transform="translate(48.945 24.901)"><path d="M382.877,255.81c-.108.053-.505-.523-.887-1.289s-.605-1.428-.5-1.482.5.523.887,1.288S382.984,255.755,382.877,255.81Z" transform="translate(-381.465 -253.035)" fill="#fafafa"/></g><g transform="translate(57.541 33.368)"><path d="M391.814,265.182c-.112-.043-.031-.526.182-1.078s.476-.966.588-.922.031.525-.182,1.078S391.926,265.225,391.814,265.182Z" transform="translate(-391.764 -263.178)" fill="#fafafa"/></g><g transform="translate(50.315 41.672)"><path d="M383.918,274.369c-.1.063-.356-.161-.569-.5s-.3-.667-.2-.731.356.161.569.5S384.02,274.305,383.918,274.369Z" transform="translate(-383.107 -273.126)" fill="#fafafa"/></g><g transform="translate(50.492 56.3)"><path d="M385.333,292.817c-.089.082-.608-.335-1.16-.93s-.929-1.144-.841-1.225.608.335,1.16.93S385.421,292.735,385.333,292.817Z" transform="translate(-383.319 -290.652)" fill="#fafafa"/></g><g transform="translate(59.267 47.369)"><path d="M395.542,282.116c-.094.074-.55-.348-1.018-.943s-.77-1.138-.676-1.212.55.348,1.018.944S395.637,282.041,395.542,282.116Z" transform="translate(-393.831 -279.952)" fill="#fafafa"/></g><g transform="translate(65.595 59.245)"><path d="M401.443,296.8c-.109-.052.081-.679.423-1.4s.707-1.265.816-1.214-.081.678-.423,1.4S401.551,296.847,401.443,296.8Z" transform="translate(-401.412 -294.179)" fill="#fafafa"/></g><g transform="translate(53.739 70.132)"><path d="M389.214,309.1c-.106.064-.493-.4-1.031-.891s-1.026-.846-.97-.956.679.093,1.265.637S389.316,309.04,389.214,309.1Z" transform="translate(-387.209 -307.222)" fill="#fafafa"/></g><g transform="translate(54.513 82.256)"><path d="M389.983,321.964c0,.12-.414.217-.924.217s-.923-.1-.923-.217.413-.217.923-.217S389.983,321.844,389.983,321.964Z" transform="translate(-388.136 -321.747)" fill="#fafafa"/></g><g transform="translate(66.491 77.086)"><path d="M402.513,318.015c-.105-.065.109-.585.27-1.241s.223-1.214.346-1.221.26.6.075,1.327S402.609,318.081,402.513,318.015Z" transform="translate(-402.486 -315.553)" fill="#fafafa"/></g><g transform="translate(75.604 80.301)"><path d="M414.411,322.162c-.114.039-.422-.545-.689-1.306s-.391-1.41-.278-1.449.422.544.689,1.306S414.525,322.122,414.411,322.162Z" transform="translate(-413.403 -319.405)" fill="#fafafa"/></g><g transform="translate(74.98 94.483)"><path d="M412.68,339.326c-.107-.055.15-.756.574-1.564s.853-1.418.96-1.363-.151.756-.575,1.565S412.786,339.382,412.68,339.326Z" transform="translate(-412.656 -336.395)" fill="#fafafa"/></g><g transform="translate(64.629 103.1)"><path d="M401.419,349.47c-.111.046-.453-.533-.765-1.291s-.475-1.412-.363-1.458.453.533.765,1.293S401.53,349.425,401.419,349.47Z" transform="translate(-400.255 -346.718)" fill="#fafafa"/></g><g transform="translate(54.052 108.885)"><path d="M389.122,353.866c0,.12-.345.218-.77.218s-.77-.1-.77-.218.344-.217.77-.217S389.122,353.746,389.122,353.866Z" transform="translate(-387.583 -353.649)" fill="#fafafa"/></g><g transform="translate(60.759 120.183)"><path d="M396.3,369.495c-.116.032-.348-.461-.518-1.1s-.214-1.18-.1-1.211.348.461.518,1.1S396.415,369.464,396.3,369.495Z" transform="translate(-395.618 -367.184)" fill="#fafafa"/></g><g transform="translate(54.015 116.483)"><path d="M387.576,364.3c-.1-.062.02-.457.275-.881s.546-.72.649-.658-.02.456-.275.881S387.678,364.36,387.576,364.3Z" transform="translate(-387.539 -362.751)" fill="#fafafa"/></g><g transform="translate(53.478 130.19)"><path d="M387.315,381.79c-.119.014-.285-.561-.37-1.283s-.057-1.32.062-1.334.285.56.37,1.283S387.434,381.776,387.315,381.79Z" transform="translate(-386.896 -379.173)" fill="#fafafa"/></g></g></g></g></g></svg>