<svg xmlns="http://www.w3.org/2000/svg" width="183.595" height="46.537" viewBox="0 0 183.595 46.537"><g transform="translate(1422.524 -1010.94)"><text transform="translate(-1360.929 1035.94)" fill="#fff" font-size="26" font-family="CenturyGothic, Century Gothic"><tspan x="0" y="0">PEERVEST</tspan></text><text transform="translate(-1360.726 1051.94)" fill="#fff" font-size="15" font-family="CenturyGothic, Century Gothic"><tspan x="0" y="0">GLOBAL</tspan></text><g transform="translate(-1422.524 1011.94)"><g transform="translate(0 0.012)"><path d="M-1397.132,1024.8a1.05,1.05,0,0,0,.907-1.574c-1.229-2.136-2.349-4.091-3.518-6.017a1.593,1.593,0,0,0-1.168-.62c-6.965-.033-13.93-.019-20.9-.008a3.875,3.875,0,0,0-.717.2l25.847,44.786a1.05,1.05,0,0,0,1.817,0c1.247-2.146,2.439-4.185,3.545-6.271.186-.351-.2-1.106-.475-1.586q-7.853-13.679-15.746-27.337l-.008-.014a1.047,1.047,0,0,1,.912-1.566Z" transform="translate(1422.524 -1016.57)" fill="#d39844"/></g><path d="M-1356.057,1018.038a.989.989,0,0,0-.852-1.481c-2.577-.008-4.95-.026-7.32.059-.4.014-.851.732-1.13,1.211-3.119,5.354-6.208,10.726-9.308,16.091l-.007.012a.985.985,0,0,1-1.7,0c-.866-1.457-1.7-2.85-2.446-4.294a2.662,2.662,0,0,0-2.872-1.733c-1.894.12-3.8.077-5.857.053a.989.989,0,0,0-.864,1.483l12.034,20.844a.988.988,0,0,0,1.71,0Z" transform="translate(1408.855 -1016.55)" fill="#0a264e"/></g></g></svg>