<svg xmlns="http://www.w3.org/2000/svg" xmlns:xlink="http://www.w3.org/1999/xlink" width="385.956" height="385" viewBox="0 0 385.956 385"><defs><filter id="a" x="124.764" y="29.095" width="152.668" height="144.935" filterUnits="userSpaceOnUse"><feOffset dx="8" dy="8" input="SourceAlpha"/><feGaussianBlur stdDeviation="19" result="b"/><feFlood flood-color="#0a264e" flood-opacity="0.259"/><feComposite operator="in" in2="b"/><feComposite in="SourceGraphic"/></filter><linearGradient id="c" x1="1.059" y1="1.132" x2="0.324" y2="0.336" gradientUnits="objectBoundingBox"><stop offset="0" stop-color="#dae3fe"/><stop offset="1" stop-color="#e9effd"/></linearGradient><linearGradient id="d" y1="0.5" x2="1" y2="0.5" gradientUnits="objectBoundingBox"><stop offset="0" stop-color="#4f52ff"/><stop offset="1" stop-color="#4042e2"/></linearGradient><linearGradient id="n" x1="-20.963" y1="-1.461" x2="-24.195" y2="3.372" gradientUnits="objectBoundingBox"><stop offset="0" stop-color="#febbba"/><stop offset="1" stop-color="#ff928e"/></linearGradient><linearGradient id="o" x1="-19.682" y1="-1.014" x2="-22.891" y2="5.177" xlink:href="#n"/><linearGradient id="p" x1="-30.428" y1="0.5" x2="-29.428" y2="0.5" xlink:href="#d"/><linearGradient id="q" x1="-31.34" y1="0.5" x2="-30.34" y2="0.5" gradientUnits="objectBoundingBox"><stop offset="0" stop-color="#09005d"/><stop offset="1" stop-color="#1a0f91"/></linearGradient><linearGradient id="r" x1="-109.92" y1="0.5" x2="-108.92" y2="0.5" xlink:href="#n"/><linearGradient id="s" x1="-90.328" y1="0.5" x2="-89.328" y2="0.5" xlink:href="#d"/><linearGradient id="t" x1="-61.211" y1="0.5" x2="-60.211" y2="0.5" xlink:href="#q"/><linearGradient id="u" x1="-101.211" y1="0.5" x2="-100.211" y2="0.5" xlink:href="#n"/><linearGradient id="v" x1="-11.737" y1="0.066" x2="-12.893" y2="1.243" xlink:href="#q"/><linearGradient id="w" x1="3.101" y1="-6.423" x2="0.428" y2="0.693" gradientUnits="objectBoundingBox"><stop offset="0" stop-color="#53d8ff"/><stop offset="1" stop-color="#3840f7"/></linearGradient><linearGradient id="x" x1="8.282" y1="-5.712" x2="-2.035" y2="2.511" gradientUnits="objectBoundingBox"><stop offset="0" stop-color="#e1473d"/><stop offset="1" stop-color="#e9605a"/></linearGradient><linearGradient id="y" x1="-57.379" y1="1.478" x2="-57.106" y2="0.434" xlink:href="#n"/><linearGradient id="z" x1="-40.308" y1="0.35" x2="-41.42" y2="1.106" xlink:href="#n"/><linearGradient id="aa" x1="-29.728" y1="0.152" x2="-28.978" y2="1.129" xlink:href="#q"/><linearGradient id="ab" x1="-168.552" y1="-0.685" x2="-173.103" y2="1.784" xlink:href="#n"/><linearGradient id="ac" x1="0.568" y1="-1.231" x2="0.524" y2="-0.273" xlink:href="#d"/><linearGradient id="ad" x1="0.785" y1="-10.44" x2="0.688" y2="-6.555" xlink:href="#d"/><linearGradient id="ae" x1="0.335" y1="-5.038" x2="0.39" y2="-3.236" xlink:href="#d"/><linearGradient id="af" x1="0.768" y1="-9.78" x2="0.671" y2="-5.895" xlink:href="#d"/><linearGradient id="ag" x1="0.335" y1="-4.599" x2="0.389" y2="-2.943" xlink:href="#d"/><linearGradient id="ah" x1="0.528" y1="0.434" x2="0.86" y2="-2.146" xlink:href="#d"/><linearGradient id="ai" x1="0.765" y1="-0.744" x2="1.74" y2="-5.079" xlink:href="#d"/><linearGradient id="aj" x1="0.68" y1="-1.394" x2="0.419" y2="1.019" xlink:href="#q"/><linearGradient id="ak" x1="-35.867" y1="1.924" x2="-36.784" y2="-0.193" xlink:href="#n"/><linearGradient id="al" x1="-61.291" y1="2.292" x2="-62.104" y2="-2.616" xlink:href="#n"/></defs><g transform="translate(-410.205 -1320)"><g transform="matrix(1, 0, 0, 1, 410.21, 1320)" filter="url(#a)"><rect width="38.668" height="30.935" rx="15.467" transform="translate(173.76 78.1)" fill="#0a264e"/></g><text transform="translate(589.74 1422.043)" fill="#fff" font-size="1" font-family="Montserrat-SemiBold, Montserrat" font-weight="600"><tspan x="0" y="0">Investor matching</tspan></text><g transform="translate(597.439 1404.583)"><path d="M694.783,499.261a1.052,1.052,0,0,1-.8-1.147,1.016,1.016,0,0,1,2.013.01,1.051,1.051,0,0,1-.8,1.136h.565a1.191,1.191,0,0,1,1.23,1.019,6.3,6.3,0,0,1,.018.957c0,.075-.061.043-.094.043-.294,0-.589,0-.883,0-.98,0-1.961,0-2.941,0-.093,0-.132-.015-.125-.12a7.574,7.574,0,0,1,.027-.931,1.2,1.2,0,0,1,1.171-.972C694.37,499.26,694.577,499.261,694.783,499.261Z" transform="translate(-692.965 -497.24)" fill="#fff"/><path d="M790.169,594.233c.21,0,.42,0,.631,0a1.208,1.208,0,0,1,1.184,1.182c0,.248,0,.5,0,.745,0,.064-.005.1-.085.1q-1.938,0-3.875,0c-.038,0-.087.017-.084-.056a7.226,7.226,0,0,1,.026-.994,1.2,1.2,0,0,1,1.159-.97c.21,0,.421,0,.634-.008a1.067,1.067,0,0,1-.655-.466,1,1,0,0,1-.125-.786,1.014,1.014,0,0,1,1.991.137A1.05,1.05,0,0,1,790.169,594.233Z" transform="translate(-780.258 -584.533)" fill="#fff"/><path d="M719.641,565.154c-1.37,0-2.7,0-4.031,0-.1,0-.139-.016-.139-.132q.007-2.595,0-5.19c0-.121.037-.142.145-.139.262.008.262,0,.262.259,0,1.553,0,3.106,0,4.66,0,.12.036.139.145.139,1.153,0,2.307,0,3.46,0h.154c-.145-.144-.27-.272-.4-.394-.052-.049-.072-.083,0-.135s.141-.2.228-.2.148.124.219.194c.221.22.439.442.662.659.054.053.07.083.005.146-.278.269-.551.545-.823.82-.047.047-.076.065-.127,0-.068-.08-.2-.151-.2-.228s.126-.153.2-.228S719.542,565.249,719.641,565.154Z" transform="translate(-713.651 -554.645)" fill="#fff"/><path d="M748.006,562.829a.654.654,0,0,1,.418-.6.633.633,0,0,1,.711.171c.07.072.144.142.208.22s.093.079.152,0a2.723,2.723,0,0,1,.2-.211.639.639,0,0,1,.912-.069.685.685,0,0,1,.067.963c-.19.219-.4.421-.6.631s-.4.411-.594.619c-.044.047-.068.054-.116,0-.389-.408-.782-.812-1.171-1.219A.678.678,0,0,1,748.006,562.829Z" transform="translate(-743.556 -556.936)" fill="#fff"/><path d="M755.469,519.324c.155.151.282.28.415.4.054.05.053.08,0,.127-.079.068-.147.191-.229.2-.065.007-.146-.122-.217-.193-.224-.223-.444-.448-.671-.668-.057-.056-.053-.084,0-.137q.415-.406.821-.821c.055-.056.086-.059.136,0,.065.077.187.141.2.22s-.121.146-.19.218-.157.149-.263.25h.17c1.292,0,2.584,0,3.876,0,.107,0,.128.028.128.131q-.006,1.995,0,3.99c0,.106-.025.132-.13.129-.277-.008-.277,0-.277-.281,0-1.145,0-2.289,0-3.434,0-.1-.024-.13-.129-.129-1.162,0-2.323,0-3.485,0Z" transform="translate(-749.73 -516.495)" fill="#fff"/></g><path d="M825.182,714.714c-38.964,90.406-141.818,129.237-222.4,122.617-22-1.808-66.275-5.445-100.843-37.895-66.385-62.317-56.161-192.578,7.388-269.268,8.184-9.876,64.831-76.045,153.105-75.159,64.63.648,109.993,36.889,115.509,41.4a177.069,177.069,0,0,1,36.188,40.758C846.67,587.692,849.53,658.219,825.182,714.714Z" transform="translate(-45.766 865)" fill="url(#c)"/><g transform="translate(456.316 1346.781)"><path d="M960.19,778.21H808.376A11.929,11.929,0,0,1,796.5,767.4L786.931,665.89a11.929,11.929,0,0,1,11.649-13.046l161.383-3.073A11.929,11.929,0,0,1,972.119,661.7V766.281A11.929,11.929,0,0,1,960.19,778.21Z" transform="translate(-786.878 -649.769)" fill="#7d97f4"/><path d="M857.7,750.364l6.786,87.777a7.378,7.378,0,0,0,7.278,6.809l145.708,1.526a7.378,7.378,0,0,0,7.455-7.377V744.6a7.377,7.377,0,0,0-7.629-7.373l-152.494,5.2A7.378,7.378,0,0,0,857.7,750.364Z" transform="translate(-847.941 -725.196)" fill="#fff" opacity="0.87"/><path d="M1414.48,811.552l82.167-2.458a1.494,1.494,0,0,1,1.539,1.493v1.323a1.494,1.494,0,0,1-1.473,1.494l-82.167,1.135a1.494,1.494,0,0,1-1.515-1.494h0A1.494,1.494,0,0,1,1414.48,811.552Z" transform="translate(-1326.935 -787.186)" fill="#7d97f4"/><path d="M1.776,0h81.6a1.776,1.776,0,0,1,1.776,1.776v0a1.776,1.776,0,0,1-1.776,1.776H1.776A1.776,1.776,0,0,1,0,1.776v0A1.776,1.776,0,0,1,1.776,0Z" transform="translate(86.096 31.254)" fill="#7d97f4"/><path d="M1262.526,1278.129a.67.67,0,0,1-.67-.668l-.005-2.011a.671.671,0,0,1,.669-.672h0a.67.67,0,0,1,.671.668l.005,2.011a.67.67,0,0,1-.669.672Zm-.017-6.7a.67.67,0,0,1-.67-.669l-.005-2.011a.67.67,0,0,1,.669-.672h0a.67.67,0,0,1,.671.668l.005,2.011a.67.67,0,0,1-.669.672Zm-.017-6.7a.67.67,0,0,1-.67-.668l-.005-2.011a.671.671,0,0,1,.669-.672h0a.671.671,0,0,1,.67.669l.005,2.011a.67.67,0,0,1-.669.672Zm-.017-6.7a.67.67,0,0,1-.67-.668l-.005-2.011a.671.671,0,0,1,.669-.672h0a.67.67,0,0,1,.67.668l.005,2.011a.67.67,0,0,1-.669.672Z" transform="translate(-1196.497 -1171.493)" fill="url(#d)"/><path d="M1507.75,1222.185a.67.67,0,0,1-.671-.67V1219.5a.67.67,0,0,1,1.341,0v2.011A.67.67,0,0,1,1507.75,1222.185Zm0-6.7a.67.67,0,0,1-.671-.67V1212.8a.67.67,0,1,1,1.341,0v2.011A.67.67,0,0,1,1507.75,1215.481Zm0-6.7a.67.67,0,0,1-.671-.671V1206.1a.67.67,0,0,1,1.341,0v2.011A.67.67,0,0,1,1507.75,1208.777Zm0-6.7a.67.67,0,0,1-.671-.67v-2.011a.67.67,0,0,1,1.341,0v2.011A.67.67,0,0,1,1507.75,1202.073Zm0-6.7a.67.67,0,0,1-.671-.67v-2.011a.67.67,0,1,1,1.341,0v2.011A.67.67,0,0,1,1507.75,1195.37Z" transform="translate(-1408.051 -1117.458)" fill="url(#d)"/><path d="M1686.457,1183.577a.67.67,0,0,1-.67-.649l-.037-1.2a.671.671,0,0,1,.649-.692.657.657,0,0,1,.691.649l.037,1.2a.671.671,0,0,1-.649.691Zm-.183-5.891a.671.671,0,0,1-.67-.649l-.062-2.01a.67.67,0,1,1,1.34-.042l.063,2.01a.671.671,0,0,1-.649.691Zm-.208-6.7a.67.67,0,0,1-.67-.65l-.063-2.01a.671.671,0,0,1,.65-.691.689.689,0,0,1,.691.649l.062,2.011a.671.671,0,0,1-.649.691Zm-.208-6.7a.67.67,0,0,1-.67-.649l-.062-2.01a.67.67,0,1,1,1.34-.042l.062,2.01a.671.671,0,0,1-.65.691Zm-.208-6.7a.67.67,0,0,1-.67-.649l-.062-2.011a.67.67,0,1,1,1.34-.042l.063,2.01a.671.671,0,0,1-.649.691Zm-.208-6.7a.67.67,0,0,1-.67-.649l-.063-2.01a.671.671,0,0,1,.649-.691.662.662,0,0,1,.691.649l.063,2.01a.671.671,0,0,1-.649.691Zm-.208-6.7a.67.67,0,0,1-.67-.649l-.063-2.011a.671.671,0,0,1,.649-.691.662.662,0,0,1,.691.649l.063,2.01a.671.671,0,0,1-.649.691Z" transform="translate(-1561.079 -1073.311)" fill="url(#d)"/><path d="M1872.042,1066.98a.67.67,0,0,1-.67-.671V1064.3a.671.671,0,0,1,1.341,0v2.011A.67.67,0,0,1,1872.042,1066.98Zm0-6.7a.67.67,0,0,1-.67-.67v-2.011a.671.671,0,0,1,1.341,0v2.011A.67.67,0,0,1,1872.042,1060.276Zm0-6.7a.67.67,0,0,1-.67-.67v-2.011a.671.671,0,1,1,1.341,0v2.011A.67.67,0,0,1,1872.042,1053.572Zm0-6.7a.67.67,0,0,1-.67-.67v-2.011a.671.671,0,0,1,1.341,0v2.011A.67.67,0,0,1,1872.042,1046.869Zm0-6.7a.67.67,0,0,1-.67-.67v-2.011a.671.671,0,0,1,1.341,0v2.011A.67.67,0,0,1,1872.042,1040.165Zm0-6.7a.67.67,0,0,1-.67-.671v-2.011a.671.671,0,0,1,1.341,0v2.011A.671.671,0,0,1,1872.042,1033.461Zm0-6.7a.67.67,0,0,1-.67-.67v-2.011a.671.671,0,0,1,1.341,0v2.011A.67.67,0,0,1,1872.042,1026.757Zm0-6.7a.67.67,0,0,1-.67-.671v-2.011a.671.671,0,0,1,1.341,0v2.011A.67.67,0,0,1,1872.042,1020.054Zm0-6.7a.67.67,0,0,1-.67-.67v-2.011a.671.671,0,0,1,1.341,0v2.011A.67.67,0,0,1,1872.042,1013.35Z" transform="translate(-1722.254 -960.467)" fill="url(#d)"/><g transform="translate(19.812 29.972)"><path d="M955.556,960.27a1,1,0,0,1-1-.92l-6.872-81.16a1.006,1.006,0,1,1,2-.17l6.872,81.16a1.006,1.006,0,0,1-.917,1.087C955.613,960.269,955.584,960.27,955.556,960.27Z" transform="translate(-945.381 -875.815)" fill="url(#d)"/><path d="M931.21,874.315l3.109-3.687L938,873.74l-.244-2.885-3.685-3.11-3.11,3.685Z" transform="translate(-930.966 -867.745)" fill="url(#d)"/></g><g transform="translate(23.768 106.186)"><path d="M1102.151,1441.526H960.741a1.005,1.005,0,1,1,0-2.011h141.411a1.005,1.005,0,1,1,0,2.011Z" transform="translate(-959.735 -1437.11)" fill="url(#d)"/><g transform="translate(138.41)"><path d="M1966.353,1428.848l3.411-3.41-3.411-3.409h2.895l3.41,3.409-3.41,3.41Z" transform="translate(-1966.353 -1422.029)" fill="url(#d)"/></g></g><g transform="translate(34.866 44.959)"><path d="M1041.45,1019.065a1.006,1.006,0,0,1-.131-2c.743-.1,74.782-10.238,115.313-40.123a1.005,1.005,0,1,1,1.194,1.618c-40.949,30.194-115.493,40.4-116.241,40.5A1.055,1.055,0,0,1,1041.45,1019.065Z" transform="translate(-1040.446 -976.743)" fill="url(#d)"/></g><g transform="translate(144.751 43.938)"><path d="M1846.822,976.7c-.026,0-.053,0-.08,0a1,1,0,0,1-.924-1.081l.311-3.95-5.569-.331a1.006,1.006,0,0,1-.945-1.063,1,1,0,0,1,1.064-.944l6.592.391a1,1,0,0,1,.943,1.082l-.391,4.972A1.006,1.006,0,0,1,1846.822,976.7Z" transform="translate(-1839.614 -969.32)" fill="url(#d)"/></g></g><g transform="translate(426.072 1437.747)"><path d="M567.009,1313.7a1.837,1.837,0,0,1,2.888-1.971c14.3,11.057,49.366,44.914,47.711,110.133-2.077,81.827,17.609,109.72,40.312,125.7,0,0-29.615-5.7-50.615-33.9C555.745,1444.424,576.242,1343.981,567.009,1313.7Z" transform="translate(-566.925 -1311.343)" fill="#7d97f4"/><path d="M657.692,1501.456c2.507,8.846,4.838,17.737,6.841,26.7q3.074,13.427,5.32,27.012c1.459,9.057,2.748,18.139,3.649,27.263.942,9.12,1.491,18.269,2.011,27.458.57,9.18,1.093,18.431,2.564,27.657a93.272,93.272,0,0,0,8.225,26.828c1.045,2.1,2.133,4.194,3.332,6.2,1.163,2.03,2.417,4.009,3.7,5.965a96.708,96.708,0,0,0,30.082,29.11,1.777,1.777,0,0,0,1.928-2.985l-.006,0c-1.889-1.257-3.762-2.534-5.571-3.89-.916-.664-1.8-1.366-2.7-2.052-.87-.719-1.768-1.4-2.615-2.15a93.715,93.715,0,0,1-9.643-9.466,102.725,102.725,0,0,1-15-22.443,89.51,89.51,0,0,1-4.949-12.54,101.465,101.465,0,0,1-3.074-13.186c-1.5-8.948-2.09-18.1-2.726-27.277s-1.363-18.394-2.455-27.567q-.8-6.881-1.848-13.729c-.336-2.284-.716-4.561-1.092-6.838q-.6-3.411-1.236-6.813-2.6-13.6-6.027-27.011c-2.332-8.923-4.9-17.781-7.8-26.525a.477.477,0,0,0-.911.28Z" transform="translate(-645.196 -1474.792)" fill="#fff" style="mix-blend-mode:soft-light;isolation:isolate"/></g><g transform="translate(410.205 1506.241)"><path d="M496.045,1994.352a4.072,4.072,0,0,1-6.6,1.452c-11.562-11-41.441-45.052-37.148-99.975,3.625-46.379,1.183-71.872-.727-83.369a2.554,2.554,0,0,1,4.3-2.249C475.379,1829.143,534.015,1896.675,496.045,1994.352Z" transform="translate(-451.528 -1809.481)" fill="#0a264e"/><path d="M588.891,2319.15a1.131,1.131,0,0,1-1.656-.547c-.255-.659-25.52-66.658-23.393-131.374a1.129,1.129,0,0,1,2.258.075c-2.112,64.244,22.987,129.828,23.241,130.483A1.129,1.129,0,0,1,588.891,2319.15Z" transform="translate(-548.289 -2134.348)" fill="#fff" style="mix-blend-mode:soft-light;isolation:isolate"/></g><g transform="translate(414.254 1466.25)"><rect width="93.125" height="17.738" rx="3.634" transform="translate(22.541 121.617)" fill="#e5ab5b"/><rect width="93.125" height="17.738" rx="3.634" transform="translate(22.614 141.29)" fill="#e5ab5b"/><rect width="93.125" height="17.738" rx="3.634" transform="translate(22.687 160.964)" fill="#e5ab5b"/><rect width="93.125" height="17.738" rx="3.634" transform="translate(22.76 180.637)" fill="#e5ab5b"/><rect width="93.125" height="17.738" rx="3.634" transform="translate(22.833 200.311)" fill="#e5ab5b"/><rect width="93.125" height="17.738" rx="3.634" transform="translate(22.833 219.777)" fill="#e5ab5b"/><g transform="translate(0 0)"><circle cx="47.526" cy="47.526" r="47.526" transform="translate(0 67.212) rotate(-45)" fill="#0a264e"/><circle cx="45.946" cy="45.946" r="45.946" transform="translate(2.235 67.212) rotate(-45)" fill="#e5ab5b"/><path d="M687.635,1716.766a1.043,1.043,0,0,1-.474-.113,1.053,1.053,0,0,1-.466-1.416,43.285,43.285,0,0,1,38.827-23.906,43.848,43.848,0,0,1,7.841.7,1.054,1.054,0,1,1-.378,2.074,41.756,41.756,0,0,0-7.463-.671,41.188,41.188,0,0,0-36.945,22.748A1.053,1.053,0,0,1,687.635,1716.766Z" transform="translate(-658.31 -1667.586)" fill="#fff" opacity="0.7"/><circle cx="38.888" cy="38.888" r="38.888" transform="translate(13.218 68.213) rotate(-45)" fill="#fff" opacity="0.78"/><g transform="translate(51.086 40.691)"><path d="M865.812,1871.007v-4.231a34.5,34.5,0,0,1-11.871-2.574,2.447,2.447,0,0,1-1.352-2.891l1.075-3.941a2.467,2.467,0,0,1,3.349-1.614,28.646,28.646,0,0,0,10.96,2.308c4.248,0,7.416-1.44,7.416-4.393,0-2.664-2.448-4.248-8.352-5.832-8.424-2.3-14.472-5.976-14.472-13.392,0-6.7,4.9-11.808,13.392-13.176v-4.231a2.465,2.465,0,0,1,2.465-2.465h2.486a2.465,2.465,0,0,1,2.465,2.465v3.8a31.458,31.458,0,0,1,9.409,1.69,2.453,2.453,0,0,1,1.533,2.961l-.988,3.645a2.459,2.459,0,0,1-3.245,1.66,25.668,25.668,0,0,0-9.229-1.676c-5.04,0-6.48,2.088-6.48,3.96,0,2.3,3.024,3.888,9.576,5.9,9.36,2.808,13.248,6.7,13.248,13.68,0,6.408-4.752,12.168-13.968,13.608v4.735a2.465,2.465,0,0,1-2.465,2.465h-2.486A2.465,2.465,0,0,1,865.812,1871.007Z" transform="translate(-852.501 -1814.576)" fill="#0a264e"/></g></g></g><g transform="translate(517.268 1486.39)"><rect width="93.125" height="17.738" rx="3.634" transform="translate(24.111 121.15)" fill="#e5ab5b"/><rect width="93.125" height="17.738" rx="3.634" transform="translate(24.184 140.824)" fill="#e5ab5b"/><rect width="93.125" height="17.738" rx="3.634" transform="translate(24.257 160.497)" fill="#e5ab5b"/><rect width="93.125" height="17.738" rx="3.634" transform="translate(24.33 180.171)" fill="#e5ab5b"/><rect width="93.125" height="17.738" rx="3.634" transform="translate(24.33 199.637)" fill="#e5ab5b"/><g transform="translate(0 0)"><circle cx="47.526" cy="47.526" r="47.526" transform="translate(0 67.212) rotate(-45)" fill="#0a264e"/><circle cx="45.946" cy="45.946" r="45.946" transform="translate(2.235 67.212) rotate(-45)" fill="#e5ab5b"/><path d="M1436.822,1863.237a1.054,1.054,0,0,1-.94-1.529,43.284,43.284,0,0,1,38.827-23.906,43.837,43.837,0,0,1,7.841.7,1.054,1.054,0,1,1-.378,2.074,41.733,41.733,0,0,0-7.463-.671,41.187,41.187,0,0,0-36.945,22.748A1.053,1.053,0,0,1,1436.822,1863.237Z" transform="translate(-1407.497 -1814.057)" fill="#fff" opacity="0.7"/><circle cx="38.888" cy="38.888" r="38.888" transform="translate(13.218 68.213) rotate(-45)" fill="#fff" opacity="0.78"/><g transform="translate(51.086 40.691)"><path d="M1615,2017.478v-4.231a34.492,34.492,0,0,1-11.871-2.574,2.447,2.447,0,0,1-1.352-2.891l1.075-3.941a2.467,2.467,0,0,1,3.349-1.614,28.647,28.647,0,0,0,10.961,2.308c4.248,0,7.416-1.44,7.416-4.392,0-2.664-2.448-4.248-8.352-5.832-8.424-2.3-14.472-5.976-14.472-13.392,0-6.7,4.9-11.809,13.392-13.176v-4.231a2.465,2.465,0,0,1,2.465-2.465h2.486a2.465,2.465,0,0,1,2.465,2.465v3.8a31.446,31.446,0,0,1,9.41,1.689,2.453,2.453,0,0,1,1.533,2.961l-.989,3.645a2.458,2.458,0,0,1-3.245,1.66,25.666,25.666,0,0,0-9.229-1.676c-5.04,0-6.48,2.088-6.48,3.96,0,2.3,3.024,3.887,9.576,5.9,9.36,2.808,13.248,6.7,13.248,13.68,0,6.408-4.752,12.168-13.968,13.609v4.735a2.465,2.465,0,0,1-2.465,2.465h-2.486A2.465,2.465,0,0,1,1615,2017.478Z" transform="translate(-1601.688 -1961.047)" fill="#0a264e"/></g></g></g><g transform="translate(518.965 1324.385)"><g transform="translate(0 108.132)"><g transform="translate(23.53)"><path d="M1636.943,1301.168c23.553,3.534,38.9-11.327,50.343-20.342,15.1-11.9,26.855-6.112,26.855-6.112l-13.575,30.364c-24.052,22.678-51.244,18.017-66.791,10.668A29.979,29.979,0,0,1,1636.943,1301.168Z" transform="translate(-1603.484 -1273.306)" fill="#c59d65"/><path d="M1413.985,1373.745l7.811,4.2c9.367,5.7,17.749,8.717,25.292,9.848a29.977,29.977,0,0,0-3.168,14.578,72.1,72.1,0,0,1-16.1-10.293C1410.124,1381.531,1413.985,1373.745,1413.985,1373.745Z" transform="translate(-1413.628 -1359.935)" fill="url(#n)"/></g><path d="M1243.377,1335.4a5.761,5.761,0,0,1,3.368-3.686l15.851-6.374s.239-2.033-3.349-3.414-2.75-5.4-2.75-5.4,4.9,2.236,12.08,5.783a16.8,16.8,0,0,1,7.629,8.306l-4.081,5.366a72.528,72.528,0,0,1-29.625,2.332Z" transform="translate(-1242.5 -1310.579)" fill="url(#o)"/></g><g transform="translate(140.525)"><path d="M2287.682,658.323c3.113.158,4.573-.687,4.967-2.073,1.285-4.469-8.339-14.179-8.675-14.519.362.228,13.064,8.305,25.507-.368,8.357-5.826.846-10.811-5.373-13.523a55.916,55.916,0,0,0,12.577-3.165c16.093-5.59,3.307-12.69-2.544-15.31,3.032.366,8.625-1.395,16.076-14.073,11.8-20.067-7.453-11.565-7.453-11.565s8.7-7.166,6.85-31.472c-1.281-16.91-7.3-8.018-10.553-1.779,3.576-8.164,9.771-25.642,2.745-35.26-6.578-9.008-10.925,4.146-12.347,9.819,1.058-6.137,2.5-20.693-.56-30.777-.011-.024-.015-.048-.026-.073a19.843,19.843,0,0,0-2.862-6c-6.914-9.328-11.952,34.644-16.646,46.138s-23.309,28.006-16.207,44.181c7.511,17.094-8.66,60.445-8.66,60.445C2266.928,652.366,2274.738,657.667,2287.682,658.323Z" transform="translate(-2264.497 -486.894)" fill="#91b3fa"/><path d="M2355.488,680.929c1.285-4.469-8.339-14.179-8.675-14.519.362.228,13.065,8.3,25.507-.368,8.357-5.826.846-10.811-5.373-13.523a55.915,55.915,0,0,0,12.577-3.165c16.093-5.59,3.307-12.69-2.544-15.31,3.032.366,8.625-1.395,16.076-14.073,11.8-20.067-7.453-11.566-7.453-11.566s8.7-7.166,6.85-31.472c-1.281-16.91-7.3-8.018-10.553-1.779,3.577-8.164,9.772-25.642,2.745-35.26-6.578-9.008-10.925,4.146-12.347,9.819,1.058-6.137,2.5-20.693-.56-30.777-.011-.024-.015-.048-.026-.073-3.4-10.223-5.783,5.846-6.321,9.4-1.677,11.1-1.446,23.957-6.129,34.906-2.332,5.467-5.74,10.472-8.319,15.8-2.569,5.3-5.073,11.117-4.979,17.129.11,7.125,4.077,13.3,4.768,20.507.99,10.327-3.369,23.038-6.621,32.639-2.061,6.1-4.247,12.221-6.757,18.078C2337.74,677.108,2346.849,681.256,2355.488,680.929Z" transform="translate(-2327.335 -511.573)" fill="#bdd0fb"/><g transform="translate(24.975 2.846)"><path d="M2466.635,678.132c3.387,1,5.279.621,6.187-.544,2.949-3.758-4.321-15.721-4.581-16.15.328.331,11.5,11.66,27.645,7.268,10.561-2.872,4.735-9.628-.75-14.073a67.645,67.645,0,0,0,14.076,1c17.771-.157,7.964-10.635,3.059-15.035,2.925,1.368,9.142,1.6,21.151-7.629,18.8-14.44-2.817-13.618-2.817-13.618s11.21-3.533,19.083-27.854c5.678-17.53-3.849-11.314-9.613-6.474,6.873-6.648,20.154-21.573,17.383-35.25-2.7-13.33-12.773-1.435-16.639,3.924,3.689-6.061,11.424-21.187,12.691-34.291,0-.034.005-.064.005-.1a29.721,29.721,0,0,0-.318-8.639c-3.15-15.478-27.875,32.1-37.894,42.29s-38.658,18.749-36.371,40.11-32.56,59.284-32.56,59.284C2444.683,666.4,2452.121,673.852,2466.635,678.132Z" transform="translate(-2446.135 -507.596)" fill="#7d97f4"/><path d="M2537.7,717.375c2.949-3.758-4.321-15.721-4.581-16.15.328.331,11.5,11.66,27.645,7.268,10.561-2.872,4.736-9.628-.75-14.073a67.641,67.641,0,0,0,14.076,1c17.771-.157,7.964-10.635,3.059-15.035,2.926,1.368,9.142,1.6,21.151-7.629,18.8-14.44-2.817-13.618-2.817-13.618s11.21-3.533,19.083-27.854c5.677-17.53-3.849-11.314-9.613-6.474,6.873-6.648,20.154-21.572,17.384-35.25-2.7-13.33-12.774-1.435-16.639,3.925,3.689-6.061,11.423-21.187,12.691-34.291,0-.034.006-.064.005-.1,1.012-13.861-8.633,3.078-10.756,6.78-6.581,11.488-11.78,25.828-21.386,35.261-4.794,4.718-10.6,8.39-15.634,12.853-5.021,4.443-10.18,9.484-12.431,15.964-2.641,7.6-.517,15.795-2.487,23.491-2.776,10.848-12.369,21.888-19.553,30.224-4.549,5.287-9.246,10.549-14.226,15.443C2518.98,708.684,2528,715.27,2537.7,717.375Z" transform="translate(-2511.01 -547.383)" fill="#0a264e"/></g></g><path d="M2166.2,3152.471c6.245.54,17.084,1.417,25.629,1.793,5.137.226,8.094-.277,9.8-.959,0,.192-.008.374-.016.542a1.768,1.768,0,0,1-1.679,1.669,300.292,300.292,0,0,1-33.558.034,1.258,1.258,0,0,1-1.025-1.89A10.288,10.288,0,0,1,2166.2,3152.471Z" transform="translate(-2038.3 -2785.954)" fill="url(#p)"/><path d="M2198.282,3075.162c-8.545-.376-19.384-1.253-25.629-1.792,6.14-7.534,25.629-12.611,25.629-12.611h5.5a23.085,23.085,0,0,1,4.293,13.445C2206.375,3074.885,2203.418,3075.389,2198.282,3075.162Z" transform="translate(-2044.756 -2706.852)" fill="url(#q)"/><path d="M2341.4,2995.408l-.515,10.193a2.328,2.328,0,0,1-1.988,2.189,9.054,9.054,0,0,1-4.135-.343,2.754,2.754,0,0,1-1.852-2.117l-1.78-9.922Z" transform="translate(-2181.447 -2650.487)" fill="url(#r)"/><g transform="translate(207.781 348.06)"><path d="M2811.323,3211.324a5.372,5.372,0,0,0,4.447-4.25c0,.017.007.035.01.052a4.845,4.845,0,0,1-2.372,5.186,12.349,12.349,0,0,1-6.568,1.329,6.072,6.072,0,0,1-4.924-2.935l-.015-.026C2803.942,3211.985,2806.806,3212.139,2811.323,3211.324Z" transform="translate(-2795.265 -3181.109)" fill="url(#s)"/><path d="M2756.923,3018.24h4.539c6.914-.183,11.256,18.665,12.677,25.964a5.373,5.373,0,0,1-4.448,4.25c-4.517.814-7.381.66-9.421-.644-3.735-6.353-5.587-15.657-6.478-21.087C2752.781,3020.546,2756.923,3018.24,2756.923,3018.24Z" transform="translate(-2753.634 -3018.239)" fill="url(#t)"/></g><path d="M2745.667,2949.442l2.521,10.025a2.721,2.721,0,0,1-1.416,3.083,9.663,9.663,0,0,1-5.22,1.264,2.273,2.273,0,0,1-1.854-1.516l-3.7-10.547Z" transform="translate(-2530.642 -2610.842)" fill="url(#u)"/><path d="M2161.471,1971.34s22.525,140.8,22.154,141.574a18.737,18.737,0,0,0,13,.36s-2.037-75.267-6.81-104.127c0,0,38.442,67.275,50.65,100.8a30.515,30.515,0,0,0,11.638-4.228s-41.392-121.091-52.435-137.219Z" transform="translate(-2035.112 -1764.775)" fill="url(#v)"/><path d="M2263.75,2157.055a.906.906,0,0,1-.769-.425l-8.212-13.116-5.812-1.169a.905.905,0,0,1,.357-1.775l6.193,1.247a.907.907,0,0,1,.59.407l8.418,13.445a.905.905,0,0,1-.766,1.386Z" transform="translate(-2109.942 -1913.175)" opacity="0.49" fill="url(#w)"/><path d="M2096.354,1272.117c8.788-.515,37.747-1.455,61.71,6.462,5.043,1.666,8.563,8.348,10.668,13.178,6.482,14.876-8.949,20.881-20.869,16.8-6.071,16.393-8.919,40.313-9.514,50.9a22.749,22.749,0,0,0,1.783,10.182l.149.351a1.205,1.205,0,0,1-.846,1.645c-16.4,3.684-33.46,2.683-38.557,2.262a2.1,2.1,0,0,1-1.875-1.606c-7.975-33.606-7.994-56.53-6.041-71.021C2085.5,1302.936,2094.744,1272.212,2096.354,1272.117Z" transform="translate(-1973.546 -1163.865)" fill="#b47e33"/><path d="M2105.07,1353.607a1.01,1.01,0,0,1-.121-.007.9.9,0,0,1-.777-1.016c1.922-14.535,5.792-20.762,5.956-21.019a.905.905,0,0,1,1.529.969c-.038.06-3.827,6.207-5.692,20.287A.9.9,0,0,1,2105.07,1353.607Z" transform="translate(-1985.685 -1215.061)" fill="url(#x)"/><path d="M2302.7,1131.806s1.659,17.544,3.12,22.733a1.774,1.774,0,0,1-.836,2.026c-2.479,1.417-8.426,3.728-16.561-.259a3.691,3.691,0,0,1-2.049-3.473l.717-16.953Z" transform="translate(-2142.837 -1043.13)" fill="url(#y)"/><g transform="translate(137.018 52.924)"><path d="M2251.377,968.578s-5.307,12.191-5.663,18.59-1.735,10.551,5.663,11.839,13.632-2.4,17.008-8.771c0,0,5.291-9.822,4.1-13.844S2251.377,968.578,2251.377,968.578Z" transform="translate(-2244.501 -955.27)" fill="url(#z)"/><path d="M2260.352,902.177l-.421-.186a1.015,1.015,0,0,1-.5-1.4c1.043-2.016,3.077-6.635.45-7.713-3.386-1.389-16.8-4.124-19.693-8.883-2.781-4.574-.317-10.479,3.387-12.158a.51.51,0,0,1,.667.217l.308.584a.5.5,0,0,0,.927-.1.5.5,0,0,1,.906-.13c.89,1.424,3.291,3.732,9.714,4.918,9.127,1.685,15.162,5.378,15.312,11.685a.5.5,0,0,0,.778.415c.674-.411,1.752-.6,3.194.609,2.507,2.108,1.481,7.575-4.014,12.073a.5.5,0,0,0,.023.805c1,.648,2.481,2.192-1.366,4.248-3.98,2.128-6.952,1.953-8.1,1.764a.5.5,0,0,1-.406-.6l1.222-5.543a.5.5,0,0,0-.491-.611Z" transform="translate(-2238.996 -871.794)" fill="url(#aa)"/><path d="M2392.639,1063.694s2.025-7.788,5.516-5.6-1.812,8.726-4.619,9.017Z" transform="translate(-2371.512 -1032.141)" fill="url(#ab)"/></g><g transform="translate(160.198 227.408)"><path d="M2416.46,2379.344l.741,23.067a7.505,7.505,0,0,0,7.474,7.247l55.238.326a5.415,5.415,0,0,0,5.4-4.609c.864-5.825,1.965-16.248.725-26.031Z" transform="translate(-2415.238 -2346.54)" fill="url(#ac)"/><path d="M2534.194,2239.549l.167-1.779a1.366,1.366,0,0,1,1.037-.8c1.721-.274,5.989-.755,8.044.78l.307,2.068Z" transform="translate(-2516.783 -2223.491)" fill="url(#ad)"/><path d="M2560.673,2203.622a2.469,2.469,0,0,1-1.191,0,1.075,1.075,0,0,1-.82-1.042v-5.571h2.834v5.566A1.08,1.08,0,0,1,2560.673,2203.622Z" transform="translate(-2537.887 -2189.275)" fill="url(#ae)"/><path d="M2733.888,2239.549l.166-1.779a1.368,1.368,0,0,1,1.038-.8c1.721-.274,5.989-.755,8.044.78l.307,2.068Z" transform="translate(-2689.02 -2223.491)" fill="url(#af)"/><path d="M2760.367,2199.941a2.472,2.472,0,0,1-1.191,0,1.076,1.076,0,0,1-.82-1.042v-6.157h2.835v6.153A1.08,1.08,0,0,1,2760.367,2199.941Z" transform="translate(-2710.123 -2185.594)" fill="url(#ag)"/><path d="M2547.327,2149.867l30.488-1.009a1.469,1.469,0,0,0,1.4-1.207,12.438,12.438,0,0,0,.1-3.864,3.517,3.517,0,0,0-3.409-2.976c-5.688-.135-20.167-.131-28.146,3.025a2.788,2.788,0,0,0-1.684,1.934,6.757,6.757,0,0,0-.073,3.1A1.313,1.313,0,0,0,2547.327,2149.867Z" transform="translate(-2526.84 -2140.769)" fill="url(#ah)"/><path d="M2551.741,2160.3a.134.134,0,0,1-.133-.12,7.157,7.157,0,0,1,.183-2.3,2.54,2.54,0,0,1,1.731-1.759,33.513,33.513,0,0,1,7.6-1.42.134.134,0,1,1,.008.268,33.231,33.231,0,0,0-7.528,1.409,2.271,2.271,0,0,0-1.548,1.572,7.013,7.013,0,0,0-.175,2.2.134.134,0,0,1-.12.147Z" transform="translate(-2531.782 -2152.79)" fill="#91b3fa"/><path d="M2410.839,2251.506c9.85-.125,52.458-.573,64.835.92a2.519,2.519,0,0,1,2.166,1.951,83.212,83.212,0,0,1,2.028,18.6,2.206,2.206,0,0,1-1.807,2.1l-28.252,5.345h-10.036l-30.1-5.983a2.355,2.355,0,0,1-1.9-2.186c-.2-3.83-.5-12.818.535-18.6A2.605,2.605,0,0,1,2410.839,2251.506Z" transform="translate(-2407.574 -2236.14)" fill="url(#ai)"/><path d="M2632.075,2412.01h-8.792a2.272,2.272,0,0,1-2.259-2l-1.016-8.46a2.269,2.269,0,0,1,2.259-2.533h10.562a2.269,2.269,0,0,1,2.266,2.464l-.754,8.46A2.272,2.272,0,0,1,2632.075,2412.01Z" transform="translate(-2590.784 -2363.511)" fill="url(#aj)"/><path d="M2638.576,2417.2h-7.459a1.927,1.927,0,0,1-1.917-1.693l-.862-7.177a1.924,1.924,0,0,1,1.917-2.149h8.96a1.924,1.924,0,0,1,1.922,2.091l-.64,7.177A1.926,1.926,0,0,1,2638.576,2417.2Z" transform="translate(-2597.971 -2369.689)" fill="#7d97f4"/></g><g transform="translate(170.408 114.926)"><path d="M2602.812,1613.474s8.873,40.029.835,62.533c9.854,4.569,8.033,3.707,8.033,3.707s19.493-56.955,13.2-72.156C2612.473,1606.242,2606.318,1609.576,2602.812,1613.474Z" transform="translate(-2586.177 -1568.141)" fill="url(#ak)"/><path d="M2579.441,2100.3s-5.077,6.572-4.671,9.189.5,3.684.5,3.684,2.552-1.745,2.391-3.975c-.355,7.077,1.482,6.443,3.636,6.055s9.1-1.983,6.576-12.938C2582.156,2098.34,2580.553,2098.772,2579.441,2100.3Z" transform="translate(-2561.97 -1992.434)" fill="url(#al)"/><path d="M2481.828,1352.63l14.637-29.909s39.613,23.864,20.364,80.659c-5.25-3.659-7.955-2.7-14.478-.318C2500.76,1344.357,2481.828,1352.63,2481.828,1352.63Z" transform="translate(-2481.828 -1322.721)" fill="#c59d65"/></g></g></g></svg>