<svg xmlns="http://www.w3.org/2000/svg" xmlns:xlink="http://www.w3.org/1999/xlink" width="935.882" height="648.361" viewBox="0 0 935.882 648.361">
  <defs>
    <clipPath id="clip-path">
      <rect id="Rectangle_231" data-name="Rectangle 231" width="935.882" height="443.599" fill="none"/>
    </clipPath>
    <clipPath id="clip-path-2">
      <rect id="Rectangle_232" data-name="Rectangle 232" width="935.882" height="363.828" fill="none"/>
    </clipPath>
    <clipPath id="clip-path-3">
      <rect id="Rectangle_233" data-name="Rectangle 233" width="279.636" height="323.064" fill="none"/>
    </clipPath>
    <clipPath id="clip-path-4">
      <rect id="Rectangle_234" data-name="Rectangle 234" width="279.635" height="323.064" fill="none"/>
    </clipPath>
    <clipPath id="clip-path-5">
      <rect id="Rectangle_235" data-name="Rectangle 235" width="806.992" height="154.313" fill="none"/>
    </clipPath>
    <clipPath id="clip-path-6">
      <rect id="Rectangle_236" data-name="Rectangle 236" width="63.156" height="66.017" fill="none"/>
    </clipPath>
    <clipPath id="clip-path-7">
      <rect id="Rectangle_237" data-name="Rectangle 237" width="139.109" height="423.688" fill="none"/>
    </clipPath>
    <clipPath id="clip-path-8">
      <rect id="Rectangle_238" data-name="Rectangle 238" width="66.449" height="66.449" fill="none"/>
    </clipPath>
    <clipPath id="clip-path-9">
      <rect id="Rectangle_239" data-name="Rectangle 239" width="66.333" height="66.449" fill="none"/>
    </clipPath>
    <clipPath id="clip-path-10">
      <rect id="Rectangle_240" data-name="Rectangle 240" width="56.242" height="48.729" fill="none"/>
    </clipPath>
    <clipPath id="clip-path-11">
      <rect id="Rectangle_241" data-name="Rectangle 241" width="43.98" height="53.283" fill="none"/>
    </clipPath>
    <clipPath id="clip-path-12">
      <rect id="Rectangle_242" data-name="Rectangle 242" width="10.93" height="21.86" fill="none"/>
    </clipPath>
    <clipPath id="clip-path-13">
      <rect id="Rectangle_243" data-name="Rectangle 243" width="3.084" height="10.931" fill="none"/>
    </clipPath>
    <clipPath id="clip-path-14">
      <rect id="Rectangle_244" data-name="Rectangle 244" width="16.192" height="22.006" fill="none"/>
    </clipPath>
    <clipPath id="clip-path-15">
      <rect id="Rectangle_246" data-name="Rectangle 246" width="45.81" height="39.043" fill="none"/>
    </clipPath>
    <clipPath id="clip-path-16">
      <rect id="Rectangle_251" data-name="Rectangle 251" width="45.718" height="34.28" fill="none"/>
    </clipPath>
    <clipPath id="clip-path-17">
      <rect id="Rectangle_252" data-name="Rectangle 252" width="40.202" height="43.004" fill="none"/>
    </clipPath>
    <clipPath id="clip-path-18">
      <path id="Path_12205" data-name="Path 12205" d="M543.9,233.191c-1.768.22-4.881,4.927-7.539,9.077a30.659,30.659,0,0,0-4.792,15.06L525.037,356.3l69.309,4.423s10.581-87.315,8.98-108.37S576.3,228.7,576.3,228.7l-3.888-2.839Z" transform="translate(-525.037 -225.861)" fill="none"/>
    </clipPath>
    <clipPath id="clip-path-19">
      <rect id="Rectangle_254" data-name="Rectangle 254" width="935.882" height="648.361" fill="none"/>
    </clipPath>
    <clipPath id="clip-path-20">
      <path id="Path_12220" data-name="Path 12220" d="M565.924,244.5,551.339,282.4l38.948,18.7c5.286-8.741,5.62-65.343-7.949-70.411a12.5,12.5,0,0,0-4.382-.866c-9.818,0-12.032,14.667-12.032,14.667" transform="translate(-551.339 -229.83)" fill="none"/>
    </clipPath>
  </defs>
  <g id="Group_562" data-name="Group 562" transform="translate(-927.684 -3059.874)">
    <g id="Group_561" data-name="Group 561">
      <path id="Path_12012" data-name="Path 12012" d="M181.847,105.471a16.16,16.16,0,0,1,21.089-21.756c-.186-13.232,9.328-24.693,19.958-32.575,5.488-4.069,11.645-7.632,18.435-8.391,8.946-1,17.883,3.088,24.558,9.128s11.419,13.881,15.8,21.746a10.765,10.765,0,0,1,19.237,9.519c10.6-1.76,21.7,7.234,22.168,17.973" transform="translate(994.321 3075.614)" fill="#fff"/>
      <path id="Path_12015" data-name="Path 12015" d="M594.753,157.163a10.7,10.7,0,0,0-13.963-14.406c.123-8.761-6.176-16.35-13.216-21.568-3.633-2.7-7.71-5.053-12.2-5.556-5.923-.663-11.842,2.045-16.261,6.044s-7.561,9.192-10.46,14.4a7.127,7.127,0,0,0-12.736,6.3c-7.021-1.164-14.367,4.79-14.68,11.9" transform="translate(1112.886 3116.194)" fill="#fff"/>
      <path id="Path_12016" data-name="Path 12016" d="M499.2,179.3a6.376,6.376,0,1,0-6.376,6.376A6.376,6.376,0,0,0,499.2,179.3" transform="translate(1107.423 3143.167)" fill="#fff"/>
      <path id="Path_12017" data-name="Path 12017" d="M239.989,137.816a5.465,5.465,0,1,0-5.464,5.466,5.464,5.464,0,0,0,5.464-5.466" transform="translate(1012.32 3123.58)" fill="#fff"/>
      <path id="Path_12018" data-name="Path 12018" d="M269.078,94.831a6.376,6.376,0,1,0-6.376,6.376,6.376,6.376,0,0,0,6.376-6.376" transform="translate(1022.396 3102.481)" fill="#fff"/>
      <path id="Path_12019" data-name="Path 12019" d="M248,85.621a1.821,1.821,0,1,0-1.821,1.821A1.821,1.821,0,0,0,248,85.621" transform="translate(1017.972 3090.838)" fill="#fff"/>
      <path id="Path_12020" data-name="Path 12020" d="M398.452,99a4.554,4.554,0,1,0-4.554,4.554A4.553,4.553,0,0,0,398.452,99" transform="translate(1071.544 3105.3)" fill="#fff"/>
      <path id="Path_12021" data-name="Path 12021" d="M612.926,347.563a6.376,6.376,0,1,0-6.376,6.376,6.376,6.376,0,0,0,6.376-6.376" transform="translate(1149.445 3224.218)" fill="#fff"/>
      <g id="Group_499" data-name="Group 499" transform="translate(927.684 3254.643)" opacity="0.68">
        <g id="Group_498" data-name="Group 498">
          <g id="Group_497" data-name="Group 497" clip-path="url(#clip-path)">
            <path id="Path_12024" data-name="Path 12024" d="M0,496.6c7.8-12.6,24.244-19.14,38.565-15.327-6.737-26.216-1.213-54.018,6.967-79.821,6.071-19.15,13.888-38.31,27.547-53.042,21.022-22.673,53.827-31.891,84.651-29.476s59.961,15.24,86.529,31.055c17.635-68.53,37.405-140.821,88.5-189.772C397.912,97.8,506.4,90.532,583.4,137.555S703.2,278.906,695.667,368.813c28.24-2.814,58.464,1.457,80.98,18.732S811.3,437.254,799.353,463c58.731-13.461,124.336,28.672,136.529,87.678" transform="translate(0 -107.078)" fill="#a5cdf2"/>
          </g>
        </g>
      </g>
      <g id="Group_502" data-name="Group 502" transform="translate(927.684 3334.736)" opacity="0.24" style="mix-blend-mode: screen;isolation: isolate">
        <g id="Group_501" data-name="Group 501">
          <g id="Group_500" data-name="Group 500" clip-path="url(#clip-path-2)">
            <path id="Path_12025" data-name="Path 12025" d="M0,485.037c7.8-10.337,24.244-15.7,38.565-12.571-6.737-21.5-1.213-44.3,6.967-65.467,6.071-15.707,13.888-31.422,27.547-43.5,21.022-18.6,53.827-26.157,84.651-24.176s59.961,12.5,86.529,25.47c17.635-56.207,37.405-115.5,88.5-155.647,65.151-51.19,173.634-57.152,250.634-18.585S703.2,306.49,695.667,380.229c28.24-2.308,58.464,1.2,80.98,15.364s34.651,40.77,22.706,61.885c58.731-11.039,124.336,23.516,136.529,71.912" transform="translate(0 -165.562)" fill="#a5cdf2"/>
          </g>
        </g>
      </g>
      <g id="Group_505" data-name="Group 505" transform="translate(1062.606 3376.694)" opacity="0.28">
        <g id="Group_504" data-name="Group 504">
          <g id="Group_503" data-name="Group 503" clip-path="url(#clip-path-3)">
            <path id="Path_12026" data-name="Path 12026" d="M275.275,323.834Q267.2,340.05,258.69,356.047q-9.659,18.129-19.911,35.96a546.488,546.488,0,0,1,22.975,78.887l64.577-.148a1420.225,1420.225,0,0,0-51.056-146.913" transform="translate(-46.695 -149.038)" fill="#4f6aff"/>
            <path id="Path_12027" data-name="Path 12027" d="M233.144,377.156q3.014,7.2,5.824,14.489,18.959-33.067,35.823-67.272a1.979,1.979,0,0,1,.563-.708q-2.594-6.167-5.286-12.346-19.486,32.13-36.739,65.54a2.231,2.231,0,0,1-.185.3" transform="translate(-48.777 -153.663)" fill="#4f6aff"/>
            <path id="Path_12028" data-name="Path 12028" d="M205.132,422.49c6.465,11.742,13.009,23.466,18.235,35.827,4.575,10.823,8.576,22.6,8.443,34.5q10.627-14.762,20.582-29.992,15.129-23.118,28.952-47.06A553.827,553.827,0,0,0,230.2,313.919a547.055,547.055,0,0,0-40.534-55.46,2.09,2.09,0,0,1-.212.044q-14.8,1.543-29.5,3.924-11.561,1.882-23.025,4.293a67.817,67.817,0,0,0,8.754,18.735c26.435,38.638-9.925,24.281-30.5,34.57a25.4,25.4,0,0,0-3.893,2.447c15.421,6.1,28.376,16.624,40.117,28.135,21.57,21.148,39.181,45.473,53.724,71.883" transform="translate(-93.801 -173.194)" fill="#4f6aff"/>
            <path id="Path_12029" data-name="Path 12029" d="M257.221,398.556q-3.486-10.867-7.427-21.579c-14.877,25.538-30.785,50.48-48.06,74.45l69.506-.157a540.712,540.712,0,0,0-14.02-52.713" transform="translate(-60.383 -129.402)" fill="#4f6aff"/>
            <path id="Path_12030" data-name="Path 12030" d="M180.6,268.85a539.035,539.035,0,0,0-46.8-48.694c-7.088,17.139-8.421,38.323-3.862,56.741q25.115-5.245,50.666-8.047" transform="translate(-87.893 -187.347)" fill="#4f6aff"/>
            <path id="Path_12031" data-name="Path 12031" d="M155.19,198.476c-.668,5.9,4.547,12.1,10.778,11.181,5.652-.837,9.336-7.251,7.769-12.576a2.218,2.218,0,0,1-.09-.529,47.179,47.179,0,0,0-18.476,1.339,2.1,2.1,0,0,1,.019.585" transform="translate(-77.602 -196.199)" fill="#4f6aff"/>
            <path id="Path_12032" data-name="Path 12032" d="M221.825,436.406c-5.336-11.554-11.624-22.643-17.762-33.783a290.476,290.476,0,0,0-24.32-37.123,285.636,285.636,0,0,0-29.366-32.609c-10.52-10-22.191-19.17-35.829-24.487a2.094,2.094,0,0,1-1.317-1.489c-14.476,13.535-26.813,46.311,6.672,74.509,38.635,32.535,30.5,36.6,24.4,61s3.543,35.093,3.543,35.093l84.462-.193c.842-14.172-4.648-28.284-10.485-40.923" transform="translate(-98.52 -155.29)" fill="#4f6aff"/>
            <path id="Path_12033" data-name="Path 12033" d="M133.412,224.815a540.137,540.137,0,0,1,55.111,58.372,556.642,556.642,0,0,1,75.166,121.651q2.177,4.819,4.26,9.68,16.75-32.243,35.607-63.327a1.916,1.916,0,0,1,1.921-.968c-32.138-72.95-74.364-144.091-119.409-153.26,1.367,7.373-3.889,15.393-11.5,16.487-8.177,1.175-15.872-6.318-15.526-14.4-11.439,4.623-20.025,14.009-25.707,25.708.025.021.049.038.073.06" transform="translate(-85.655 -195.917)" fill="#4f6aff"/>
            <path id="Path_12034" data-name="Path 12034" d="M246.786,454.45s-28.966-43.831-60.193-82.841q-13.2,15.838-25.5,32.4a1.412,1.412,0,0,1-.115.137q19.616,22.964,36.989,47.727a1.078,1.078,0,0,1-.1,1.457Z" transform="translate(-75.441 -131.386)" fill="#fff"/>
            <path id="Path_12035" data-name="Path 12035" d="M161.4,407.23q12.381-16.652,25.677-32.594c-4.674-5.8-9.388-11.468-14.052-16.85-7.319,13.5-14.014,27.367-17.877,42.289q3.155,3.552,6.253,7.156" transform="translate(-77.596 -136.493)" fill="#fff"/>
            <path id="Path_12036" data-name="Path 12036" d="M218.679,455.377q-7.229-10.3-14.86-20.319-2.235-2.929-4.507-5.829a1.453,1.453,0,0,1-.3.03c-20.058-.031-40.289-.377-60.073,3.443-1.653.319-2.354-2.212-.7-2.531,19.451-3.755,39.3-3.581,59.028-3.54A628.434,628.434,0,0,0,151.23,374.6a5.753,5.753,0,0,1-2.9,4.523c-15.5,9.043-16.793-23.253-43.921-10.334s52.964,85.259,52.964,85.259l61.371,1.411a1.052,1.052,0,0,1-.066-.084" transform="translate(-98.417 -133.57)" fill="#fff"/>
            <path id="Path_12037" data-name="Path 12037" d="M155.639,398.689q4.63,4.941,9.147,9.984c4.054-14.8,10.811-28.6,18.135-42.059-20.373-23.233-39.577-40.515-50.136-38.22-24.276,5.277,5.777,39.012,9.13,56.111q6.97,6.986,13.724,14.184" transform="translate(-89.33 -147.429)" fill="#fff"/>
          </g>
        </g>
      </g>
      <g id="Group_508" data-name="Group 508" transform="translate(1423.295 3376.694)" opacity="0.28">
        <g id="Group_507" data-name="Group 507">
          <g id="Group_506" data-name="Group 506" clip-path="url(#clip-path-4)">
            <path id="Path_12038" data-name="Path 12038" d="M412.949,323.834q8.077,16.216,16.585,32.213,9.659,18.129,19.911,35.96a546.476,546.476,0,0,0-22.975,78.887l-64.577-.148a1420.219,1420.219,0,0,1,51.056-146.913" transform="translate(-361.893 -149.038)" fill="#4f6aff"/>
            <path id="Path_12039" data-name="Path 12039" d="M442.847,377.156q-3.014,7.2-5.825,14.489-18.959-33.067-35.823-67.272a1.977,1.977,0,0,0-.563-.708q2.595-6.167,5.286-12.346,19.487,32.13,36.739,65.54a2.234,2.234,0,0,0,.185.3" transform="translate(-347.578 -153.663)" fill="#4f6aff"/>
            <path id="Path_12040" data-name="Path 12040" d="M505.351,422.49c-6.465,11.742-13.009,23.466-18.235,35.827-4.576,10.823-8.576,22.6-8.443,34.5q-10.627-14.762-20.582-29.992-15.129-23.118-28.953-47.06a553.825,553.825,0,0,1,51.142-101.843,547.054,547.054,0,0,1,40.534-55.46,2.088,2.088,0,0,0,.212.044q14.8,1.543,29.5,3.924,11.561,1.882,23.025,4.293a67.818,67.818,0,0,1-8.754,18.735c-26.435,38.638,9.925,24.281,30.5,34.57a25.405,25.405,0,0,1,3.893,2.447c-15.42,6.1-28.376,16.624-40.117,28.135-21.57,21.148-39.181,45.473-53.724,71.883" transform="translate(-337.046 -173.194)" fill="#4f6aff"/>
            <path id="Path_12041" data-name="Path 12041" d="M426.133,398.556q3.486-10.867,7.427-21.579c14.877,25.538,30.785,50.48,48.06,74.45l-69.506-.157a540.711,540.711,0,0,1,14.019-52.713" transform="translate(-343.337 -129.402)" fill="#4f6aff"/>
            <path id="Path_12042" data-name="Path 12042" d="M498.388,268.85a539.224,539.224,0,0,1,46.8-48.694c7.088,17.139,8.421,38.323,3.862,56.741q-25.115-5.245-50.666-8.047" transform="translate(-311.459 -187.347)" fill="#4f6aff"/>
            <path id="Path_12043" data-name="Path 12043" d="M514.53,198.476c.668,5.9-4.547,12.1-10.778,11.181-5.652-.837-9.336-7.251-7.769-12.576a2.219,2.219,0,0,0,.09-.529,47.179,47.179,0,0,1,18.476,1.339,2.1,2.1,0,0,0-.019.585" transform="translate(-312.481 -196.199)" fill="#4f6aff"/>
            <path id="Path_12044" data-name="Path 12044" d="M478.9,436.406c5.336-11.554,11.624-22.643,17.762-33.783A290.467,290.467,0,0,1,520.978,365.5a285.639,285.639,0,0,1,29.366-32.609c10.52-10,22.191-19.17,35.829-24.487a2.094,2.094,0,0,0,1.317-1.489c14.476,13.535,26.813,46.311-6.672,74.509-38.635,32.535-30.5,36.6-24.4,61s-3.543,35.093-3.543,35.093l-84.462-.193c-.842-14.172,4.648-28.284,10.485-40.923" transform="translate(-322.567 -155.29)" fill="#4f6aff"/>
            <path id="Path_12045" data-name="Path 12045" d="M577.633,224.815a540.137,540.137,0,0,0-55.111,58.372,556.64,556.64,0,0,0-75.166,121.651q-2.177,4.819-4.26,9.68-16.75-32.243-35.607-63.327a1.916,1.916,0,0,0-1.921-.968c32.138-72.95,74.364-144.091,119.409-153.26-1.367,7.373,3.889,15.393,11.5,16.487,8.179,1.175,15.874-6.318,15.527-14.4,11.439,4.623,20.025,14.009,25.707,25.708-.025.021-.049.038-.073.06" transform="translate(-345.756 -195.917)" fill="#4f6aff"/>
            <path id="Path_12046" data-name="Path 12046" d="M440.966,454.45s28.966-43.831,60.193-82.841q13.2,15.838,25.5,32.4a1.409,1.409,0,0,0,.115.137q-19.616,22.964-36.989,47.727a1.078,1.078,0,0,0,.1,1.457Z" transform="translate(-332.676 -131.386)" fill="#fff"/>
            <path id="Path_12047" data-name="Path 12047" d="M511.816,407.23q-12.381-16.652-25.677-32.594c4.674-5.8,9.388-11.468,14.052-16.85,7.319,13.5,14.014,27.367,17.877,42.289q-3.155,3.552-6.253,7.156" transform="translate(-315.985 -136.493)" fill="#fff"/>
            <path id="Path_12048" data-name="Path 12048" d="M478.285,455.377q7.229-10.3,14.86-20.319,2.235-2.929,4.507-5.829a1.454,1.454,0,0,0,.3.03c20.058-.031,40.289-.377,60.073,3.443,1.653.319,2.354-2.212.7-2.531-19.451-3.755-39.3-3.581-59.028-3.54a628.691,628.691,0,0,1,46.044-52.03,5.752,5.752,0,0,0,2.9,4.523c15.5,9.043,16.793-23.253,43.921-10.334S539.59,454.05,539.59,454.05l-61.371,1.411a1.038,1.038,0,0,0,.066-.084" transform="translate(-318.911 -133.57)" fill="#fff"/>
            <path id="Path_12049" data-name="Path 12049" d="M538.747,384.505c3.354-17.1,33.406-50.834,9.13-56.111-10.559-2.3-29.763,14.986-50.136,38.22,7.324,13.454,14.081,27.257,18.135,42.059q4.521-5.039,9.147-9.984,6.748-7.2,13.724-14.184" transform="translate(-311.697 -147.429)" fill="#fff"/>
          </g>
        </g>
      </g>
      <g id="Group_511" data-name="Group 511" transform="translate(989.291 3545.724)" opacity="0.61">
        <g id="Group_510" data-name="Group 510">
          <g id="Group_509" data-name="Group 509" clip-path="url(#clip-path-5)">
            <path id="Path_12050" data-name="Path 12050" d="M44.985,493.4c3.877-23.878,32.954-47.661,52.545-42.065,5.661-27.174,36.272-41.272,55.456-25.539,6.254-28.9,14.028-60.434,34.75-76.706,23.6-18.533,56.492-9.466,78.267,12.088s34.981,52.925,47.575,83.353c1.986-7.67,10.956-9.645,16.745-5.693s9.047,11.593,11.872,18.869c31.589-18.947,54.068-58.466,57.4-100.9l58.728-15.025c5.637,29.269,12.072,60.287,30.044,81.05s51.538,24.527,65.485-.349c3.09-5.511,5.344-12.368,10.323-15.217,9.782-5.6,19.165,8.269,23.98,19.988,8.679-20.519,36.021-23.878,47.935-5.887,9.864-40.835,46.06-69.756,81.006-64.724s64.509,43.423,66.16,85.917c23.12-10.744,61.86,19.874,68.727,48.642" transform="translate(-44.985 -339.089)" fill="#fff"/>
          </g>
        </g>
      </g>
      <g id="Group_514" data-name="Group 514" transform="translate(1343.55 3561.22)" opacity="0.79">
        <g id="Group_513" data-name="Group 513">
          <g id="Group_512" data-name="Group 512" clip-path="url(#clip-path-6)">
            <path id="Path_12051" data-name="Path 12051" d="M307.881,360.839a46.742,46.742,0,0,0-3.87,15.352,5.289,5.289,0,0,0,.2,2.377c.7,1.749,3.04,2.331,4.823,1.721a11.25,11.25,0,0,0,4.393-3.458,67.7,67.7,0,0,0,23.21,47.232,2.552,2.552,0,0,0,4.24-.038,62.9,62.9,0,0,0,18.313-49.31c3.187,2.075,7.612-1.412,7.908-5.2s-1.988-7.246-4.174-10.359" transform="translate(-303.968 -359.155)" fill="#fff"/>
          </g>
        </g>
      </g>
      <path id="Path_12052" data-name="Path 12052" d="M385.811,345.387V316.562H302.188v28.614c-10.955,7.11-16.265,19.533-16.265,33.566H402.077c0-14.033-5.311-26.245-16.266-33.355" transform="translate(1033.965 3184.289)" fill="#18004c"/>
      <path id="Path_12053" data-name="Path 12053" d="M322.273,323.454c18.309,7.483,56.359,21.827,56.359,21.827V316.563H305.354c5.586,2.414,11.3,4.593,16.919,6.891" transform="translate(1041.145 3182.019)" fill="#0a0a0a"/>
      <path id="Path_12054" data-name="Path 12054" d="M387.2,238.127l31.618,37a41.894,41.894,0,0,1,9.7,32.567l-8.6,66.83a8.3,8.3,0,0,1-16.523-1.5L405,342.863a37.505,37.505,0,0,0-29.889-38.732Z" transform="translate(1066.285 3182.234)" fill="#ff3040"/>
      <path id="Path_12055" data-name="Path 12055" d="M285.4,238.127l-31.618,37a41.9,41.9,0,0,0-9.7,32.567l8.6,66.83a8.3,8.3,0,0,0,16.523-1.5L267.6,342.863a37.505,37.505,0,0,1,29.889-38.732Z" transform="translate(1017.743 3182.234)" fill="#ff3040"/>
      <path id="Path_12056" data-name="Path 12056" d="M407.407,261.778,387.2,238.127l-12.086,66a37.448,37.448,0,0,1,10.019,3.621c7.135-15.464,14.485-30.826,22.278-45.974" transform="translate(1066.285 3177.439)" fill="#cf0019"/>
      <path id="Path_12057" data-name="Path 12057" d="M264.12,280.446c6.872,8.869,13.9,17.613,20.9,26.382a37.445,37.445,0,0,1,8.109-2.7l-12.084-66-25.533,29.88c3.17,4.392,6,9.074,8.606,12.439" transform="translate(1022.095 3177.388)" fill="#cf0019"/>
      <path id="Path_12058" data-name="Path 12058" d="M290.92,423.726s-19.522-50.2-18.592-103.19-12.086-170.124,25.1-246.354c22.183-45.477,36.1-64.154,43.71-71.823a8,8,0,0,1,12.086.867c11.686,15.657,41.805,56.8,49.253,74.674,9.3,22.312,30.678,65.076,23.242,248.214,0,0-3.72,67.864-16.734,97.612Z" transform="translate(1027.763 3059.874)" fill="#fff"/>
      <g id="Group_517" data-name="Group 517" transform="translate(1298.617 3059.912)" opacity="0.37">
        <g id="Group_516" data-name="Group 516">
          <g id="Group_515" data-name="Group 515" clip-path="url(#clip-path-7)">
            <path id="Path_12059" data-name="Path 12059" d="M292.058,134.449c5.415-36.4,14.259-74.132,36.192-104.424a10.106,10.106,0,0,1,3.159-2.88c5.551-9.021,11.3-17.929,16.785-26.989a7.912,7.912,0,0,0-7.056,2.191c-7.614,7.669-21.527,26.346-43.712,71.823-37.186,76.23-24.17,193.365-25.1,246.354s18.592,103.19,18.592,103.19l119.043-.542C294.03,421.906,284.656,317.931,283.128,260.388c-1.115-42.044,2.747-84.375,8.93-125.939" transform="translate(-270.854 -0.028)" fill="#95a1e6"/>
          </g>
        </g>
      </g>
      <path id="Path_12060" data-name="Path 12060" d="M380.619,75.151q7.555,1.191,15.07,2.78l-.014-.031c-7.447-17.875-37.568-59.017-49.253-74.676a8,8,0,0,0-12.086-.866c-7.614,7.668-21.527,26.346-43.71,71.823-.477.974-.908,1.983-1.367,2.97,29.722-7.412,61.221-6.753,91.359-2" transform="translate(1034.564 3059.874)" fill="#ff3040"/>
      <path id="Path_12061" data-name="Path 12061" d="M322.217,40.673c8.8-11.628,17.005-23.67,25.814-35.288-.564-.759-1.109-1.491-1.609-2.16a7.994,7.994,0,0,0-12.084-.867c-7.614,7.668-21.527,26.346-43.712,71.823-.475.974-.907,1.983-1.365,2.97,4.195-1.046,8.428-1.915,12.684-2.65,4.686-12.312,12.3-23.3,20.273-33.829" transform="translate(1034.564 3059.874)" fill="#cf0019"/>
      <path id="Path_12062" data-name="Path 12062" d="M400.522,325.358H291.558a8.869,8.869,0,1,1,0-17.738H400.522a8.869,8.869,0,1,1,0,17.738" transform="translate(1032.77 3177.014)" fill="#18004c"/>
      <path id="Path_12063" data-name="Path 12063" d="M339.745,84.653a46.88,46.88,0,1,0,46.879,46.881,46.88,46.88,0,0,0-46.879-46.881m0,80.1a33.225,33.225,0,1,1,33.224-33.224,33.224,33.224,0,0,1-33.224,33.224" transform="translate(1035.896 3102.169)" fill="#18004c"/>
      <g id="Group_520" data-name="Group 520" transform="translate(1342.418 3201.145)" opacity="0.37">
        <g id="Group_519" data-name="Group 519">
          <g id="Group_518" data-name="Group 518" clip-path="url(#clip-path-8)">
            <path id="Path_12064" data-name="Path 12064" d="M369.286,127.848a33.225,33.225,0,1,0-33.224,33.224,33.224,33.224,0,0,0,33.224-33.224" transform="translate(-302.837 -94.624)" fill="#95a1e6"/>
          </g>
        </g>
      </g>
      <g id="Group_523" data-name="Group 523" transform="translate(1342.534 3201.145)" opacity="0.6">
        <g id="Group_522" data-name="Group 522">
          <g id="Group_521" data-name="Group 521" clip-path="url(#clip-path-9)">
            <path id="Path_12065" data-name="Path 12065" d="M302.922,120.575a33.065,33.065,0,0,0,41.053,29.913q-20.727-14.673-41.053-29.913" transform="translate(-302.922 -85.035)" fill="#fcfaf5"/>
            <path id="Path_12066" data-name="Path 12066" d="M360.094,149.241a33.2,33.2,0,1,0-53.551-38.983q26.428,19.971,53.551,38.983" transform="translate(-301.584 -94.624)" fill="#fcfaf5"/>
          </g>
        </g>
      </g>
      <circle id="Ellipse_45" data-name="Ellipse 45" cx="3.168" cy="3.168" r="3.168" transform="translate(1372.475 3189.309)" fill="none" stroke="#4f6aff" stroke-miterlimit="10" stroke-width="0.348"/>
      <circle id="Ellipse_46" data-name="Ellipse 46" cx="3.168" cy="3.168" r="3.168" transform="translate(1372.475 3275.6)" fill="none" stroke="#4f6aff" stroke-miterlimit="10" stroke-width="0.348"/>
      <circle id="Ellipse_47" data-name="Ellipse 47" cx="3.168" cy="3.168" r="3.168" transform="translate(1400.696 3201.946)" fill="none" stroke="#4f6aff" stroke-miterlimit="10" stroke-width="0.348"/>
      <circle id="Ellipse_48" data-name="Ellipse 48" cx="3.168" cy="3.168" r="3.168" transform="translate(1344.253 3262.963)" fill="none" stroke="#4f6aff" stroke-miterlimit="10" stroke-width="0.348"/>
      <circle id="Ellipse_49" data-name="Ellipse 49" cx="3.168" cy="3.168" r="3.168" transform="translate(1411.414 3237.3) rotate(-67.5)" fill="none" stroke="#4f6aff" stroke-miterlimit="10" stroke-width="0.348"/>
      <circle id="Ellipse_50" data-name="Ellipse 50" cx="3.168" cy="3.168" r="3.168" transform="translate(1331.592 3237.3) rotate(-67.5)" fill="none" stroke="#4f6aff" stroke-miterlimit="10" stroke-width="0.348"/>
      <circle id="Ellipse_51" data-name="Ellipse 51" cx="3.168" cy="3.168" r="3.168" transform="translate(1400.696 3262.963)" fill="none" stroke="#4f6aff" stroke-miterlimit="10" stroke-width="0.348"/>
      <circle id="Ellipse_52" data-name="Ellipse 52" cx="3.168" cy="3.168" r="3.168" transform="translate(1344.253 3201.946)" fill="none" stroke="#4f6aff" stroke-miterlimit="10" stroke-width="0.348"/>
      <path id="Path_12067" data-name="Path 12067" d="M271.587,171.212s78.556-26.608,152.041-1.267" transform="translate(1028.034 3136.446)" fill="none" stroke="#4f6aff" stroke-miterlimit="10" stroke-width="0.696" stroke-dasharray="5.564 5.564"/>
      <path id="Path_12068" data-name="Path 12068" d="M278.6,87.009c21.974-5.783,78.3-17.268,133.644-1.264" transform="translate(1030.625 3088.542)" fill="none" stroke="#4f6aff" stroke-miterlimit="10" stroke-width="0.696" stroke-dasharray="5.564 5.564"/>
      <path id="Path_12069" data-name="Path 12069" d="M271.587,185.09s78.556-26.608,152.041-1.267" transform="translate(1028.034 3143.13)" fill="none" stroke="#4f6aff" stroke-miterlimit="10" stroke-width="0.696" stroke-dasharray="5.564 5.564"/>
      <g id="Group_526" data-name="Group 526" transform="translate(1406.706 3624.389)" opacity="0.79">
        <g id="Group_525" data-name="Group 525">
          <g id="Group_524" data-name="Group 524" clip-path="url(#clip-path-10)">
            <path id="Path_12070" data-name="Path 12070" d="M349.78,377.065a66.326,66.326,0,0,0,56.241,48.69c-27.513,1.1-53.379-21.312-56.241-48.69" transform="translate(-349.78 -377.065)" fill="#fff"/>
          </g>
        </g>
      </g>
      <g id="Group_529" data-name="Group 529" transform="translate(1305.162 3630.831)" opacity="0.79">
        <g id="Group_528" data-name="Group 528">
          <g id="Group_527" data-name="Group 527" clip-path="url(#clip-path-11)">
            <path id="Path_12071" data-name="Path 12071" d="M319.613,381.769c-3.043,23.969-21.015,45.764-43.981,53.283a89.883,89.883,0,0,0,43.981-53.283" transform="translate(-275.633 -381.769)" fill="#fff"/>
          </g>
        </g>
      </g>
      <g id="Group_532" data-name="Group 532" transform="translate(1343.615 3662.699)" opacity="0.79">
        <g id="Group_531" data-name="Group 531">
          <g id="Group_530" data-name="Group 530" clip-path="url(#clip-path-12)">
            <path id="Path_12072" data-name="Path 12072" d="M314.641,405.039a53.575,53.575,0,0,1-10.93,21.86,53.576,53.576,0,0,1,10.93-21.86" transform="translate(-303.711 -405.039)" fill="#fff"/>
          </g>
        </g>
      </g>
      <g id="Group_535" data-name="Group 535" transform="translate(1378.486 3676.357)" opacity="0.79">
        <g id="Group_534" data-name="Group 534">
          <g id="Group_533" data-name="Group 533" clip-path="url(#clip-path-13)">
            <path id="Path_12073" data-name="Path 12073" d="M329.807,415.012a11.65,11.65,0,0,1,1.816,10.931,11.649,11.649,0,0,1-1.816-10.931" transform="translate(-329.174 -415.012)" fill="#fff"/>
          </g>
        </g>
      </g>
      <g id="Group_538" data-name="Group 538" transform="translate(1397.472 3661.739)" opacity="0.79">
        <g id="Group_537" data-name="Group 537">
          <g id="Group_536" data-name="Group 536" clip-path="url(#clip-path-14)">
            <path id="Path_12074" data-name="Path 12074" d="M343.037,404.338c2.112,3.421,5.092,8.307,7.483,11.453,2.286,3.2,6.09,7.539,8.707,10.553a28.184,28.184,0,0,1-16.19-22.006" transform="translate(-343.037 -404.338)" fill="#fff"/>
          </g>
        </g>
      </g>
      <rect id="Rectangle_245" data-name="Rectangle 245" width="111.325" height="8.04" transform="translate(1137.759 3611.135)" fill="#18004c"/>
      <path id="Path_12075" data-name="Path 12075" d="M230.575,460.07l44.531-86.586H165.635L121.106,460.07" transform="translate(972.432 3246)" fill="none" stroke="#18004c" stroke-miterlimit="10" stroke-width="0.679"/>
      <line id="Line_36" data-name="Line 36" x1="108.85" transform="translate(1121.988 3650.408)" fill="none" stroke="#18004c" stroke-miterlimit="10" stroke-width="0.679"/>
      <line id="Line_38" data-name="Line 38" x1="23.502" y1="80.71" transform="translate(1247.537 3619.485)" fill="none" stroke="#18004c" stroke-miterlimit="10" stroke-width="0.679"/>
      <path id="Path_12078" data-name="Path 12078" d="M257.99,194.738s-23.573,36.06-29.976,31.544c0,0-10.305-5.256-6.613-26.422.007-2.056.018-3.481-.055-3.8,0,0-1.587-20.9-5.022-25.223-.378-.475-1.516-1.359-1.364-1.4,10.49-2.623,14.693,19.723,17.586,31.924.119.505,19.954-14.969,19.954-14.969s10.489-13.869,11.222-13.077c1.06,1.149-3,7.334-3,7.334a2.087,2.087,0,0,0,1.06,1.06,2.508,2.508,0,0,1,1.5,1.945c.266,1.06,1.326,1.678,1.5,2.3s-4.554,7.168-6.791,8.788" transform="translate(1007.105 3142.95)" fill="#feb38c"/>
      <path id="Path_12079" data-name="Path 12079" d="M242.626,183.268s2.12-6.008,3-5.831,4.771,1.857,4.684,3.358-3.446.266-3.446.266.618,3.357-1.061,3.8-3.18-1.59-3.18-1.59" transform="translate(1017.333 3145.164)" fill="#feb38c"/>
      <path id="Path_12080" data-name="Path 12080" d="M246.449,179.888s-.089,1.5,1.149,1.767a1.488,1.488,0,0,0,1.854,1.238s-.441.707.531.883c0,0-4.154,4.506-3.535-3.888" transform="translate(1018.722 3146.263)" fill="#f79a88"/>
      <path id="Path_12081" data-name="Path 12081" d="M245.856,177.749a20.934,20.934,0,0,1,3.715,1.605,1.377,1.377,0,0,1,.53.682c.288,1.727-2.566,1.683-3.514,1.608-.027-.094,0,.222.025.429l.085,1.334-.04.007-.251-1.3c-.01-.207-.173-.448.007-.66,1.009-.279,2.169.115,3.146-.748.371-.326.145-.824-.21-1.061-.585-.453-3.133-1.55-3.494-1.893" transform="translate(1018.526 3145.255)" fill="#ec7a65"/>
      <path id="Path_12082" data-name="Path 12082" d="M248.819,177.446a1.573,1.573,0,0,1-1.364,1.378l-.03-.026a10.391,10.391,0,0,1,1.394-1.352" transform="translate(1019.106 3144.969)" fill="#ec7a65"/>
      <path id="Path_12083" data-name="Path 12083" d="M250.956,179.075c-.438,1.135-3.376,4.21-4.458,2.616l.033-.023a.949.949,0,0,0,1.238.07,17.6,17.6,0,0,0,3.187-2.662" transform="translate(1018.764 3145.806)" fill="#ec7a65"/>
      <path id="Path_12084" data-name="Path 12084" d="M247.234,181.5c.755,2.168,2.024.849,3.131-.2a7.514,7.514,0,0,1,1.267-1.019c-.333.42-.681.829-1.038,1.227-.677.694-1.578,1.9-2.683,1.405a1.7,1.7,0,0,1-.677-1.412" transform="translate(1019.034 3146.375)" fill="#ec7a65"/>
      <path id="Path_12085" data-name="Path 12085" d="M248.583,181.888a2.954,2.954,0,0,0,.685,1.139,2.282,2.282,0,0,0,1.109-.082,1.941,1.941,0,0,0,.911-.188l.029.026a1.379,1.379,0,0,1-.844.486,1.539,1.539,0,0,1-1.443,0,1.942,1.942,0,0,1-.446-1.383" transform="translate(1019.524 3147.105)" fill="#ec7a65"/>
      <path id="Path_12108" data-name="Path 12108" d="M218.841,359.662l12.917,10.47c.66.49.189,1.317-.756,1.324l-19.066.155a1.114,1.114,0,0,1-1.024-.519l-1.438-2.948c-.415-.852-1.243-.92-1.167-.018l-.7,2.846c.037.448-4.521.326-4.562-.082a80.62,80.62,0,0,1,.731-13.112.945.945,0,0,1,.855-.66h0a1.3,1.3,0,0,1,1.067.294c1.286,1.245,5.4,4.992,7.6,4.233a16.07,16.07,0,0,0,3.967-1.943,1.354,1.354,0,0,1,1.583-.038" transform="translate(1002.683 3239.947)" fill="#ff3040"/>
      <path id="Path_12110" data-name="Path 12110" d="M207.063,208.186c-5.566,9.841-8.507,17.048-11.705,29.556-3.71,14.51-38.01,137.224-39.759,163.612,4.571,1.1,40.017.942,42.9.782,9.191-26.337,21.516-111.87,25.458-128.463.605-2.55,4.547-1.989,4.239.614-2.236,18.947-15.967,98.75-21.974,127.9,2.4,1.219,38.885.948,41.655.6,3.012-32.5,18.994-155.52-5.134-195.4-11.033-1.52-24.5.468-35.684.8" transform="translate(985.177 3170.036)" fill="#4f6aff"/>
      <path id="Path_12111" data-name="Path 12111" d="M217.905,208.405a184.65,184.65,0,0,1,10.69,61.36c0,34.325-12,131.3-12,131.3" transform="translate(1007.716 3170.58)" fill="none" stroke="#fff" stroke-miterlimit="10" stroke-width="0.314"/>
      <path id="Path_12113" data-name="Path 12113" d="M226.86,240.872c-14.111,2.479-12.145-31.13-12.145-31.13" transform="translate(1006.985 3161.669)" fill="none" stroke="#fff" stroke-miterlimit="10" stroke-width="0.314"/>
      <g id="Group_541" data-name="Group 541" transform="translate(1182.339 3368.152)" opacity="0.21" style="mix-blend-mode: multiply;isolation: isolate">
        <g id="Group_540" data-name="Group 540">
          <g id="Group_539" data-name="Group 539" clip-path="url(#clip-path-15)">
            <path id="Path_12114" data-name="Path 12114" d="M231.758,209.066l-45.81,37.3s-.253-23.892,7.817-39.042Z" transform="translate(-185.948 -207.324)" fill="#1e274d"/>
          </g>
        </g>
      </g>
      <path id="Path_12115" data-name="Path 12115" d="M228.394,170.391c-.322.779,8.7,23.275,8.32,30.914-.386,7.7-.219,18.7.19,19.863,0,0-11.394,6.652-44.336,1.464-10.127-8.861-1.23-38.974,2.171-48.51,0,0,6.485-3.244,9.276-3.448,0,0,11.927,4.889,24.38-.282" transform="translate(997.102 3143.4)" fill="#18004c"/>
      <path id="Path_12128" data-name="Path 12128" d="M244.869,139.3h23.413l7.654,9.009V126.684c0-6.965-4.233-12.612-9.455-12.612H244.869c-5.222,0-9.456,5.646-9.456,12.612s4.235,12.613,9.456,12.613" transform="translate(1014.668 3115.306)" fill="#ff3040"/>
      <rect id="Rectangle_248" data-name="Rectangle 248" width="3.97" height="9.265" transform="translate(1267.994 3238.827)" fill="#fff"/>
      <rect id="Rectangle_249" data-name="Rectangle 249" width="3.97" height="6.252" transform="translate(1262.377 3242.016)" fill="#fff"/>
      <rect id="Rectangle_250" data-name="Rectangle 250" width="3.97" height="12.045" transform="translate(1274.066 3235.884)" fill="#fff"/>
      <path id="Path_12129" data-name="Path 12129" d="M442.7,178.611a16.285,16.285,0,0,0-32.571,0c0,8.993,15.5,23.114,15.5,23.114S442.7,187.6,442.7,178.611" transform="translate(1079.224 3138.929)" fill="#4f6aff"/>
      <path id="Path_12130" data-name="Path 12130" d="M421.444,201.725s17.073-14.121,17.073-23.114a16.285,16.285,0,0,0-16.286-16.285" transform="translate(1083.405 3138.929)" fill="#18004c"/>
      <path id="Path_12131" data-name="Path 12131" d="M419.312,190.06s2.1-17.074-.263-16.022-3.677,3.677-1.05,4.2,13.133,0,13.133,0,.937-2.987-.787-3.677c-2.627-1.05-2.627,8.93-3.153,16.023" transform="translate(1081.598 3143.812)" fill="none" stroke="#fff" stroke-miterlimit="10" stroke-width="0.317"/>
      <path id="Path_12132" data-name="Path 12132" d="M430.278,189.4H417.145a1.839,1.839,0,0,1,0-3.677h13.133a1.839,1.839,0,0,1,0,3.677" transform="translate(1081.138 3149.018)" fill="#18293d"/>
      <path id="Path_12133" data-name="Path 12133" d="M423.691,196.956h0a7.617,7.617,0,0,1-7.617-7.617v-1.313h15.234v1.313a7.617,7.617,0,0,1-7.617,7.617" transform="translate(1081.421 3150.307)" fill="#18293d"/>
      <path id="Path_12134" data-name="Path 12134" d="M423.691,196.956h0a7.617,7.617,0,0,1-7.617-7.617v-1.313h15.234v1.313A7.617,7.617,0,0,1,423.691,196.956Z" transform="translate(1081.421 3150.307)" fill="none" stroke="#eaebec" stroke-miterlimit="10" stroke-width="0.433"/>
      <line id="Line_41" data-name="Line 41" x2="7.402" transform="translate(1476.275 3317.705)" fill="none" stroke="#fff" stroke-linecap="round" stroke-miterlimit="10" stroke-width="0.813"/>
      <line id="Line_42" data-name="Line 42" x2="7.402" transform="translate(1528.092 3317.705)" fill="none" stroke="#fff" stroke-linecap="round" stroke-miterlimit="10" stroke-width="0.813"/>
      <line id="Line_43" data-name="Line 43" x2="5.234" y2="5.234" transform="translate(1484.948 3295.243)" fill="none" stroke="#fff" stroke-linecap="round" stroke-miterlimit="10" stroke-width="0.813"/>
      <line id="Line_44" data-name="Line 44" x2="5.234" y2="5.234" transform="translate(1521.587 3334.846)" fill="none" stroke="#fff" stroke-linecap="round" stroke-miterlimit="10" stroke-width="0.813"/>
      <line id="Line_45" data-name="Line 45" y2="7.402" transform="translate(1505.885 3285.931)" fill="none" stroke="#fff" stroke-linecap="round" stroke-miterlimit="10" stroke-width="0.813"/>
      <line id="Line_46" data-name="Line 46" x1="5.234" y2="5.234" transform="translate(1521.587 3295.243)" fill="none" stroke="#fff" stroke-linecap="round" stroke-miterlimit="10" stroke-width="0.813"/>
      <line id="Line_47" data-name="Line 47" x1="5.234" y2="5.234" transform="translate(1484.948 3334.846)" fill="none" stroke="#fff" stroke-linecap="round" stroke-miterlimit="10" stroke-width="0.813"/>
      <path id="Path_12135" data-name="Path 12135" d="M433.071,238.135c-.282-2.262,7.276-29.4,8.366-31.408,2.854-5.258,15.9-6.305,21.553-2.727,9.146,5.79,23.246,32.1,20.388,38.932Z" transform="translate(1087.699 3158.271)" fill="#ef001d"/>
      <path id="Path_12136" data-name="Path 12136" d="M459.512,221.309a.53.53,0,0,0,.531.549c1.26-.005,4.169-.274,4.58,3.022.415,3.333-2.761,5.208-4.671,5.312a4.276,4.276,0,0,0-2.2.549c-1.149,1.25-1.69,3.982-2.573,7.387a9.67,9.67,0,0,0,3.954,10.956s-19.7,9.685-19.515-.023c0,0,1.556-17.861,1.464-17.953-1.537-1.538-7.51-2.2-3.755-14.93,3.48-11.793,12.132-10.953,14.332-10.564,1.856.329,8.3.733,7.853,15.694" transform="translate(1088.823 3160.295)" fill="#ff9c75"/>
      <path id="Path_12137" data-name="Path 12137" d="M459.893,221.133a.53.53,0,0,0,.531.549c1.26-.005,4.169-.274,4.58,3.022.415,3.333-2.761,5.208-4.671,5.312a4.275,4.275,0,0,0-2.2.549c-1.149,1.25-1.69,3.983-2.573,7.387a9.67,9.67,0,0,0,3.954,10.956s-19.7,9.685-19.517-.023c0,0,1.557-17.861,1.465-17.953-1.537-1.538-7.51-2.2-3.755-14.93,3.479-11.793,12.132-10.953,14.332-10.564,1.856.329,8.3.733,7.853,15.694" transform="translate(1088.964 3160.209)" fill="#ff9c75"/>
      <path id="Path_12138" data-name="Path 12138" d="M443.885,204.568s3.756,17.027,8.366,18.789c5.108,1.953,4.634-6.159,5.175-.886,0,0,9.226-25.036-13.542-17.9" transform="translate(1091.697 3158.095)" fill="#ef001d"/>
      <path id="Path_12139" data-name="Path 12139" d="M457.1,220.735s-1.98-4.178-4.495,1.42" transform="translate(1094.918 3165.072)" fill="#e6713e"/>
      <path id="Path_12140" data-name="Path 12140" d="M446.016,217.036a2.96,2.96,0,1,0,2.892,3.027,2.96,2.96,0,0,0-2.892-3.027" transform="translate(1091.367 3164.136)" fill="#ff8752"/>
      <path id="Path_12141" data-name="Path 12141" d="M436.206,219.313a2.96,2.96,0,0,0,.99-5.451s-1.265,3.274-.99,5.451" transform="translate(1088.845 3162.593)" fill="#ff8752"/>
      <path id="Path_12142" data-name="Path 12142" d="M441.829,213.425l-1.242,4.391-1.568-.693Z" transform="translate(1089.899 3162.341)" fill="#e6713e"/>
      <path id="Path_12143" data-name="Path 12143" d="M445.718,214.287c.053-.477.2-1.085-.036-1.434a4.837,4.837,0,0,0-1.146-.93c-.644-.44-1.341-.333-1.4.338.215.377,1.127.288,1.871,1a5.831,5.831,0,0,1,.707,1.029" transform="translate(1091.422 3161.424)"/>
      <path id="Path_12144" data-name="Path 12144" d="M438.473,211.122c-.4.112.371-.529.93-.715a2.811,2.811,0,0,1,1.491,0c.768.151,1.12.712.526,1.149-.642.474-1.393-.871-2.947-.434" transform="translate(1089.656 3160.723)"/>
      <path id="Path_12145" data-name="Path 12145" d="M443.158,215.5c-.218.541-.607.892-.868.786s-.3-.629-.078-1.167.605-.892.867-.788.3.629.079,1.168" transform="translate(1091.026 3162.675)"/>
      <path id="Path_12146" data-name="Path 12146" d="M440.093,214.037c-.208.515-.579.85-.828.75s-.284-.6-.075-1.116.578-.85.829-.749.283.6.075,1.115" transform="translate(1089.912 3161.993)"/>
      <path id="Path_12147" data-name="Path 12147" d="M439.754,224.181a47.332,47.332,0,0,0,8.464.892c2.839-.184-9.417,7.076-8.464-.892" transform="translate(1090.151 3167.478)"/>
      <path id="Path_12148" data-name="Path 12148" d="M438.42,216.842s-.559,2.236.412,2.606a3.531,3.531,0,0,0,3.291-.686Z" transform="translate(1089.619 3163.917)" fill="#fcfaf5"/>
      <path id="Path_12149" data-name="Path 12149" d="M537.42,432.526c0-1.865-26.29-3.379-58.721-3.379s-58.723,1.513-58.723,3.379,26.29,3.378,58.723,3.378,58.721-1.513,58.721-3.378" transform="translate(1082.863 3266.568)" fill="#e5f1ff"/>
      <path id="Path_12150" data-name="Path 12150" d="M446.158,414.08l-2.046,14.528s-3.281,9.634-6.328,5.9a30.009,30.009,0,0,0-6.061-5.7l-1-15.1Z" transform="translate(1086.833 3260.863)" fill="#ff7b4d"/>
      <path id="Path_12151" data-name="Path 12151" d="M436.313,414.375l-.527,19.759s9.643,1.448,6.06-5.005l2.108-13.7Z" transform="translate(1088.705 3261.11)" fill="#ff8752"/>
      <path id="Path_12152" data-name="Path 12152" d="M477.448,413.164l4.521,14.491s3.44,3.017,4.682,2.94c2.26-.142,3.443-4.04,3.443-4.04l.373-13.391Z" transform="translate(1104.099 3260.662)" fill="#ff7b4d"/>
      <path id="Path_12153" data-name="Path 12153" d="M482.2,410.336l3.161,23.974s6.482,1.71,2.9-4.743l.792-18.442Z" transform="translate(1105.855 3259.617)" fill="#ff8752"/>
      <path id="Path_12154" data-name="Path 12154" d="M434.08,425.331l-12.167,9.862c-.622.461-.178,1.241.712,1.248l17.96.147a1.048,1.048,0,0,0,.964-.49l1.354-2.776c.392-.8,1.171-.868,1.1-.018l.663,2.681c-.036.422,4.258.307,4.3-.078a75.693,75.693,0,0,0-.689-12.352.892.892,0,0,0-.8-.622h0a1.222,1.222,0,0,0-1,.277c-1.212,1.172-5.088,4.7-7.154,3.988a15.206,15.206,0,0,1-3.737-1.83,1.274,1.274,0,0,0-1.491-.037" transform="translate(1083.472 3264.266)" fill="#4f6aff"/>
      <path id="Path_12155" data-name="Path 12155" d="M489.605,422.6l6.908,11.572a2.257,2.257,0,0,1-1.005,3.262c-2.161,1.285-3.926,3.85-5.286,3.888-2.455.068-6.274-2.518-8.5-3.488-1.491-.652-2.662-1.605-2.477-2.854l1.717-11.608c.021-.144.274-.2.4-.083l2.646,2.4c.867.786,3.218.681,3.8-.26.416-.671,1.394-2.836,1.394-2.836a.273.273,0,0,1,.4.01" transform="translate(1104.756 3264.115)" fill="#4f6aff"/>
      <path id="Path_12156" data-name="Path 12156" d="M473.241,274.143c5.578,9.86,8.526,17.083,11.731,29.621,3.717,14.539,24.461,137.4,26.214,163.848-4.582,1.1-11.526.611-14.421.451-9.211-26.394-36.509-111.663-40.458-128.29-.608-2.555-4.556-1.994-4.248.615,2.24,18.987-1.261,96.129-3.064,128.126-2.4,1.223-13.885,1-16.661.651-3.017-32.568-19.035-155.858,5.145-195.821,11.057-1.526,24.549.467,35.762.8" transform="translate(1084.477 3208.788)" fill="#1b1b25"/>
      <path id="Path_12157" data-name="Path 12157" d="M437.646,276.349S427.8,300.721,427.8,335.12s6.4,121.706,6.4,121.706" transform="translate(1085.753 3210.11)" fill="none" stroke="#fff" stroke-miterlimit="10" stroke-width="0.315"/>
      <line id="Line_48" data-name="Line 48" x1="35.285" y1="181.149" transform="translate(1552.265 3485.336)" fill="none" stroke="#fff" stroke-miterlimit="10" stroke-width="0.315"/>
      <path id="Path_12158" data-name="Path 12158" d="M451.031,276.232s.334,31.508,14.477,29.024" transform="translate(1094.338 3193.821)" fill="none" stroke="#fff" stroke-miterlimit="10" stroke-width="0.315"/>
      <g id="Group_547" data-name="Group 547" transform="translate(1522.116 3471.21)" opacity="0.21" style="mix-blend-mode: multiply;isolation: isolate">
        <g id="Group_546" data-name="Group 546">
          <g id="Group_545" data-name="Group 545" clip-path="url(#clip-path-16)">
            <path id="Path_12159" data-name="Path 12159" d="M434.052,276.817,479.575,311.1s1.9-18.5-6.187-33.681Z" transform="translate(-434.052 -276.817)"/>
          </g>
        </g>
      </g>
      <path id="Path_12160" data-name="Path 12160" d="M429.6,306.268c14.141,2.484,11.867-28.865,11.867-28.865" transform="translate(1086.42 3194.38)" fill="none" stroke="#fff" stroke-miterlimit="10" stroke-width="0.315"/>
      <line id="Line_49" data-name="Line 49" x1="18.461" y1="0.423" transform="translate(1515.461 3666.963)" fill="none" stroke="#fff" stroke-miterlimit="10" stroke-width="0.315"/>
      <line id="Line_50" data-name="Line 50" x1="16.675" y1="0.451" transform="translate(1578.085 3666.935)" fill="none" stroke="#fff" stroke-miterlimit="10" stroke-width="0.315"/>
      <path id="Path_12161" data-name="Path 12161" d="M401.513,270.207s42.347,28.192,47.15,21.138c0,0,5.508-8.1-6.352-28.269-.793-2.094-1.349-3.543-1.4-3.9,0,0,12.656-16.932,14.5-22.66.2-.629,1.026-1.964.857-1.945-11.7,1.337-11.819,28.5-23.024,38.331-.424.373-27.808-11.672-27.808-11.672s-16-10.133-16.444-9.046c-.642,1.576,5.867,6.331,5.867,6.331a2.269,2.269,0,0,1-.675,1.486,2.732,2.732,0,0,0-.789,2.557c.136,1.183-.709,2.219-.653,2.917s5.86,3.936,8.762,4.732" transform="translate(1071.401 3175.054)" fill="#ff9c75"/>
      <path id="Path_12162" data-name="Path 12162" d="M403.1,255.374s-4.461-5.316-5.293-4.8-4.156,3.717-3.492,5.215,3.615-1.048,3.615-1.048.653,3.661,2.534,3.469,2.636-2.838,2.636-2.838" transform="translate(1073.35 3180.314)" fill="#ff9c75"/>
      <path id="Path_12163" data-name="Path 12163" d="M396.707,253.683s.664,1.5-.5,2.242a1.621,1.621,0,0,1-1.419,1.971s.72.552-.2,1.1c0,0,5.959,3.007,2.119-5.316" transform="translate(1073.482 3181.738)" fill="#ff8752"/>
      <path id="Path_12164" data-name="Path 12164" d="M396.777,251.311c-.774,1.189-1.767,2.314-2.6,3.4-.714,1.3,1.889.724,2.6.456.229-.033.42-.236.892-.11a.564.564,0,0,1,.314.486c.038.24.09,1.55.105,1.817-.074.145-.275-1.439-.294-1.415-.063-.218-.023-.53-.229-.625-1.133.158-2.214.96-3.509.464a.814.814,0,0,1-.221-1.283c.572-.794,2.245-2.458,2.9-3.225l.032.03" transform="translate(1073.129 3180.596)" fill="#e6713e"/>
      <path id="Path_12165" data-name="Path 12165" d="M393.171,251.946a1.714,1.714,0,0,1,1.919.885,11.306,11.306,0,0,1-1.938-.846l.019-.038" transform="translate(1072.952 3180.654)" fill="#e6713e"/>
      <path id="Path_12166" data-name="Path 12166" d="M392.453,254.1c1.672.312,3.251,1.178,4.916,1.327a.71.71,0,0,0,.567-.337l.042.011a1.087,1.087,0,0,1-1.289.6,11.844,11.844,0,0,1-4.237-1.6" transform="translate(1072.693 3181.738)" fill="#e6713e"/>
      <path id="Path_12167" data-name="Path 12167" d="M397.183,255.3c1.144,2.906-1.86,2.853-3.591,1.541a5.268,5.268,0,0,1-1.38-1.134c.5.294,1.015.571,1.534.834,1.752.942,3.8,1.508,3.437-1.241" transform="translate(1072.604 3182.35)" fill="#e6713e"/>
      <path id="Path_12168" data-name="Path 12168" d="M395.409,256.531c1.089,1.776-.24,2.825-2,2.353-.162-.059-.5-.3-.464-.415a1.439,1.439,0,0,0,1.02.142c.5-.031,1.127-.073,1.416-.511a3.444,3.444,0,0,0,.029-1.569" transform="translate(1072.874 3182.946)" fill="#e6713e"/>
      <path id="Path_12169" data-name="Path 12169" d="M451.626,233.366s-5.735.852-9.625,8.37c-3.084,5.964-14.795,30.815-14.795,30.815l-23.187-9.944-2.1,14.492s35.755,21.538,41.913,16.763,10.763-52.828,7.8-60.5" transform="translate(1076.19 3174.635)" fill="#fff"/>
      <path id="Path_12170" data-name="Path 12170" d="M442.436,233.066c.322.781-13.192,27.706-12.809,35.362.386,7.713,5.653,20.69,5.244,21.85,0,0,5.985,4.721,39-.478,10.148-8.878,1.233-39.058-2.177-48.614,0,0-8.987-1.286-12.8-5.926,0,0-14.676,11.385-16.459-2.194" transform="translate(1086.426 3174.381)" fill="#fff"/>
      <g id="Group_550" data-name="Group 550" transform="translate(1524.799 3424.191)" opacity="0.37">
        <g id="Group_549" data-name="Group 549">
          <g id="Group_548" data-name="Group 548" clip-path="url(#clip-path-17)">
            <path id="Path_12171" data-name="Path 12171" d="M471.889,244.874c3.691,12.914,7.7,33.491-.382,40.564-20.845,3.281-30.905,2.609-35.5,1.668,12.237-13.851,24.4-27.761,35.878-42.232" transform="translate(-436.011 -244.874)" fill="#95a1e6"/>
          </g>
        </g>
      </g>
      <path id="Path_12172" data-name="Path 12172" d="M454.02,284.955l-19.98-24.407-21.264.175L429.088,283.2l9.614,1.374c.6.027,15.318.377,15.318.377" transform="translate(1080.203 3185.967)" fill="#4f6aff"/>
      <path id="Path_12173" data-name="Path 12173" d="M434.5,268.088v3.595l4.792,1.769Z" transform="translate(1088.229 3188.634)" fill="#020f2b"/>
      <path id="Path_12174" data-name="Path 12174" d="M458.822,287.035a202.588,202.588,0,0,1-28.583-8.109c-1.081-.374-4.215-1.841-4.2-2.31.025-1.075,6.346,1.76,6.108,1.5s-7.772-2.772-7.773-3.64c0-1.307,8.35,1.643,8.494,1.687,2.165.652-8.1-2.512-8.317-3.409s4.565.223,4.734.26c0,0,4.039,1.2,4.188.924s-7.91-5.11-7.062-5.626,7.021,2.382,8.48,2.938,3.687.761,4.247.422c.472-.285-.011-2.646-.977-3.557a19.107,19.107,0,0,1,5.375,3.565,21.421,21.421,0,0,1,1.772,2.423l13.846,2.7Z" transform="translate(1084.487 3189.339)" fill="#ff9c75"/>
      <path id="Path_12175" data-name="Path 12175" d="M461.31,249.375s-1.961-12.732,4.549-11.7c11.016,1.746,23.592,26.879,18.769,60.274-1.567,10.846-45.521.27-45.521.27l2.82-15.874,22.95,3.81Z" transform="translate(1089.932 3176.944)" fill="#fff"/>
      <path id="Path_12176" data-name="Path 12176" d="M506.694,241.567a3.965,3.965,0,1,0,3.965-3.965,3.964,3.964,0,0,0-3.965,3.965" transform="translate(1114.905 3174.106)" fill="#ff3040"/>
      <path id="Path_12177" data-name="Path 12177" d="M511.162,230.128a7.789,7.789,0,1,0,7.79-7.79,7.79,7.79,0,0,0-7.79,7.79" transform="translate(1116.556 3167.091)" fill="#ff3040"/>
      <path id="Path_12178" data-name="Path 12178" d="M513.391,232.858l-4.214-1.453a.444.444,0,0,1,.012-.844l9.291-2.883a.444.444,0,0,1,.552.566l-3.128,9.3a.444.444,0,0,1-.844-.007l-1.391-4.393a.445.445,0,0,0-.278-.286" transform="translate(1115.712 3169.422)" fill="#1e274d"/>
      <path id="Path_12179" data-name="Path 12179" d="M489.024,262.708c-.538.192,5.618,8.961,13.528,13.528,0,0,36.329,33.94,42.969,31.46s36.54-67.78,20.162-70.692c0,0-4.267-3.083-7.261.782s-11.976,8.767-25.953,41.051c0,0-20.334-10.505-22.634-11.706,0,0-4.682-11.186-5.463-9.365s1.041,6.764,1.041,6.764-11.706-8.846-13.268-8.065-3.121,6.244-3.121,6.244" transform="translate(1108.364 3176.441)" fill="#feb38c"/>
      <path id="Path_12180" data-name="Path 12180" d="M525.379,267.17c9.917-19.065,17.216-26.309,19.6-29.383,2.994-3.866,7.26-.783,7.26-.783,10.979,1.952,1.161,31.941-8.5,52.246a261.472,261.472,0,0,0-18.353-22.08" transform="translate(1121.809 3175.441)" fill="#f5836b"/>
      <path id="Path_12181" data-name="Path 12181" d="M534.474,243.284s6.29-17.862,18.792-10.363,3.614,44.159-3.228,51.686l-27.6-15.138Z" transform="translate(1120.724 3173.116)" fill="#4f6aff"/>
      <path id="Path_12182" data-name="Path 12182" d="M529.286,245.455c2.02-1.838,4.607-4.315,7.254-3.644a5.73,5.73,0,0,1,3.058,1.8c1.51,1.838,1.242,4.623.144,6.735s-2.872,3.776-4.365,5.629a25.2,25.2,0,0,0-5.5,14.361" transform="translate(1123.253 3177.05)" fill="none" stroke="#fbefdf" stroke-miterlimit="10" stroke-width="0.202"/>
      <path id="Path_12183" data-name="Path 12183" d="M544.6,281.127c4.454-.866,11.748-29.295,9.092-34.314,0,0-13.706-8.1-14.577-7.194-8.88,9.2,5.485,41.508,5.485,41.508" transform="translate(1125.815 3176.647)" fill="#3054f2"/>
      <path id="Path_12184" data-name="Path 12184" d="M522.494,432.078c0-2.214,31.2-4.01,69.692-4.01s69.691,1.8,69.691,4.01-31.2,4.01-69.691,4.01-69.692-1.8-69.692-4.01" transform="translate(1120.743 3266.169)" fill="#e5f1ff"/>
      <path id="Path_12185" data-name="Path 12185" d="M531.508,426.083l.245-13.272,12.782.983-.322,12.754-5.976,10.368-10.756-8.295Z" transform="translate(1122.585 3260.532)" fill="#feb38c"/>
      <path id="Path_12186" data-name="Path 12186" d="M531.319,412.99l9.83,20.89s-1.9-3.274,1.965-6.737V412.99Z" transform="translate(1124.004 3260.598)" fill="#f5836b"/>
      <path id="Path_12187" data-name="Path 12187" d="M534.662,421.956a60.158,60.158,0,0,0,7.712,7.1c2.588,1.962,6.439-6.4,7.638-7.45.244-.214.574-.022.616.356l1.5,13.691H514.282a.875.875,0,0,1-.8-1.037c2.006-10.169,21.176-12.657,21.176-12.657" transform="translate(1117.408 3263.748)" fill="#18004c"/>
      <path id="Path_12188" data-name="Path 12188" d="M529.932,432.352s-1.475-7.005-6.452-8.3c0,0-7.834,2.581-9.677,8.48H551.59" transform="translate(1117.532 3264.687)" fill="none" stroke="#fff" stroke-miterlimit="10" stroke-width="0.405"/>
      <line id="Line_51" data-name="Line 51" x1="7.834" y2="8.572" transform="translate(1660.458 3688.561)" fill="none" stroke="#fff" stroke-miterlimit="10" stroke-width="0.405"/>
      <path id="Path_12189" data-name="Path 12189" d="M575.81,427.339l-3.932-12.78,13.762-.492,2.95,13.517-5.093,8.867-10.756-8.294Z" transform="translate(1138.99 3260.996)" fill="#feb38c"/>
      <path id="Path_12190" data-name="Path 12190" d="M574.031,414.559l11.305,15.73s-.175.512,3.687-2.95L584.6,414.067Z" transform="translate(1139.785 3260.996)" fill="#f5836b"/>
      <path id="Path_12191" data-name="Path 12191" d="M579.143,423.182a60.148,60.148,0,0,0,7.712,7.1c2.587,1.963,6.439-6.4,7.636-7.45.244-.214.575-.023.616.356l1.5,13.691H558.764a.876.876,0,0,1-.8-1.037c2.006-10.168,21.176-12.657,21.176-12.657" transform="translate(1133.844 3264.2)" fill="#18004c"/>
      <path id="Path_12192" data-name="Path 12192" d="M574.412,433.578s-1.475-7-6.452-8.3c0,0-7.833,2.582-9.677,8.48H596.07" transform="translate(1133.967 3265.14)" fill="none" stroke="#fff" stroke-miterlimit="10" stroke-width="0.405"/>
      <line id="Line_52" data-name="Line 52" x1="7.834" y2="8.572" transform="translate(1721.375 3690.239)" fill="none" stroke="#fff" stroke-miterlimit="10" stroke-width="0.405"/>
      <path id="Path_12193" data-name="Path 12193" d="M531.815,301.832s-4.867,58.223-5.325,74.31,3.676,78.9,3.676,78.9L546.432,455s17.223-111.006,36.89-149.8Z" transform="translate(1122.207 3219.526)" fill="#0a0a0a"/>
      <path id="Path_12194" data-name="Path 12194" d="M535.267,437.971l2.58-73.732L549.276,321.1" transform="translate(1125.463 3226.647)" fill="none" stroke="#fff" stroke-miterlimit="10" stroke-width="0.326"/>
      <path id="Path_12195" data-name="Path 12195" d="M547.906,416.961l-18.8-.368L528,405.9h21.75Z" transform="translate(1122.777 3257.979)" fill="#4f6aff"/>
      <path id="Path_12196" data-name="Path 12196" d="M530.339,301.832s11.255,48.534,22.686,82.871c9.237,27.747,33.71,71.571,33.71,71.571l16.359-.716-17.386-70.03a69.148,69.148,0,0,1-1.98-12.646c-1.013-16.123,2.3-48.7,3.687-69.581Z" transform="translate(1123.642 3219.526)" fill="#18004c"/>
      <path id="Path_12197" data-name="Path 12197" d="M583.06,437.345c.368-1.107-22.489-67.465-22.489-75.944s.368-37.6.368-37.6" transform="translate(1134.813 3227.642)" fill="none" stroke="#fff" stroke-miterlimit="10" stroke-width="0.326"/>
      <path id="Path_12198" data-name="Path 12198" d="M591.364,416.762l-18.187.86-6.145-10.077,22.857-1.105Z" transform="translate(1137.199 3258.178)" fill="#4f6aff"/>
      <path id="Path_12199" data-name="Path 12199" d="M576.3,228.7s25.425,2.6,27.026,23.651-8.98,108.371-8.98,108.371L525.038,356.3l6.533-98.969a30.668,30.668,0,0,1,4.792-15.06c2.658-4.151,5.771-8.857,7.539-9.078l28.51-7.33Z" transform="translate(1121.683 3175.316)" fill="#4f6aff"/>
      <path id="Path_12200" data-name="Path 12200" d="M581.981,229.579c16.958,2.58,20.345,10.871,21.145,21.4,1.6,21.055-8.98,107.633-8.98,107.633l-68.571-3.687" transform="translate(1121.882 3176.814)" fill="#3054f2"/>
      <rect id="Rectangle_253" data-name="Rectangle 253" width="935.882" height="648.361" transform="translate(927.684 3059.874)" fill="none"/>
      <g id="Group_554" data-name="Group 554" transform="translate(1646.72 3401.177)">
        <g id="Group_553" data-name="Group 553" clip-path="url(#clip-path-18)">
          <path id="Path_12201" data-name="Path 12201" d="M568.139,230.876a101.521,101.521,0,0,1-6.3,15.714c-3.4,6.791-8.133,13.648-15.352,16.015-3.116,1.022-6.461,1.113-9.638,1.92s-6.416,2.6-7.564,5.672" transform="translate(-523.468 -224.008)" fill="none" stroke="#fbefdf" stroke-miterlimit="10" stroke-width="0.202"/>
          <path id="Path_12202" data-name="Path 12202" d="M595.816,294.164c-6.515-.8-14.4-1.037-18.183,4.33-2.97,4.219-1.952,10.168-4.354,14.734-3.146,5.975-10.746,7.583-16.685,10.8a29.383,29.383,0,0,0-15.053,23.658" transform="translate(-518.938 -200.783)" fill="none" stroke="#fbefdf" stroke-miterlimit="10" stroke-width="0.202"/>
          <path id="Path_12203" data-name="Path 12203" d="M529.957,330.03C540.828,325.91,551.7,319,555.581,308.037a3.415,3.415,0,0,0,.242-2.091,3.2,3.2,0,0,0-1.344-1.565c-3.5-2.457-8.072-3.027-11.487-5.594-1.379-1.035-2.516-2.361-3.878-3.417a13.071,13.071,0,0,0-15.9.3" transform="translate(-525.71 -201.119)" fill="none" stroke="#fbefdf" stroke-miterlimit="10" stroke-width="0.202"/>
          <path id="Path_12204" data-name="Path 12204" d="M528.112,263.485a17.712,17.712,0,0,1,13.783,10c3.982,8.668.5,19.615,5.281,27.871,4.612,7.964,16.982,9.941,23.8,3.762,2.807-2.543,4.708-6.142,8.032-7.959,6.052-3.31,15.007.238,19.637-4.874" transform="translate(-523.901 -211.959)" fill="none" stroke="#fbefdf" stroke-miterlimit="10" stroke-width="0.202"/>
        </g>
      </g>
      <g id="Group_556" data-name="Group 556" transform="translate(927.684 3059.874)">
        <g id="Group_555" data-name="Group 555" clip-path="url(#clip-path-19)">
          <path id="Path_12206" data-name="Path 12206" d="M560.789,214.856l7.434,21.413-5.53,2.985c-8.48,3.386-16.144,1.247-17.339-2.55l1.143-12.777L558.388,212.3a11.92,11.92,0,0,1,2.058,1.916,2.916,2.916,0,0,0,.342.639" transform="translate(201.505 101.756)" fill="#feb38c"/>
          <path id="Path_12207" data-name="Path 12207" d="M558.186,212.3l-11.891,11.627L545.9,228.5s9.953,2.587,13.64-14.536" transform="translate(201.707 101.756)" fill="#f5836b"/>
          <path id="Path_12208" data-name="Path 12208" d="M562.1,303.708l-23.31-45.614a8.946,8.946,0,0,0-5.836-4.775L480.18,249.5a1.171,1.171,0,0,0-1.148,1.774l22.388,43.238a8.977,8.977,0,0,0,5.552,4.636l53.947,6.318a1.166,1.166,0,0,0,1.183-1.756" transform="translate(176.945 119.571)" fill="#e5f1ff"/>
          <path id="Path_12209" data-name="Path 12209" d="M561.317,305.456,540.284,261.8c-1.244-2.451-4.755-4.766-7.219-5.348l-55.882-3.793a1.171,1.171,0,0,0-1.148,1.774l22.388,43.237a8.978,8.978,0,0,0,5.552,4.636l56.158,4.9a1.166,1.166,0,0,0,1.183-1.756" transform="translate(175.838 121.088)" fill="#18004c"/>
          <path id="Path_12210" data-name="Path 12210" d="M532.037,267.048,521.3,271.1l14.294,3.01Z" transform="translate(192.618 127.996)" fill="#000f30"/>
          <path id="Path_12211" data-name="Path 12211" d="M532.037,267.048,521.3,271.1l14.294,3.01Z" transform="translate(192.618 127.996)" fill="none" stroke="#1c254f" stroke-miterlimit="10" stroke-width="0"/>
          <path id="Path_12212" data-name="Path 12212" d="M544.141,282.94l-50.02-3.049,2.794,5.605,50.608,3.488Z" transform="translate(182.575 134.152)" fill="#fcfaf5"/>
          <path id="Path_12213" data-name="Path 12213" d="M533.44,291.06c1.809,1.17,22.7,20.66,39.521,29.617,4.639,2.469,10.7-3.274,12.367-8.485l15.6-44.31-25.393-13.845c-.111.294-4.582,27.882-8.224,37.4-1.305,3.405-.507,2.922-3.443,1.738l-22.935-12.618a18.214,18.214,0,0,1-2.608-3.231c-1.343-2.555-6.041-5.373-6.041-5.373l2.8,5.429c.489.911-.089,1.112-1.8.322L521.9,272.528s-2.568-.6-1.22.528,5.868,4.182,6.031,4.275c2.892,1.67-7.472-3.617-7.443-2.567s6.016,4.722,5.914,4.849-6.5-3.067-6.509-2.078,5.668,4.013,5.86,4.04c.371.053-4.562-2.746-4.591-2.21s12.468,11.027,13.5,11.7" transform="translate(191.646 121.76)" fill="#feb38c"/>
          <path id="Path_12214" data-name="Path 12214" d="M557.611,273.021c1.962-9.6,3.472-18.814,3.535-18.984l25.395,13.846-9.906,28.13c-6.2-7.8-12.476-15.531-19.024-22.993" transform="translate(206.035 121.76)" fill="#f5836b"/>
          <path id="Path_12215" data-name="Path 12215" d="M560.758,295.146c2.312-1.63,7.957-3.6,10.016-.493-2.109,4.862-7.629,9.635-11.93,7.345-.652-.346-1.311-.715-1.972-1.09a9.662,9.662,0,0,1,3.885-5.762" transform="translate(205.762 140.44)" fill="#f5836b"/>
          <path id="Path_12216" data-name="Path 12216" d="M565.924,245.673s2.847-20.385,16.415-14.91,13.236,66.614,7.95,76.057l-38.95-20.2Z" transform="translate(203.717 110.157)" fill="#4f6aff"/>
        </g>
      </g>
      <g id="Group_558" data-name="Group 558" transform="translate(1682.74 3403.262)">
        <g id="Group_557" data-name="Group 557" clip-path="url(#clip-path-20)">
          <path id="Path_12217" data-name="Path 12217" d="M565.231,230.756c-1.187,10.544.111,21.7,5.719,30.708s16.075,15.385,26.62,14.211" transform="translate(-546.355 -229.488)" fill="none" stroke="#fbefdf" stroke-miterlimit="10" stroke-width="0.202"/>
          <path id="Path_12218" data-name="Path 12218" d="M559.628,249.8a22.917,22.917,0,0,1,6.4,4.859,5.475,5.475,0,0,1,1.485,2.442c.633,2.927-2.923,5.119-3.435,8.069-.351,2.02.813,4.013,2.257,5.467s3.2,2.587,4.536,4.143a10.894,10.894,0,0,1-.642,14.363" transform="translate(-548.276 -222.452)" fill="none" stroke="#fbefdf" stroke-miterlimit="10" stroke-width="0.202"/>
          <path id="Path_12219" data-name="Path 12219" d="M584.708,272.169a5.04,5.04,0,0,0-5.8-.147c-2.987,2.08-2.762,6.478-4.07,9.874" transform="translate(-542.657 -214.553)" fill="none" stroke="#fbefdf" stroke-miterlimit="10" stroke-width="0.202"/>
        </g>
      </g>
      <g id="Group_560" data-name="Group 560" transform="translate(927.684 3059.874)">
        <g id="Group_559" data-name="Group 559" clip-path="url(#clip-path-19)">
          <path id="Path_12221" data-name="Path 12221" d="M540.485,204.351c-.222,4.2,3.04,2.558,3.04,2.558,8.27,5.743,18.8,15.729,18.8,15.729s3.847-.75,3.872-1.793c.185-7.965-.253-17.576-.253-17.576a5.132,5.132,0,0,0,2-4.562s-.778-3.364-3.446-2.883c0,0,.556-2.041-.778-3.121a2.04,2.04,0,0,0-2.669.24,5.244,5.244,0,0,0-3.78-4.8c-3.669-.962-5.225,2.762-5.225,2.762s-.667-2.041-1.779-1.922-1.557,2.041-1.557,2.041a2.892,2.892,0,0,0-3.557-2.642c-3.336.481-3.558,4.683-3.558,4.683a1.31,1.31,0,0,0-1.668-1.08c-2,.359-3.113,3-1.223,5.524a4.011,4.011,0,0,0-1.334,3.362c.111,2.281,3.113,3.482,3.113,3.482" transform="translate(198.554 90.099)" fill="#18004c"/>
          <path id="Path_12222" data-name="Path 12222" d="M561.3,214.9a.528.528,0,0,0,.894.226c.968-1.027,2.9-2.435,3.588,1.654.938,5.552-4.425,4.6-4.852,5.343-.867,1.516-3.647,6.608-7.791,8.584a7.721,7.721,0,0,1-9.024-1.465c-2.758-2.861-4.28.512-3.122-30.071a2.713,2.713,0,0,0,3.368,1.9c1.884-.41,3.365-2.12,5.434-2.744,1.68-.506,6.3-1.76,8.292,4.553.915,2.9,2.371,9.614,3.213,12.021" transform="translate(199.749 94.844)" fill="#feb38c"/>
          <path id="Path_12223" data-name="Path 12223" d="M541.164,212.676s1.664.895,5.729.482c0,0-2.187,3.2-3.788,2.581s-1.94-3.064-1.94-3.064" transform="translate(199.957 101.935)" fill="#fff"/>
          <path id="Path_12224" data-name="Path 12224" d="M559.164,210.713l-2.832,2.306s1.056-5.578,2.832-2.306" transform="translate(205.562 100.502)" fill="#f5836b"/>
          <path id="Path_12225" data-name="Path 12225" d="M543.59,208.684c0,.669.245,1.21.546,1.21s.548-.541.548-1.21-.245-1.21-.548-1.21-.546.543-.546,1.21" transform="translate(200.854 99.442)" fill="#000f30"/>
          <path id="Path_12226" data-name="Path 12226" d="M540.99,208.284c0,.669.244,1.21.545,1.21s.548-.541.548-1.21-.245-1.21-.548-1.21-.545.541-.545,1.21" transform="translate(199.893 99.25)" fill="#000f30"/>
          <path id="Path_12227" data-name="Path 12227" d="M548.026,205.592c.811.611-.457-2.155-1.56-2.463a1.9,1.9,0,0,0-2.431,1.348,5.573,5.573,0,0,1,3.991,1.115" transform="translate(201.018 97.321)" fill="#000f30"/>
          <path id="Path_12228" data-name="Path 12228" d="M540.872,205.108a5.492,5.492,0,0,1,2,.059,2.056,2.056,0,0,0-2.017-1.722" transform="translate(199.842 97.511)" fill="#000f30"/>
          <path id="Path_12229" data-name="Path 12229" d="M542.665,207.9,541,213.02a.133.133,0,0,0,.1.18l1.968.161a.124.124,0,0,0,.12-.142l-.3-5.286c-.008-.142-.174-.172-.218-.038" transform="translate(199.893 99.603)" fill="#f5836b"/>
        </g>
      </g>
      <rect id="Rectangle_256" data-name="Rectangle 256" width="935.882" height="648.361" transform="translate(927.684 3059.874)" fill="none"/>
    </g>
  </g>
</svg>
